<?xml version="1.0" encoding="UTF-8"?>
<svg width="48px" height="48px" viewBox="0 0 48 48" version="1.1" xmlns="http://www.w3.org/2000/svg" xmlns:xlink="http://www.w3.org/1999/xlink">
    <title>SvgjsG1112</title>
    <g id="页面-1" stroke="none" stroke-width="1" fill="none" fill-rule="evenodd">
        <g id="SvgjsG1112" transform="translate(-0.002811, -0.002814)" fill="#103A70" fill-rule="nonzero">
            <g id="编组" transform="translate(0.000000, 0.000000)">
                <path d="M20.5653307,8.95214724 C21.8212287,9.32515337 23.0967502,9.5803681 24.3918951,9.75705521 C24.725493,9.79631902 25.0590909,9.83558282 25.3730654,9.87484663 C25.3926888,9.75705521 25.4123122,9.6196319 25.4319356,9.50184049 C25.5692995,8.65766871 25.7262867,7.79386503 25.8636506,6.94969325 C26.1776251,5.04539877 26.511223,3.12147239 27.1195486,1.29570552 C27.2372891,0.96196319 27.3550295,0.628220859 27.47277,0.294478528 C26.6878337,0.176687117 25.883274,0.0981595092 25.0983377,0.0588957055 C24.9021036,0.0392638037 24.7058696,0.0392638037 24.5292589,0.0392638037 C24.3918951,1.13865031 24.1171674,2.21840491 23.7246992,3.2392638 C23.1752438,4.71165644 22.4688012,6.12515337 21.6053712,7.4601227 C21.2913967,7.95092025 20.9381754,8.44171779 20.5653307,8.95214724 Z" id="路径"></path>
                <path d="M24.9805973,13.4478528 C25.0198441,12.8392638 25.0590909,12.2306748 25.1375845,11.6220859 C24.2741546,11.5435583 23.4303481,11.406135 22.5865416,11.2490798 C21.5072542,11.0527607 20.4279668,10.7779141 19.3879262,10.4441718 C19.1916922,10.6797546 18.9758347,10.9153374 18.7599772,11.1509202 C17.3667153,12.6822086 15.7968427,14.0368098 14.0699829,15.1754601 C13.5793977,15.5092025 13.0691891,15.8233129 12.5393572,16.1177914 C12.8533317,17.5312883 12.9710721,19.0233129 12.8533317,20.4564417 C12.8140849,21.0453988 12.7355912,21.6539877 12.6178508,22.2429448 C12.9122019,22.203681 13.1869296,22.1644172 13.4812807,22.1251534 C17.4648323,21.5754601 21.4091372,20.809816 25.2945718,19.7889571 C24.9805973,17.6883436 24.8628568,15.5680982 24.9805973,13.4478528 Z" id="路径"></path>
                <path d="M10.890991,27.4257669 C10.7732505,27.7006135 10.6358867,27.9558282 10.5181462,28.2110429 C11.0676016,28.407362 11.617057,28.6233129 12.146889,28.8785276 C13.9522425,29.7226994 15.6398555,30.8417178 17.0919876,32.196319 C17.1312344,32.2355828 17.1901046,32.2748466 17.2293515,32.3141104 C19.8000178,28.9177914 22.2725671,25.4233129 24.5096355,21.8110429 C20.4475902,22.8122699 16.3462981,23.5582822 12.1861358,24.0490798 C11.8329145,25.207362 11.4011995,26.3263804 10.890991,27.4257669 Z" id="路径"></path>
                <path d="M27.1391721,9.99263804 C28.3165765,10.0319018 29.5136043,10.0122699 30.6910087,9.91411043 C31.2012173,8.67730061 31.6721791,7.4404908 32.1235175,6.16441718 C32.5944792,4.77055215 33.0458176,3.35705521 33.3401687,1.90429448 C33.163558,1.82576687 32.967324,1.74723926 32.7907133,1.66871166 C31.6525557,1.21717791 30.4751513,0.844171779 29.2585,0.569325153 C28.5913042,2.21840491 28.198836,3.98527607 27.8652381,5.73251534 C27.7082509,6.57668712 27.570887,7.4404908 27.4335232,8.28466258 C27.3354061,8.87361963 27.2372891,9.42331288 27.1391721,9.99263804 Z" id="路径"></path>
                <path d="M28.0614722,11.7791411 C27.669004,11.7791411 27.2961593,11.7595092 26.9036912,11.7398773 C26.6878337,13.7815951 26.6485869,15.8233129 26.8448209,17.8453988 C27.9633552,15.8429448 28.9837723,13.801227 29.9256959,11.7202454 C29.2977468,11.7595092 28.6697978,11.7791411 28.0614722,11.7791411 Z" id="路径"></path>
                <path d="M32.6925963,9.65889571 C34.5764434,9.32515337 36.4210436,8.79509202 38.2067737,8.04907975 C39.0702036,7.67607362 39.9140101,7.26380368 40.7185698,6.81226994 C39.6981526,5.81104294 38.5796184,4.88834356 37.3629672,4.08343558 C36.6172777,3.57300613 35.8323414,3.12147239 34.9885349,2.68957055 C34.4783263,4.96687117 33.69339,7.18527607 32.8299601,9.36441718 C32.7710899,9.44294479 32.7318431,9.5607362 32.6925963,9.65889571 Z" id="路径"></path>
                <path d="M33.2028049,11.3472393 C32.7710899,11.4257669 32.3393749,11.4846626 31.90766,11.5435583 C31.3189578,12.9374233 30.6713853,14.3116564 30.0041895,15.6662577 C29.4351107,16.7852761 28.8464085,17.8846626 28.2380829,18.9644172 C31.4955684,18.002454 34.6941838,16.8834356 37.8339289,15.5680982 C40.2279846,14.5472393 42.5631701,13.4282209 44.8591087,12.191411 C44.7217448,11.9558282 44.584381,11.7202454 44.4470171,11.5042945 C43.7405745,10.3460123 42.9163914,9.20736196 41.9548444,8.12760736 C41.1110379,8.61840491 40.2279846,9.06993865 39.3253079,9.46257669 C37.3629672,10.3263804 35.3221328,10.993865 33.2028049,11.3472393 Z" id="路径"></path>
                <path d="M27.3354061,21.0650307 C27.6886275,22.6159509 28.1595892,24.1276074 28.7679148,25.6 C29.6117214,27.5828221 30.6910087,29.4478528 31.9861536,31.1754601 C32.0450238,31.2539877 32.1235175,31.3521472 32.1823877,31.4306748 C33.2028049,29.7815951 34.3998327,28.2306748 35.714601,26.797546 C37.3629672,25.0110429 39.2075674,23.401227 41.2287784,22.0662577 C43.1714957,20.790184 45.2515768,19.7300613 47.429775,18.9055215 C47.2531644,18.1398773 47.0569303,17.3742331 46.801826,16.6282209 C46.4878515,15.6662577 46.0953833,14.7042945 45.6636684,13.7815951 C44.2507831,14.5472393 42.8378978,15.2539877 41.3857656,15.9214724 C36.8527586,18.0220859 32.1431409,19.7300613 27.3354061,21.0650307 Z" id="路径"></path>
                <path d="M47.7633729,20.6527607 C47.4886452,20.7509202 47.1942941,20.8687117 46.9195664,20.9865031 C44.6628746,21.9484663 42.5435466,23.1852761 40.6008293,24.6576687 C38.6384886,26.1889571 36.8920054,27.9558282 35.3613796,29.9190184 C34.654937,30.8417178 34.0073645,31.803681 33.3990389,32.804908 C34.6941838,34.198773 36.1266925,35.4748466 37.6376949,36.6527607 C39.0702036,37.7521472 40.5615825,38.7730061 42.0529615,39.7742331 C42.9752616,38.7337423 43.7994447,37.6147239 44.5255108,36.4368098 C45.4085641,35.003681 46.1542536,33.4134969 46.7429558,31.7055215 C47.2727878,30.1349693 47.6652559,28.4269939 47.86149,26.6208589 C48.0773475,24.6773006 48.0381006,22.6552147 47.7633729,20.6527607 Z" id="路径"></path>
                <path d="M28.1399658,28.3680982 C27.2372891,26.601227 26.4915996,24.7361963 25.9617676,22.8122699 C23.6462056,26.5226994 21.0951627,30.0957055 18.4656261,33.5705521 C18.8188474,33.9631902 19.1720688,34.3754601 19.5056667,34.807362 C20.2513562,35.7496933 20.9577988,36.7509202 21.5857478,37.791411 C22.2333203,38.8711656 22.8023991,40.009816 23.2929843,41.1680982 C24.2349078,40.9325153 25.1964547,40.7558282 26.1580017,40.6773006 C26.6289635,40.6380368 27.0999252,40.6184049 27.570887,40.6184049 C27.8456147,40.6184049 28.1203424,40.6184049 28.3754467,40.6380368 C28.5716808,39.7546012 28.8071617,38.8907975 29.0818894,38.0269939 C29.6509682,36.2993865 30.3770342,34.6306748 31.2404641,33.0404908 C30.0434363,31.5877301 29.0033957,30.0368098 28.1399658,28.3680982 Z" id="路径"></path>
                <path d="M28.0418488,42.3852761 C27.8848615,42.3852761 27.7474977,42.3852761 27.5905104,42.3852761 C26.9036912,42.3852761 26.2364953,42.4245399 25.5496761,42.5226994 C25.0002207,42.601227 24.4703887,42.6993865 23.9405567,42.8368098 C24.0975439,43.2490798 24.2349078,43.6613497 24.3722716,44.0736196 C24.7843632,45.3496933 25.1179611,46.6650307 25.4123122,47.9803681 C26.2561187,47.9214724 27.1195486,47.8233129 28.002602,47.6858896 C27.9437317,47.4503067 27.9044849,47.2343558 27.8652381,46.998773 C27.7278743,45.997546 27.7278743,44.996319 27.8259913,43.9754601 C27.8652381,43.4257669 27.9437317,42.9153374 28.0418488,42.3852761 Z" id="路径"></path>
                <path d="M37.7750587,38.9496933 C35.910835,37.5754601 34.1054816,36.1226994 32.4963622,34.4343558 C32.1627643,35.0822086 31.8487898,35.7496933 31.5544387,36.4171779 C30.9657364,37.8503067 30.4947747,39.3226994 30.1415533,40.8343558 C31.1423471,41.0110429 32.1038941,41.3055215 33.0458176,41.6588957 C34.1839752,42.1104294 35.3025094,42.6404908 36.3621734,43.2883436 C36.6957713,43.4846626 37.0293692,43.7006135 37.3629672,43.9165644 C37.3825906,43.8969325 37.4218374,43.8773006 37.4414608,43.8576687 C38.658112,43.0331288 39.7962696,42.1104294 40.8363102,41.0699387 C40.7970634,41.0306748 40.7381932,41.0110429 40.6989464,40.9717791 C39.6981526,40.3435583 38.7169823,39.6564417 37.7750587,38.9496933 Z" id="路径"></path>
                <path d="M29.788332,42.5619632 C29.7294618,42.8957055 29.6705916,43.209816 29.6313448,43.5435583 C29.5136043,44.5644172 29.4547341,45.5852761 29.5724745,46.606135 C29.6117214,46.8417178 29.6509682,47.0773006 29.7098384,47.3128834 C31.7702961,46.802454 33.7915071,46.0171779 35.6753542,44.9570552 C34.7923008,44.4269939 33.8896241,43.9361963 32.9477006,43.5239264 C31.9272834,43.1116564 30.8676194,42.7779141 29.788332,42.5619632 Z" id="路径"></path>
                <path d="M13.8481874,37.0612168 C13.8481874,37.0612168 13.7969416,37.1124847 13.7969416,37.1124847 C13.6944502,37.2662884 13.5919588,37.3688242 13.4894673,37.5226279 C13.6432045,37.3688242 13.7456959,37.2150205 13.8481874,37.0612168 Z" id="路径"></path>
                <path d="M15.9145832,34.002454 C15.9930768,33.9042945 16.051947,33.8257669 16.1304407,33.7276074 C15.6791023,33.2957055 15.2081405,32.8834356 14.6979319,32.4907975 C13.5009041,31.5877301 12.2253826,30.8417178 10.8517441,30.2331288 C10.459276,30.0760736 10.0668079,29.9190184 9.65471631,29.7815951 C8.92865024,31.0576687 8.14371396,32.2944785 7.28028404,33.4920245 C6.29911369,34.8858896 5.2394497,36.2208589 4.17978572,37.5558282 C4.43489001,37.9288344 4.72924112,38.3214724 5.04321563,38.7337423 C6.0636328,40.0490798 7.22141382,41.2662577 8.49693529,42.3460123 C8.59505232,42.4245399 8.67354595,42.5030675 8.77166298,42.5815951 C10.5181462,40.8932515 12.0683954,38.9889571 13.5401509,37.0650307 C14.364334,36.0441718 15.1296469,35.0233129 15.9145832,34.002454 Z" id="路径"></path>
                <path d="M21.5857478,41.6785276 C20.7223179,39.7349693 19.6430305,37.8895706 18.3478857,36.201227 C18.0339111,35.7889571 17.7003132,35.396319 17.3470919,35.003681 C17.1704812,35.2196319 17.013494,35.4355828 16.8368833,35.6515337 C14.992283,38.0466258 13.206553,40.5006135 11.1264718,42.6993865 C10.8124973,43.0134969 10.5181462,43.3472393 10.2041717,43.6417178 C11.0283548,44.2306748 11.9114081,44.7607362 12.7944614,45.2319018 C13.3635403,45.5263804 13.9522425,45.8208589 14.5409447,46.0760736 C14.5605681,46.0564417 14.5801915,46.0564417 14.5801915,46.0368098 C15.1492703,45.5067485 15.7575959,44.996319 16.3659215,44.5251534 C17.209728,43.8576687 18.0927814,43.2687117 19.0543283,42.7582822 C19.8981348,42.3656442 20.7223179,41.992638 21.5857478,41.6785276 Z" id="路径"></path>
                <path d="M21.2913967,43.6809816 C19.9962519,44.2503067 18.7796006,44.9374233 17.641443,45.801227 C17.2293515,46.1153374 16.8172599,46.4490798 16.4247918,46.802454 C16.8172599,46.9398773 17.209728,47.0576687 17.6021962,47.1558282 C19.230939,47.607362 20.9577988,47.8822086 22.7631523,47.9803681 C23.03788,48 23.3126077,48 23.6069588,48 C23.234114,46.409816 22.8023991,44.8392638 22.2529437,43.3079755 C21.9193458,43.4257669 21.6053712,43.5631902 21.2913967,43.6809816 Z" id="路径"></path>
                <path d="M6.98593294,22.7730061 C7.711999,22.7141104 8.43806506,22.6552147 9.14450772,22.596319 C9.69396312,22.5570552 10.2434185,22.4981595 10.7732505,22.4392638 C10.8713675,22.0269939 10.9498612,21.595092 11.0087314,21.1828221 C11.1460952,19.9852761 11.1657187,18.807362 11.0087314,17.609816 C10.9694846,17.393865 10.9498612,17.1779141 10.890991,16.9619632 C9.69396312,17.5509202 8.43806506,18.0220859 7.1625436,18.4147239 C4.98434541,19.0625767 2.70803018,19.4355828 0.451338364,19.4355828 C0.196234071,20.7116564 0.0392468142,22.007362 4.48503262e-15,23.3030675 C1.62874279,23.2638037 3.25748558,23.1263804 4.86660497,22.9693252 C5.59267103,22.8907975 6.29911369,22.8319018 6.98593294,22.7730061 Z" id="路径"></path>
                <path d="M6.31873709,27.209816 C7.1625436,27.3276074 7.9867267,27.4650307 8.8109098,27.6809816 C9.12488431,27.0723926 9.39961201,26.4638037 9.67433971,25.8355828 C9.89019719,25.3055215 10.0864313,24.7754601 10.2826653,24.2453988 C10.027561,24.2650307 9.77245675,24.3042945 9.49772905,24.3239264 C8.22220759,24.4417178 6.94668612,24.5398773 5.67116466,24.6576687 C4.3956432,24.7754601 3.12012173,24.9128834 1.82497686,24.991411 C1.23627465,25.0306748 0.647572435,25.0503067 0.0392468142,25.0699387 C0.0784936285,25.8355828 0.13736385,26.6208589 0.255104293,27.3865031 C0.294351107,27.3865031 0.333597921,27.3668712 0.353221328,27.3668712 C1.53062576,27.1705521 2.70803018,27.0527607 3.90505802,27.0527607 C4.70961771,27.0527607 5.5141774,27.1116564 6.31873709,27.209816 Z" id="路径"></path>
                <path d="M7.90823307,29.2907975 C7.37840108,29.1730061 6.82894568,29.0552147 6.27949028,28.9766871 C5.47493059,28.8785276 4.65074749,28.8196319 3.8461878,28.8196319 C3.0220047,28.8196319 2.1978216,28.8785276 1.3736385,28.9766871 C1.0989108,29.0159509 0.824183099,29.0552147 0.549455399,29.1141104 C0.569078807,29.1730061 0.569078807,29.2515337 0.588702214,29.3104294 C0.941923542,30.9595092 1.53062576,32.6282209 2.31556204,34.3165644 C2.57066633,34.8662577 2.86501744,35.4159509 3.17899195,35.9852761 C3.55183669,35.5337423 3.90505802,35.0625767 4.25827935,34.6110429 C5.59267103,32.9030675 6.82894568,31.1361963 7.90823307,29.2907975 Z" id="路径"></path>
                <path d="M14.894166,6.20368098 C15.95383,6.98895706 17.0919876,7.63680982 18.3086388,8.14723926 C18.4852495,8.22576687 18.6422368,8.28466258 18.8188474,8.34355828 C18.8188474,8.32392638 18.8384708,8.32392638 18.8384708,8.30429448 C19.9962519,6.79263804 20.9970456,5.16319018 21.7623585,3.39631902 C22.2136969,2.29693252 22.5669182,1.17791411 22.7435289,0 C22.704282,0 22.6650352,0 22.6257884,0 C20.8400584,0.117791411 19.0739517,0.412269939 17.4059621,0.903067485 C15.7968427,1.37423313 14.2073468,2.02208589 12.6570976,2.86625767 C12.5001103,2.94478528 12.3431231,3.04294479 12.1861358,3.12147239 C12.4019933,3.49447853 12.6374742,3.86748466 12.9122019,4.2208589 C13.4812807,4.98650307 14.1484765,5.63435583 14.894166,6.20368098 Z" id="路径"></path>
                <path d="M9.69396312,10.208589 C10.2826653,10.9349693 10.8124973,11.7006135 11.2442123,12.5251534 C11.5385634,13.1141104 11.8132911,13.7226994 12.048772,14.3312883 C12.9122019,13.8208589 13.7560084,13.2515337 14.5605681,12.6429448 C15.6594789,11.7791411 16.6798961,10.797546 17.6218196,9.75705521 C17.4844557,9.69815951 17.3470919,9.6392638 17.2293515,9.5803681 C15.5809853,8.85398773 14.0307361,7.89202454 12.7159678,6.63558282 C12.0683954,6.00736196 11.4796932,5.3202454 10.989108,4.55460123 C10.890991,4.39754601 10.7928739,4.2404908 10.6947569,4.06380368 C9.92944401,4.59386503 9.16413113,5.16319018 8.41844166,5.81104294 C7.92785648,6.22331288 7.45689471,6.67484663 6.96630953,7.16564417 C7.96710329,8.10797546 8.85015661,9.14846626 9.69396312,10.208589 Z" id="路径"></path>
                <path d="M9.06601409,15.8625767 C9.53697586,15.6662577 10.0079376,15.4306748 10.4788994,15.195092 C10.3807824,14.9006135 10.2826653,14.606135 10.1649249,14.3116564 C9.73320993,13.3300613 9.20337794,12.407362 8.55580551,11.5435583 C7.711999,10.4638037 6.80932227,9.40368098 5.7889051,8.4809816 C5.5141774,8.79509202 5.2394497,9.14846626 4.9450986,9.54110429 C3.92468142,10.8760736 3.0416281,12.3484663 2.29593863,13.9190184 C1.72685983,15.1165644 1.27552146,16.3730061 0.922300135,17.6490798 C1.68761301,17.6294479 2.45292589,17.5705521 3.19861536,17.4723926 C5.20020289,17.197546 7.18216701,16.6478528 9.06601409,15.8625767 Z" id="路径"></path>
            </g>
        </g>
    </g>
</svg>