<?xml version="1.0" encoding="UTF-8"?>
<svg width="515px" height="506px" viewBox="0 0 515 506" version="1.1" xmlns="http://www.w3.org/2000/svg" xmlns:xlink="http://www.w3.org/1999/xlink">
    <title>SvgjsG1112</title>
    <g id="页面-1" stroke="none" stroke-width="1" fill="none" fill-rule="evenodd" opacity="0.699999988">
        <g id="ABOUT" transform="translate(-1443.000000, -176.000000)" fill-rule="nonzero" stroke="#DEDEE5" stroke-width="4">
            <g id="编组" transform="translate(1446.000000, 178.000000)" opacity="0.800000012">
                <path d="M236.437527,452.929243 C242.27549,468.943967 246.862462,485.369325 250.823937,502 C247.696456,502 244.777475,502 241.858493,501.794683 C222.676612,500.768098 204.328727,497.893661 187.023335,493.17137 C182.853361,492.144785 178.683387,490.912883 174.513412,489.475665 C178.683387,485.779959 183.061859,482.289571 187.440332,479.004499 C199.533257,469.970552 212.460176,462.784458 226.22109,456.830266 C229.557069,455.598364 232.893049,454.161145 236.437527,452.929243 Z M297.944643,443.279346 C296.90215,448.822904 296.068155,454.161145 295.651158,459.91002 C294.608664,470.586503 294.608664,481.057669 296.068155,491.528834 C296.485152,493.992638 296.90215,496.251125 297.527646,498.714928 C288.145204,500.152147 278.971262,501.178732 270.005817,501.794683 C266.878337,488.038446 263.333859,474.282209 258.955386,460.936605 C257.495895,456.624949 256.036404,452.313292 254.368415,448.001636 C259.99788,446.564417 265.627345,445.537832 271.465308,444.716564 C278.762763,443.68998 285.851719,443.279346 293.149173,443.279346 Z M316.501028,445.127198 C327.968456,447.385685 339.227386,450.876074 350.069318,455.18773 C360.077256,459.499387 369.668196,464.632311 379.050638,470.175869 C359.034763,481.262986 337.559396,489.475665 315.667033,494.813906 C315.041537,492.350102 314.624539,489.886299 314.207542,487.422495 C312.95655,476.746012 313.582046,466.06953 314.833038,455.393047 C315.250035,451.902658 315.875532,448.617587 316.501028,445.127198 Z M184.312851,366.080164 C188.065828,370.186503 191.610306,374.292843 194.946285,378.604499 C208.707199,396.261759 220.174628,415.561554 229.348571,435.887935 C220.174628,439.173006 211.417683,443.074029 202.452238,447.180368 C192.235802,452.518609 182.853361,458.678119 173.887916,465.658896 C167.424457,470.586503 160.960997,475.924744 154.914535,481.468303 C154.914535,481.67362 154.706036,481.67362 154.497537,481.878937 C148.242576,479.209816 141.987615,476.130061 135.941153,473.050307 C126.558711,468.122699 117.17627,462.579141 108.419324,456.419632 C111.755304,453.339877 114.882784,449.849489 118.218763,446.564417 C134.086049,430.054827 148.341274,412.169437 162.37329,394.123944 L165.37724,390.255046 L168.377395,386.383904 C171.876541,381.867298 175.374138,377.351539 178.891885,372.855624 C180.768374,370.597137 182.436363,368.33865 184.312851,366.080164 Z M345.273848,360.125971 C362.370742,377.783231 381.552622,392.976687 401.359999,407.348875 C411.367936,414.740286 421.792872,421.92638 432.426305,428.496524 C432.843303,428.907157 433.468799,429.112474 433.885796,429.523108 C422.835365,440.404908 410.74244,450.054806 397.815521,458.678119 C397.607022,458.883436 397.190025,459.088753 396.981526,459.29407 C393.437048,457.035583 389.89257,454.777096 386.348092,452.723926 C375.089163,445.948466 363.204737,440.404908 351.111812,435.682618 C341.103874,431.986912 330.887438,428.907157 320.254004,427.059305 C324.006981,411.249898 329.01095,395.851125 335.265911,380.862986 C338.393391,373.882209 341.72937,366.901431 345.273848,360.125971 Z M102.581361,311.465849 C106.959833,312.903067 111.129807,314.545603 115.299781,316.188139 C129.894691,322.552965 143.447106,330.35501 156.165527,339.799591 C161.586493,343.90593 166.590462,348.217587 171.385932,352.73456 C170.551937,353.761145 169.926441,354.582413 169.092446,355.608998 C167.702455,357.388412 166.318255,359.167825 164.935986,360.947239 L160.791109,366.285481 C155.262032,373.403136 149.702067,380.520791 143.864103,387.638446 C128.226701,407.759509 111.755304,427.675256 93.1989192,445.332515 C92.1564257,444.511247 91.3224309,443.68998 90.2799374,442.868712 C76.7275219,431.576278 64.4260985,418.846626 53.5841661,405.090389 C50.2481869,400.778732 47.1207064,396.672393 44.4102232,392.77137 C55.6691531,378.809816 66.9280829,364.848262 77.353018,350.270757 C86.5269608,337.746421 94.8669088,324.811452 102.581361,311.465849 Z M275.843781,238.578323 C281.473246,258.699387 289.396197,278.204499 298.987137,296.683027 C308.16108,314.134969 319.211511,330.35501 331.929932,345.548466 C322.755989,362.179141 315.041537,379.631084 308.995074,397.698978 C306.076093,406.732924 303.574108,415.766871 301.489121,425.006135 C298.778638,424.800818 295.859656,424.800818 292.940674,424.800818 C287.936706,424.800818 282.932737,425.006135 277.928768,425.416769 C267.712332,426.238037 257.495895,428.08589 247.487958,430.549693 C242.27549,418.435992 236.229028,406.527607 229.348571,395.235174 C222.676612,384.353374 215.170659,373.882209 207.247708,364.026994 C203.703231,359.51002 199.950254,355.198364 196.197277,351.092025 C224.136103,314.75092 251.240934,277.383231 275.843781,238.578323 Z M507.485838,215.993456 C510.404819,236.935787 510.821817,258.083436 508.528331,278.409816 C506.443344,297.298978 502.27337,315.161554 496.643905,331.586912 C490.388944,349.449489 482.465993,366.080164 473.083552,381.068303 C465.3691,393.387321 456.612155,405.090389 446.812716,415.972188 C430.966814,405.501022 415.120913,394.82454 399.900508,383.326789 C383.846108,371.007771 368.625703,357.662168 354.864789,343.084663 C361.328248,332.613497 368.208705,322.552965 375.714659,312.903067 C391.977557,292.37137 410.533942,273.892843 431.383812,257.878119 C452.025183,242.479346 474.543043,229.544376 498.520393,219.483845 C501.439375,218.251943 504.566856,217.020041 507.485838,215.993456 Z M144.281101,387.433129 C143.864103,388.04908 143.447106,388.665031 142.82161,389.280982 C143.238607,388.665031 143.655605,388.254397 144.072602,387.638446 C144.072602,387.638446 144.078394,387.632743 144.088047,387.623237 L144.176852,387.535787 L144.215131,387.498092 L144.272142,387.441951 C144.277843,387.436337 144.281101,387.433129 144.281101,387.433129 Z M40.8657453,301.405317 C49.4141921,301.405317 58.1711375,302.021268 66.7195842,303.047853 C72.5575478,303.869121 78.3955115,305.101022 84.0249764,306.332924 C72.5575478,325.63272 59.4221297,344.111247 45.2442181,361.973824 C41.4912414,366.696115 37.7382648,371.623722 33.7767895,376.346012 C30.4408103,370.39182 27.3133298,364.642945 24.6028467,358.89407 C16.2628987,341.23681 10.0079376,323.784867 6.25496102,306.538241 C6.04646232,305.92229 6.04646232,305.101022 5.83796362,304.485072 C8.75694543,303.869121 11.6759272,303.458487 14.594909,303.047853 C23.3518545,302.021268 32.1087999,301.405317 40.8657453,301.405317 Z M260.414877,228.107157 C236.646025,265.885481 210.375189,302.431902 183.061859,337.951738 C182.644862,337.541104 182.019366,337.13047 181.602368,336.719836 C166.173464,322.552965 148.242576,310.849898 129.060696,302.021268 C123.431231,299.352147 117.593267,297.093661 111.755304,295.040491 C113.006296,292.37137 114.465787,289.702249 115.716779,286.827812 C121.137745,275.330061 125.724717,263.626994 129.477693,251.513292 C173.679418,246.380368 217.255646,238.578323 260.414877,228.107157 Z M485.176477,144.132515 C489.763448,153.782413 493.933422,163.842945 497.269401,173.903476 C499.979884,181.705521 502.064871,189.712883 503.94136,197.720245 C480.798004,206.343558 458.697142,217.430675 438.05577,230.776278 C416.580404,244.737832 396.981526,261.573824 379.467635,280.257669 C365.498222,295.245808 352.779802,311.465849 341.937869,328.712474 C341.72937,328.438718 341.497705,328.14215 341.258318,327.837976 L340.532433,326.917852 C340.293046,326.613679 340.061381,326.31711 339.852882,326.043354 C326.091968,307.97546 314.624539,288.470348 305.659095,267.733333 C299.195636,252.33456 294.191667,236.525153 290.43869,220.305112 C341.520872,206.343558 391.56056,188.480982 439.72376,166.512065 C455.152664,159.531288 470.16457,152.139877 485.176477,144.132515 Z M109.253319,253.566462 C107.168332,259.11002 105.083345,264.653579 102.789859,270.197137 C99.8708776,276.76728 96.9518958,283.132106 93.6159166,289.496933 C84.8589712,287.238446 76.1020258,285.801227 67.1365816,284.569325 C58.5881349,283.54274 50.0396882,282.926789 41.4912414,282.926789 C28.7728207,282.926789 16.2628987,284.158691 3.75297661,286.211861 C3.54447791,286.211861 3.12748051,286.417178 2.71048311,286.417178 C1.4594909,278.409816 0.833994803,270.197137 0.416997401,262.189775 C6.88045712,261.984458 13.1354181,261.779141 19.3903792,261.368507 C33.1512934,260.547239 46.703709,259.11002 60.2561245,257.878119 C73.80854,256.646217 87.3609556,255.619632 100.913371,254.38773 C103.832353,254.182413 106.542836,253.771779 109.253319,253.566462 Z M115.716779,177.393865 C116.342275,179.652352 116.550774,181.910838 116.967771,184.169325 C118.635761,196.693661 118.427262,209.012679 116.967771,221.537014 C116.342275,225.848671 115.50828,230.365644 114.465787,234.677301 C108.836322,235.293252 102.998358,235.909202 97.1603945,236.319836 C89.6544413,236.935787 81.9399894,237.551738 74.2255375,238.167689 C66.9280829,238.78364 59.4221297,239.399591 51.7076778,240.220859 C34.6107843,241.863395 17.3053922,243.300613 0,243.711247 C0.416997401,230.160327 2.08498701,216.609407 4.79547012,203.263804 C28.7728207,203.263804 52.95867,199.362781 76.1020258,192.587321 C89.6544413,188.480982 102.998358,183.553374 115.716779,177.393865 Z M205.996716,109.22863 C217.047147,112.719018 228.514576,115.593456 239.982005,117.646626 C248.947449,119.289162 257.912893,120.72638 267.086836,121.547648 C266.252841,127.912474 265.835843,134.277301 265.418846,140.642127 C264.167854,162.81636 265.418846,184.990593 268.754825,206.959509 C227.472082,217.635992 185.563844,225.643354 143.238607,231.392229 C140.111127,231.802863 137.192145,232.213497 134.064665,232.624131 C135.315657,226.464622 136.149652,220.099796 136.566649,213.940286 C137.817641,198.952147 136.566649,183.348057 133.23067,168.565235 C138.860135,165.485481 144.281101,162.200409 149.493568,158.71002 C167.841454,146.801636 184.52135,132.634765 199.324758,116.620041 C201.618244,114.156237 203.911729,111.692434 205.996716,109.22863 Z M445.770222,85.001227 C455.986658,96.2936605 464.743604,108.202045 472.249557,120.315746 C473.709048,122.574233 475.168539,125.038037 476.62803,127.50184 C452.233682,140.43681 427.422336,152.139877 401.985495,162.81636 C368.625703,176.572597 334.640415,188.275665 300.02963,198.336196 C306.49309,187.043763 312.748051,175.546012 318.794513,163.842945 C325.883469,149.676074 332.763926,135.303885 339.018887,120.72638 C343.605859,120.110429 348.19283,119.494479 352.779802,118.673211 C375.297661,114.977505 396.981526,107.996728 417.831396,98.9627812 C427.422336,94.8564417 436.804778,90.1341513 445.770222,85.001227 Z M317.960519,122.574233 C307.952581,144.337832 297.110649,165.690798 285.226223,186.633129 C283.141236,165.485481 283.558233,144.132515 285.851719,122.77955 C290.021693,122.984867 293.983168,123.190184 298.153142,123.190184 C304.616602,123.190184 311.28856,122.984867 317.960519,122.574233 Z M61.5071167,88.6969325 C72.3490491,98.3468303 81.9399894,109.433947 90.9054335,120.72638 C97.7858906,129.760327 103.415356,139.410225 108.002327,149.676074 C109.253319,152.755828 110.295813,155.835583 111.338306,158.915337 C106.334337,161.379141 101.330369,163.842945 96.3263997,165.896115 C76.3105245,174.108793 55.2521557,179.857669 33.9852882,182.732106 C26.0623376,183.758691 17.9308883,184.374642 9.79943893,184.579959 C13.5524155,171.234356 18.3478857,158.09407 24.394348,145.569734 C32.3172986,129.144376 41.6997401,113.745603 52.5416726,99.7840491 C55.6691531,95.6777096 58.5881349,91.9820041 61.5071167,88.6969325 Z M113.631792,42.5006135 C114.674285,44.3484663 115.716779,45.991002 116.759272,47.6335378 C121.97174,55.6408998 128.226701,62.8269939 135.107158,69.397137 C149.076571,82.5374233 165.547968,92.597955 183.061859,100.194683 C184.312851,100.810634 185.772342,101.426585 187.231833,102.042536 C177.223896,112.924335 166.381963,123.190184 154.706036,132.224131 C146.157589,138.588957 137.192145,144.543149 128.018202,149.881391 C125.516218,143.516564 122.597236,137.151738 119.469756,130.992229 C114.882784,122.368916 109.253319,114.361554 102.998358,106.764826 C94.032914,95.6777096 84.6504725,84.79591 74.0170387,74.9406953 C79.2295063,69.807771 84.2334751,65.0854806 89.4459426,60.7738241 C97.3688932,53.998364 105.500343,48.0441718 113.631792,42.5006135 Z M310.871563,5.95419223 C323.798482,8.82862986 336.308404,12.7296524 348.401329,17.4519427 C350.277817,18.2732106 352.362804,19.0944785 354.239292,19.9157464 C351.111812,35.1092025 346.316342,49.8920245 341.312373,64.4695297 C336.516903,77.8151329 331.512934,90.7501022 326.091968,103.685072 C313.582046,104.711656 300.863625,104.916973 288.353703,104.506339 C289.396197,98.5521472 290.43869,92.803272 291.481184,86.6437628 C292.940674,77.8151329 294.400165,68.7811861 296.068155,59.9525562 C299.612633,41.6793456 303.782607,23.200818 310.871563,5.95419223 Z M260.623376,0.410633947 C262.499864,0.410633947 264.584851,0.410633947 266.669838,0.61595092 C275.009786,1.02658487 283.558233,1.84785276 291.898181,3.0797546 C290.647189,6.57014315 289.396197,10.0605317 288.145204,13.5509202 C281.681745,32.6453988 278.137267,52.7664622 274.801288,72.6822086 C273.341797,81.5108384 271.673807,90.5447853 270.214316,99.3734151 C270.005817,100.605317 269.797319,102.042536 269.58882,103.274438 C266.252841,102.863804 262.708363,102.45317 259.163885,102.042536 C245.402971,100.194683 231.850555,97.5255624 218.506638,93.6245399 C222.468114,88.2862986 226.22109,83.1533742 229.557069,78.0204499 C238.731012,64.0588957 246.236966,49.2760736 252.074929,33.8773006 C256.244903,23.200818 259.163885,11.9083845 260.623376,0.410633947 Z M371.753183,28.1284254 C380.718627,32.6453988 389.058576,37.3676892 396.981526,42.7059305 C409.908446,51.1239264 421.792872,60.7738241 432.634804,71.2449898 C424.086357,75.9672802 415.120913,80.2789366 405.94697,84.1799591 C386.973589,91.9820041 367.374711,97.5255624 347.358835,101.015951 C347.775833,99.9893661 348.19283,98.7574642 348.818326,97.9361963 C357.992269,75.1460123 366.332217,51.9451943 371.753183,28.1284254 Z M241.649994,0 C239.773506,12.3190184 236.020529,24.0220859 231.225059,35.5198364 C223.09361,53.998364 212.460176,71.0396728 200.158753,86.8490798 C200.158753,86.9175187 200.135586,86.9631447 200.104697,87.0011664 L200.004309,87.1076271 C199.97342,87.1456487 199.950254,87.1912747 199.950254,87.2597137 C198.073766,86.6437628 196.405776,86.0278119 194.529288,85.206544 C181.602368,79.8683027 169.509444,73.0928425 158.250514,64.8801636 C150.327563,58.9259714 143.238607,52.1505112 137.192145,44.1431493 C134.273163,40.4474438 131.771179,36.5464213 129.477693,32.6453988 C131.145683,31.8241309 132.813672,30.797546 134.481662,29.9762781 C150.953059,21.1476483 167.841454,14.3721881 184.938348,9.44458078 C202.660737,4.31165644 221.42562,1.23190184 240.399002,0 L241.649994,0 Z" id="形状结合"></path>
            </g>
        </g>
    </g>
</svg>