<?xml version="1.0" encoding="UTF-8"?>
<svg width="278px" height="278px" viewBox="0 0 278 278" version="1.1" xmlns="http://www.w3.org/2000/svg" xmlns:xlink="http://www.w3.org/1999/xlink">
    <title>编组 7</title>
    <g id="页面-1" stroke="none" stroke-width="1" fill="none" fill-rule="evenodd">
        <g id="INSIGHT" transform="translate(-122.000000, -622.000000)">
            <g id="编组-7" transform="translate(122.000000, 622.000000)">
                <circle id="椭圆形" fill="#FFFFFF" cx="139" cy="139" r="139"></circle>
                <g id="SvgjsG1112" transform="translate(11.183908, 13.580460)" fill="#DEDEE5" fill-rule="nonzero">
                    <g id="编组">
                        <path d="M109.181912,46.782258 C115.849509,48.7315187 122.621288,50.0652234 129.497248,50.9885575 C131.268329,51.1937428 133.03941,51.3989281 134.706309,51.6041135 C134.81049,50.9885575 134.914672,50.2704088 135.018853,49.6548527 C135.748121,45.2433679 136.581571,40.7292904 137.310839,36.3178055 C138.977739,26.3663164 140.748819,16.3122347 143.978437,6.77111628 C144.603524,5.02704088 145.228612,3.28296547 145.853699,1.53889006 C141.68645,0.923334038 137.415021,0.512963355 133.247772,0.307778013 C132.20596,0.205185342 131.164148,0.205185342 130.226517,0.205185342 C129.497248,5.95037491 128.038711,11.5929718 125.955087,16.9277907 C123.038013,24.622241 119.287489,32.0089133 114.703516,38.985215 C113.036617,41.5500317 111.161355,44.1148485 109.181912,46.782258 Z" id="路径"></path>
                        <path d="M132.622685,70.2759796 C132.831047,67.0956068 133.03941,63.915234 133.456135,60.7348612 C128.872161,60.3244905 124.392369,59.6063418 119.912577,58.7856005 C114.18261,57.7596737 108.452643,56.3233763 102.931039,54.5793009 C101.889227,55.810413 100.743233,57.041525 99.5972401,58.2726371 C92.200374,66.2748654 83.8658769,73.3537597 74.6979301,79.3041346 C72.0933998,81.04821 69.3846882,82.6896928 66.5717954,84.2285828 C68.2386949,91.6152552 68.8637821,99.4122981 68.2386949,106.901563 C68.0303324,109.979343 67.6136076,113.159716 66.9885203,116.237496 C68.5512385,116.032311 70.0097755,115.827125 71.5724937,115.62194 C92.72128,112.749345 113.661704,108.748231 134.289584,103.413412 C132.622685,92.4359965 131.997598,81.3559881 132.622685,70.2759796 Z" id="路径"></path>
                        <path d="M57.8205735,143.321961 C57.1954862,144.758259 56.4662177,146.091963 55.8411304,147.425668 C58.7582044,148.451595 61.6752784,149.580114 64.4881712,150.913819 C74.0728428,155.325304 83.0324272,161.173086 90.741837,168.25198 C90.9501994,168.457166 91.262743,168.662351 91.4711055,168.867536 C105.118844,151.119004 118.245677,132.857509 130.122336,113.980457 C108.556824,119.212684 86.7829509,123.111205 64.6965336,125.676022 C62.8212718,131.728989 60.5292851,137.576772 57.8205735,143.321961 Z" id="路径"></path>
                        <path d="M144.082618,52.2196695 C150.333491,52.4248549 156.688545,52.3222622 162.939418,51.8092988 C165.648129,45.3459606 168.148479,38.8826223 170.544647,32.2140987 C173.044996,24.930019 175.441164,17.5433467 177.003882,9.95148908 C176.066251,9.5411184 175.024439,9.13074771 174.086808,8.72037703 C168.044297,6.3607456 161.793425,4.41148485 155.334189,2.97518746 C151.792028,11.5929718 149.708404,20.8263122 147.937323,29.9570599 C147.103873,34.3685448 146.374605,38.8826223 145.645337,43.2941071 C145.12443,46.3718873 144.603524,49.2444821 144.082618,52.2196695 Z" id="路径"></path>
                        <path d="M148.979135,61.5556026 C146.895511,61.5556026 144.916068,61.4530099 142.832444,61.3504172 C141.68645,72.020055 141.478088,82.6896928 142.5199,93.2567379 C148.458229,82.7922855 153.875652,72.1226477 158.876351,61.2478246 C155.542552,61.4530099 152.208753,61.5556026 148.979135,61.5556026 Z" id="路径"></path>
                        <path d="M173.565902,50.4755941 C183.567298,48.7315187 193.360332,45.9615166 202.840823,42.0629951 C207.424796,40.1137343 211.904588,37.9592882 216.176018,35.5996568 C210.758595,30.3674306 204.820266,25.5455751 198.361031,21.3392756 C194.402144,18.6718661 190.234896,16.3122347 185.755104,14.0551959 C183.046392,25.9559457 178.879144,37.5489176 174.29517,48.936704 C173.982627,49.3470747 173.774264,49.9626308 173.565902,50.4755941 Z" id="路径"></path>
                        <path d="M176.274613,59.2985638 C173.982627,59.7089345 171.69064,60.0167125 169.398653,60.3244905 C166.273217,67.6085702 162.835237,74.7900571 159.293075,81.8689514 C156.27182,87.7167337 153.146384,93.4619232 149.916766,99.1045201 C167.210848,94.0774793 184.192386,88.229697 200.86138,81.3559881 C213.571488,76.0211692 225.969052,70.1733869 238.158254,63.7100487 C237.428986,62.4789366 236.699717,61.2478246 235.970449,60.1193052 C232.219925,54.0663376 227.844314,48.1159627 222.739435,42.4733658 C218.259642,45.0381825 213.571488,47.397814 208.779152,49.4496674 C198.361031,53.9637449 187.526184,57.4518957 176.274613,59.2985638 Z" id="路径"></path>
                        <path d="M145.12443,110.081936 C146.999692,118.186757 149.500041,126.086393 152.729659,133.780843 C157.209451,144.142703 162.939418,153.889006 169.815378,162.917161 C170.127922,163.327532 170.544647,163.840495 170.85719,164.250866 C176.274613,155.633082 182.629667,147.528261 189.609809,140.038996 C198.361031,130.703063 208.154065,122.290464 218.88473,115.314162 C229.19867,108.645639 240.241878,103.105634 251.805993,98.7967421 C250.868362,94.795628 249.82655,90.7945138 248.472194,86.8959923 C246.805295,81.8689514 244.721671,76.8419105 242.429684,72.020055 C234.928636,76.0211692 227.427589,79.7145053 219.718179,83.2026561 C195.652319,94.1800719 170.648828,103.105634 145.12443,110.081936 Z" id="路径"></path>
                        <path d="M253.577074,107.92749 C252.118537,108.440453 250.555819,109.056009 249.097282,109.671565 C237.116442,114.698606 225.864871,121.161944 215.550931,128.856395 C205.132809,136.858623 195.860681,146.091963 187.734547,156.351231 C183.984023,161.173086 180.546043,166.200127 177.316425,171.432353 C184.192386,178.716433 191.797614,185.384956 199.819568,191.540517 C207.424796,197.285706 215.342568,202.620525 223.260341,207.852751 C228.156858,202.41534 232.532469,196.567558 236.387173,190.411997 C241.075328,182.922732 245.034214,174.612726 248.159651,165.687164 C250.972543,157.47975 253.056168,148.554188 254.09798,139.115662 C255.243973,128.958987 255.035611,118.391942 253.577074,107.92749 Z" id="路径"></path>
                        <path d="M149.39586,148.24641 C144.603524,139.013069 140.644638,129.266765 137.831745,119.212684 C125.538362,138.602698 111.994805,157.274565 98.0345219,175.433467 C99.9097838,177.485321 101.785046,179.639767 103.556126,181.896806 C107.515012,186.821254 111.265536,192.05348 114.599335,197.490892 C118.037315,203.133488 121.05857,209.083863 123.6631,215.136831 C128.663799,213.905719 133.768678,212.982385 138.873558,212.572014 C141.373907,212.366829 143.874256,212.264236 146.374605,212.264236 C147.833142,212.264236 149.291679,212.264236 150.646035,212.366829 C151.687847,207.750159 152.938021,203.236081 154.396558,198.722004 C157.417814,189.693849 161.272519,180.973472 165.856492,172.663465 C159.501438,165.071608 153.979834,156.966787 149.39586,148.24641 Z" id="路径"></path>
                        <path d="M148.874954,221.497577 C148.041504,221.497577 147.312236,221.497577 146.478786,221.497577 C142.832444,221.497577 139.290282,221.702762 135.64394,222.215725 C132.726866,222.626096 129.913973,223.139059 127.10108,223.857208 C127.93453,226.011654 128.663799,228.1661 129.393067,230.320546 C131.580873,236.98907 133.351953,243.862779 134.914672,250.736488 C139.394464,250.42871 143.978437,249.915746 148.666592,249.197598 C148.354048,247.966486 148.145686,246.837966 147.937323,245.606854 C147.208055,240.374628 147.208055,235.142402 147.728961,229.807583 C147.937323,226.934988 148.354048,224.267579 148.874954,221.497577 Z" id="路径"></path>
                        <path d="M200.548836,203.543859 C190.651621,196.362372 181.066949,188.770515 172.52409,179.947545 C170.753009,183.333103 169.08611,186.821254 167.523391,190.309405 C164.397955,197.79867 161.897606,205.49312 160.022344,213.392756 C165.335586,214.31609 170.440465,215.85498 175.441164,217.701648 C181.483674,220.061279 187.422003,222.831281 193.047789,226.216839 C194.818869,227.242766 196.58995,228.371286 198.361031,229.499805 C198.465212,229.397212 198.673574,229.29462 198.777755,229.192027 C205.236991,224.883135 211.279501,220.061279 216.801105,214.623868 C216.592743,214.418682 216.280199,214.31609 216.071837,214.110904 C210.758595,210.827939 205.549534,207.237195 200.548836,203.543859 Z" id="路径"></path>
                        <path d="M158.147082,222.420911 C157.834538,224.164986 157.521995,225.806469 157.313632,227.550544 C156.688545,232.885363 156.376001,238.220182 157.001089,243.555001 C157.209451,244.786113 157.417814,246.017225 157.730357,247.248337 C168.669385,244.580928 179.40005,240.477221 189.401446,234.937216 C184.713292,232.167214 179.920956,229.602398 174.920258,227.447951 C169.502834,225.293505 163.877049,223.54943 158.147082,222.420911 Z" id="路径"></path>
                        <path d="M72.0933998,193.59237 C72.0933998,193.59237 71.9892185,193.694963 71.9892185,193.694963 C71.7808561,194.002741 71.5724937,194.207926 71.3641313,194.515704 C71.6766749,194.207926 71.8850373,193.900148 72.0933998,193.59237 Z" id="路径"></path>
                        <path d="M84.4909642,177.690506 C84.907689,177.177543 85.2202327,176.767172 85.6369575,176.254209 C83.2407896,173.99717 80.7404405,171.842724 78.0317289,169.79087 C71.6766749,165.071608 64.904896,161.173086 57.6122111,157.992713 C55.5285868,157.171972 53.4449625,156.351231 51.2571571,155.633082 C47.4024522,162.301605 43.2352036,168.764944 38.6512302,175.023097 C33.4421695,182.307176 27.816384,189.283478 22.1905985,196.25978 C23.5449543,198.20904 25.1076725,200.260894 26.7745719,202.41534 C32.191995,209.289049 38.3386866,215.649794 45.1104655,221.292391 C45.6313715,221.702762 46.0480964,222.113133 46.5690024,222.523503 C55.8411304,213.700534 64.0714463,203.749044 71.8850373,193.694963 C76.2606483,188.360144 80.3237156,183.025325 84.4909642,177.690506 Z" id="路径"></path>
                        <path d="M114.599335,217.80424 C110.015361,207.647566 104.285395,198.003855 97.4094346,189.180885 C95.7425352,187.026439 93.9714546,184.974586 92.0961928,182.922732 C91.1585618,184.051252 90.3251121,185.179771 89.3874812,186.30829 C79.5944471,198.824596 70.1139567,211.64868 59.0707481,223.139059 C57.4038486,224.780542 55.8411304,226.524617 54.174231,228.063508 C58.549842,231.141288 63.2379966,233.91129 67.9261512,236.373514 C70.9474064,237.912404 74.0728428,239.451294 77.1982792,240.784999 C77.3024604,240.682406 77.4066416,240.682406 77.4066416,240.579813 C80.4278968,237.809811 83.6575145,235.142402 86.8871321,232.680178 C91.3669243,229.192027 96.0550789,226.114247 101.159958,223.446837 C105.639751,221.394984 110.015361,219.445723 114.599335,217.80424 Z" id="路径"></path>
                        <path d="M113.036617,228.268693 C106.160657,231.24388 99.7014213,234.834624 93.658911,239.348701 C91.4711055,240.990184 89.2833,242.734259 87.1996757,244.580928 C89.2833,245.299076 91.3669243,245.914632 93.4505485,246.427596 C102.097589,248.787227 111.265536,250.223524 120.850208,250.736488 C122.308745,250.83908 123.767282,250.83908 125.33,250.83908 C123.350557,242.529074 121.05857,234.32166 118.141496,226.319432 C116.370416,226.934988 114.703516,227.653137 113.036617,228.268693 Z" id="路径"></path>
                        <path d="M37.088512,119.007498 C40.9432169,118.69972 44.7979218,118.391942 48.5484455,118.084164 C51.4655195,117.878979 54.3825935,117.571201 57.1954862,117.263423 C57.7163923,115.108977 58.1331171,112.851938 58.4456608,110.697492 C59.1749293,104.439339 59.2791105,98.2837788 58.4456608,92.0256258 C58.2372984,90.8971065 58.1331171,89.7685871 57.8205735,88.6400677 C51.4655195,91.7178478 44.7979218,94.1800719 38.0261429,96.2319253 C26.4620282,99.6174835 14.3770075,101.566744 2.39616791,101.566744 C1.04181214,108.235268 0.208362427,115.006384 0,121.7775 C8.64704072,121.572315 17.2940814,120.854166 25.836941,120.033425 C29.6916459,119.623054 33.4421695,119.315276 37.088512,119.007498 Z" id="路径"></path>
                        <path d="M33.5463508,142.193442 C38.0261429,142.808998 42.4017539,143.527147 46.7773649,144.655666 C48.4442643,141.475293 49.9028013,138.29492 51.3613383,135.011955 C52.5073316,132.241953 53.5491437,129.471951 54.5909559,126.701949 C53.2366001,126.804541 51.8822443,127.009727 50.4237073,127.112319 C43.6519285,127.727875 36.8801496,128.240839 30.1083707,128.856395 C23.3365918,129.471951 16.5648129,130.190099 9.68885286,130.60047 C6.56341645,130.805655 3.43798005,130.908248 0.208362427,131.010841 C0.416724854,135.011955 0.729268495,139.115662 1.35435578,143.116776 C1.5627182,143.116776 1.77108063,143.014183 1.87526184,143.014183 C8.12613465,141.988257 14.3770075,141.372701 20.7320615,141.372701 C25.0034912,141.372701 29.274921,141.680479 33.5463508,142.193442 Z" id="路径"></path>
                        <path d="M41.985029,153.068265 C39.1721363,152.452709 36.2550623,151.837153 33.3379883,151.426782 C29.0665586,150.913819 24.6909476,150.606041 20.4195179,150.606041 C16.0439069,150.606041 11.6682959,150.913819 7.29268495,151.426782 C5.83414796,151.631968 4.37561097,151.837153 2.91707398,152.144931 C3.02125519,152.452709 3.02125519,152.86308 3.12543641,153.170858 C5.00069825,161.788642 8.12613465,170.509019 12.2933832,179.331989 C13.647739,182.204584 15.2104572,185.077178 16.8773566,188.052366 C18.8567996,185.692734 20.7320615,183.23051 22.6073233,180.870879 C29.6916459,171.945317 36.2550623,162.711976 41.985029,153.068265 Z" id="路径"></path>
                        <path d="M79.0735411,32.419284 C84.6993266,36.5229909 90.741837,39.908549 97.2010722,42.5759584 C98.1387031,42.9863291 98.9721528,43.2941071 99.9097838,43.6018852 C99.9097838,43.4992925 100.013965,43.4992925 100.013965,43.3966998 C106.160657,35.4970641 111.473898,26.9818725 115.536966,17.7485321 C117.933134,12.0033425 119.808396,6.15556026 120.746026,0 C120.537664,0 120.329302,0 120.120939,0 C110.640449,0.615556026 101.26414,2.15444609 92.4087364,4.71926286 C83.8658769,7.18148697 75.4271986,10.5670451 67.1968827,14.97853 C66.363433,15.3889006 65.5299833,15.901864 64.6965336,16.3122347 C65.8425269,18.2614954 67.0927015,20.2107562 68.5512385,22.0574243 C71.5724937,26.0585384 75.1146549,29.4440966 79.0735411,32.419284 Z" id="路径"></path>
                        <path d="M51.4655195,53.3481889 C54.5909559,57.1441177 57.4038486,61.1452319 59.6958353,65.4541241 C61.2585536,68.5319042 62.7170905,71.712277 63.9672651,74.8926498 C68.5512385,72.2252403 73.0310307,69.2500529 77.3024604,66.0696801 C83.1366084,61.5556026 88.5540315,56.425969 93.5547297,50.9885575 C92.8254612,50.6807794 92.0961928,50.3730014 91.4711055,50.0652234 C82.7198835,46.2692946 74.4895677,41.2422537 67.5094264,34.6763228 C64.0714463,31.3933573 60.9460099,27.8026138 58.3414796,23.8014997 C57.8205735,22.9807583 57.2996674,22.1600169 56.7787614,21.2366829 C52.715694,24.006685 48.6526267,26.9818725 44.6937406,30.3674306 C42.0892103,32.5218767 39.5888611,34.8815081 36.9843308,37.4463249 C42.2975727,42.3707731 46.9857273,47.8081847 51.4655195,53.3481889 Z" id="路径"></path>
                        <path d="M48.1317206,82.8948781 C50.6320698,81.8689514 53.1324189,80.6378394 55.632768,79.4067273 C55.111862,77.8678372 54.5909559,76.3289472 53.9658686,74.7900571 C51.6738819,69.6604236 48.8609891,64.838568 45.4230091,60.3244905 C40.9432169,54.6818936 36.1508811,49.1418894 30.733458,44.3200338 C29.274921,45.9615166 27.816384,47.8081847 26.2536658,49.8600381 C20.8362427,56.8363397 16.1480881,64.53079 12.189202,72.7382037 C9.16794679,78.9963566 6.77177888,85.5622876 4.89651704,92.2308112 C8.95958436,92.1282185 13.0226517,91.8204405 16.9815378,91.3074771 C27.6080216,89.8711797 38.1303241,86.998585 48.1317206,82.8948781 Z" id="路径"></path>
                    </g>
                </g>
            </g>
        </g>
    </g>
</svg>