<?xml version="1.0" encoding="utf-8"?>
<!-- Generator: Adobe Illustrator 23.0.1, SVG Export Plug-In . SVG Version: 6.00 Build 0)  -->
<svg version="1.1" id="Layer_1" xmlns="http://www.w3.org/2000/svg" xmlns:xlink="http://www.w3.org/1999/xlink" x="0px" y="0px"
	 viewBox="0 0 220 220" style="enable-background:new 0 0 220 220;" xml:space="preserve">
<style type="text/css">
	.st0{fill:#FFFFFF;stroke:#000000;stroke-width:1.5;stroke-linecap:round;stroke-linejoin:round;stroke-miterlimit:10;}
	.st1{fill:none;stroke:#000000;stroke-width:1.5073;stroke-linecap:round;stroke-linejoin:round;stroke-miterlimit:10;}
	.st2{clip-path:url(#SVGID_2_);}
	.st3{fill:#BCBEC0;}
	.st4{clip-path:url(#SVGID_2_);fill:#BCBEC0;}
	.st5{fill:#FFFFFF;stroke:#000000;stroke-width:1.2202;stroke-linecap:round;stroke-linejoin:round;stroke-miterlimit:10;}
	.st6{fill:#336A43;stroke:#000000;stroke-width:1.2202;stroke-linecap:round;stroke-linejoin:round;stroke-miterlimit:10;}
	.st7{fill:#EE468D;}
	.st8{fill:#E02169;}
	.st9{fill:#BCBEC0;stroke:#000000;stroke-width:1.5073;stroke-linecap:round;stroke-linejoin:round;stroke-miterlimit:10;}
	.st10{fill:#FFFFFF;stroke:#000000;stroke-width:1.3;stroke-linecap:round;stroke-linejoin:round;stroke-miterlimit:10;}
	.st11{fill:#336A43;stroke:#000000;stroke-width:1.3;stroke-linecap:round;stroke-linejoin:round;stroke-miterlimit:10;}
</style>
<g>
	<g>
		<g>
			<g>
				<path class="st0" d="M90.02,87.22L8.05,134.54l121.92,70.85l81.97-47.32L90.02,87.22z"/>
				<g>
					<polygon class="st0" points="8.05,134.54 8.07,140.15 129.98,211 129.97,205.39 					"/>
				</g>
				<g>
					<polygon class="st0" points="129.97,205.39 129.98,211 211.95,163.68 211.93,158.07 					"/>
				</g>
			</g>
		</g>
		<path class="st1" d="M90.02,87.22L8.05,134.54l121.92,70.85l81.97-47.32L90.02,87.22z"/>
		<g>
			<defs>
				<polygon id="SVGID_1_" points="18.19,132.74 135.45,201.65 201.06,157.37 81.48,88.69 				"/>
			</defs>
			<clipPath id="SVGID_2_">
				<use xlink:href="#SVGID_1_"  style="overflow:visible;"/>
			</clipPath>
			<g class="st2">
				<polygon class="st3" points="105.87,99.14 41.95,134.46 29.69,141.24 33.42,143.5 45.68,136.73 109.6,101.4 				"/>
				<polygon class="st3" points="96.71,93.07 45.05,121.62 20.54,135.17 24.27,137.43 48.78,123.88 100.44,95.33 				"/>
				<polygon class="st3" points="101.02,96.52 49.36,125.07 26,137.98 26.16,139.62 50.67,126.07 102.34,97.51 				"/>
				<polygon class="st3" points="121.42,108.22 57.5,143.55 45.24,150.32 48.97,152.58 61.22,145.81 125.14,110.48 				"/>
				<polygon class="st3" points="112.26,102.15 60.6,130.71 36.08,144.26 39.81,146.52 64.33,132.97 115.99,104.41 				"/>
				<polygon class="st3" points="116.57,105.6 64.9,134.15 41.54,147.06 41.71,148.7 66.22,135.15 117.88,106.6 				"/>
			</g>
			<polygon class="st4" points="137.26,118 73.34,153.33 61.08,160.11 64.81,162.37 77.07,155.59 140.99,120.26 			"/>
			<polygon class="st4" points="128.1,111.94 76.44,140.49 51.93,154.04 55.66,156.3 80.17,142.75 131.83,114.2 			"/>
			<polygon class="st4" points="132.41,115.38 80.75,143.94 57.39,156.85 57.55,158.48 82.06,144.93 133.73,116.38 			"/>
			<polygon class="st4" points="152.81,127.09 88.89,162.42 76.63,169.19 80.36,171.45 92.62,164.68 156.54,129.35 			"/>
			<polygon class="st4" points="143.65,121.02 91.99,149.57 67.47,163.12 71.2,165.38 95.72,151.83 147.38,123.28 			"/>
			<polygon class="st4" points="147.96,124.47 96.29,153.02 72.93,165.93 73.1,167.57 97.61,154.02 149.27,125.47 			"/>
			<polygon class="st4" points="158.57,130.56 106.91,159.11 83.55,172.02 83.71,173.66 108.22,160.11 159.89,131.56 			"/>
			<polygon class="st4" points="162.2,131.84 110.53,160.4 87.17,173.31 87.34,174.94 111.85,161.39 163.51,132.84 			"/>
			<g class="st2">
				<polygon class="st3" points="174.36,140.11 110.44,175.44 98.18,182.21 101.91,184.47 114.17,177.7 178.09,142.37 				"/>
				<polygon class="st3" points="165.2,134.04 113.54,162.59 89.03,176.14 92.75,178.4 117.27,164.85 168.93,136.3 				"/>
				<polygon class="st3" points="169.51,137.49 117.84,166.04 94.48,178.95 94.65,180.59 119.16,167.04 170.83,138.48 				"/>
				<polygon class="st3" points="189.9,149.19 125.98,184.52 113.73,191.29 117.46,193.56 129.71,186.78 193.63,151.45 				"/>
				<polygon class="st3" points="180.75,143.12 129.09,171.68 104.57,185.23 108.3,187.49 132.81,173.94 184.48,145.38 				"/>
				<polygon class="st3" points="185.05,146.57 133.39,175.12 110.03,188.03 110.2,189.67 134.71,176.12 186.37,147.57 				"/>
				<polygon class="st3" points="195.27,153.19 143.61,181.74 119.1,195.29 122.82,197.55 147.34,184 199,155.45 				"/>
			</g>
		</g>
	</g>
	<g>
		<g>
			<path class="st5" d="M81.28,83.46c0.75,0,1.35-0.6,1.35-1.35V76.1c0-1.59,1.85-5.75,3.34-9.08c2.91-6.51,3.83-8.91,2.73-10.3
				c-0.85-1.08-2.42-0.99-4.09,0.23c-1.23,0.89-0.76,1.81-0.58,2.07c0.12,0.18,0.8,1.06,2.07,0.28c0.05-0.03,0.1-0.07,0.15-0.1
				c-0.49,1.67-1.8,4.61-2.75,6.72c-1.84,4.12-3.58,8.01-3.58,10.18v6.01C79.93,82.86,80.53,83.46,81.28,83.46z"/>
		</g>
		<path class="st6" d="M35.98,107.1l7.25,33.15l44.4-25.69c1.75-1.01,4.61-1.01,6.36,0l29.38,18.03l5.67-26.02l0.22-10.87l0.23-1.2
			c-0.04-0.05-0.11-0.11-0.2-0.19v-0.03l-0.01,0.02c-0.07-0.06-0.15-0.12-0.27-0.19L95.16,74.58c-0.7-0.4-1.71-0.63-2.78-0.63
			c-1.07,0-2.08,0.23-2.78,0.63l-52.2,30.14c-0.28,0.17-0.42,0.31-0.5,0.39C36.95,105.18,35.67,106.93,35.98,107.1z M125.84,109.72
			l-1.67,7.78l-8.52-4.79l1.09-6.48c0.17-1.05,0.84-1.74,1.79-2.01c0.96-0.29,2.22-0.11,3.5,0.58
			C124.07,105.91,125.55,107.9,125.84,109.72z M114.23,121.18l0.92-5.49l8.28,4.75l-1.36,5.36c-0.2,0.77-0.81,1.2-1.64,1.27
			c-0.81,0.06-1.84-0.2-2.9-0.84C115.44,124.99,113.96,122.76,114.23,121.18z M111.66,110.46l-7.97-4.49l0.37-6.63
			c0.05-1.08,0.58-1.82,1.39-2.12c0.82-0.33,1.93-0.21,3.14,0.42c2.42,1.3,4.19,4.15,3.91,6.29L111.66,110.46z M103.2,114.69
			l0.31-5.66l7.76,4.44l-0.71,5.55c-0.11,0.8-0.61,1.27-1.34,1.37c-0.71,0.12-1.65-0.12-2.64-0.71
			C104.62,118.52,103.11,116.31,103.2,114.69z M92.6,102.79l7.27,4.16l-0.14,5.7c-0.01,0.82-0.42,1.33-1.05,1.48
			c-0.63,0.15-1.49-0.04-2.42-0.6c-1.86-1.11-3.39-3.3-3.46-4.96L92.6,102.79z M92.23,92.9c-0.04-1.1,0.36-1.87,1.06-2.21
			c0.69-0.37,1.68-0.31,2.81,0.3c2.25,1.19,4.06,4.02,4.01,6.2l-0.16,6.67l-7.46-4.21L92.23,92.9z M82,106.32l6.59-3.81l0.21,5.8
			c0.03,0.88-0.3,1.86-0.85,2.75c-0.54,0.88-1.31,1.68-2.19,2.2c-1.75,1.04-3.27,0.52-3.37-1.18L82,106.32z M81.4,97.07
			c-0.06-0.98,0.27-2.09,0.87-3.1c0.58-1.02,1.44-1.92,2.4-2.45c1.91-1.08,3.52-0.31,3.58,1.67l0.22,6.29l-6.67,3.83L81.4,97.07z
			 M72.66,111.71l6.74-3.89l0.43,5.74c0.06,0.86-0.23,1.84-0.78,2.73c-0.54,0.89-1.31,1.69-2.21,2.23
			c-1.79,1.05-3.39,0.57-3.57-1.12L72.66,111.71z M72.44,99.49c0.59-1.03,1.45-1.94,2.43-2.49c1.97-1.1,3.68-0.37,3.83,1.59
			l0.47,6.22l-6.84,3.92l-0.67-6.16C71.56,101.59,71.87,100.48,72.44,99.49z M63.08,117.24l6.91-4l0.69,5.68
			c0.09,0.85-0.18,1.82-0.71,2.71c-0.54,0.89-1.32,1.71-2.23,2.25c-1.84,1.08-3.53,0.64-3.8-1.03L63.08,117.24z M62.4,105.13
			c0.56-1.03,1.42-1.94,2.44-2.51c2.01-1.13,3.83-0.43,4.06,1.5l0.74,6.15l-7.01,4.02l-0.94-6.1
			C61.54,107.25,61.81,106.14,62.4,105.13z M53.28,122.91l7.07-4.09l0.94,5.59c0.15,0.83-0.11,1.81-0.63,2.7
			c-0.53,0.89-1.31,1.71-2.25,2.26c-1.88,1.11-3.68,0.72-4.01-0.93L53.28,122.91z M52.68,120l-1.23-6.01
			c-0.19-0.94,0.05-2.04,0.61-3.06c0.55-1.01,1.43-1.94,2.46-2.53c2.07-1.16,4-0.51,4.31,1.41l1.03,6.08L52.68,120z M43.23,128.71
			l7.25-4.2l1.21,5.52c0.18,0.82-0.05,1.78-0.57,2.67c-0.5,0.89-1.29,1.72-2.26,2.3c-1.91,1.13-3.82,0.77-4.23-0.85L43.23,128.71z
			 M41.45,116.89c0.55-1.03,1.42-1.96,2.48-2.56c2.13-1.2,4.19-0.59,4.6,1.3l1.31,5.99l-7.36,4.22l-1.53-5.92
			C40.71,118.99,40.93,117.89,41.45,116.89z"/>
		<path class="st7" d="M103.2,114.69c-0.09,1.62,1.42,3.83,3.37,5c0.99,0.59,1.94,0.82,2.64,0.71c0.7-0.11,1.2-0.53,1.32-1.28
			c-0.23,0.3-0.58,0.47-1,0.54c-0.72,0.12-1.67-0.12-2.67-0.71c-1.98-1.17-3.5-3.38-3.4-5l0.27-4.8l-0.21-0.12L103.2,114.69z"/>
		<path class="st7" d="M54.36,128.19l0.05,0.24c0.33,1.65,2.13,2.04,4.01,0.93c0.94-0.55,1.72-1.38,2.25-2.26
			c0.52-0.89,0.77-1.86,0.63-2.7l-0.94-5.59l-0.03,0.02l0.81,4.83c0.16,0.84-0.11,1.81-0.62,2.7c-0.54,0.89-1.32,1.71-2.27,2.26
			C56.55,129.61,54.92,129.41,54.36,128.19z"/>
		<path class="st7" d="M44.61,134.07l0.02,0.08c0.41,1.62,2.32,1.98,4.23,0.85c0.97-0.57,1.77-1.41,2.26-2.3
			c0.52-0.89,0.75-1.85,0.57-2.67l-1.21-5.52l-0.08,0.05l1.06,4.73c0.18,0.83-0.05,1.79-0.58,2.68c-0.5,0.89-1.3,1.72-2.28,2.29
			C46.95,135.21,45.33,135.11,44.61,134.07z"/>
		<path class="st5" d="M44.34,143.23l28.06,16.19c1.77,1.02,4.61,1.02,6.36,0l43.3-24.99c1.75-1.01,1.62-2.75,0-3.68l-27.59-15.92
			l-17.68,10.2c-0.7,0.4-1.71,0.64-2.78,0.64c-1.07,0-2.08-0.23-2.78-0.64l-0.88-0.51l-26.02,15.02
			C42.74,140.41,42.66,142.01,44.34,143.23z"/>
		<path class="st8" d="M70.36,124.53l0.88,0.51c0.7,0.4,1.71,0.64,2.78,0.64c1.07,0,2.08-0.23,2.78-0.64l17.68-10.2l-0.48-0.27
			c-1.75-1.01-4.61-1.01-6.36,0L70.36,124.53z"/>
		<path class="st5" d="M70.36,124.53l0.88,0.51c0.7,0.4,1.71,0.64,2.78,0.64c1.07,0,2.08-0.23,2.78-0.64l17.68-10.2l-0.48-0.27
			c-1.75-1.01-4.61-1.01-6.36,0L70.36,124.53z"/>
		<path class="st6" d="M36.34,116.59l0.42,1.57l6.27,23.21c0.23,0.68,0.45,1.37,1.31,1.87l28.06,16.19c1.77,1.02,4.61,1.02,6.36,0
			l43.3-24.99c0.88-0.51,1.16-1.16,1.31-1.84l6.3-25.06l0.39-1.54l-52.21,30.14c-2.11,1.23-5.56,1.23-7.68,0L36.34,116.59z
			 M125.58,119.26l-7.39,4.37l1.48-6.91c0.23-1.1,0.88-2.36,1.74-3.51c0.52-0.71,1.12-1.36,1.75-1.92c0.41-0.37,0.85-0.69,1.27-0.94
			c0.5-0.3,0.94-0.47,1.33-0.56c1.31-0.27,1.98,0.63,1.55,2.38L125.58,119.26z M116.16,133.17l1.33-6.24l7.25-4.29l-1.56,6.39
			c-0.23,0.95-0.83,2.02-1.62,2.99c-0.76,0.96-1.7,1.84-2.65,2.39C117.01,135.54,115.77,135,116.16,133.17z M115.33,125.34
			l-7.34,4.34l1.1-6.67c0.18-1.06,0.77-2.28,1.58-3.4c0.78-1.09,1.78-2.07,2.79-2.71l0.32-0.19c2.05-1.14,3.35-0.35,2.92,1.78
			L115.33,125.34z M106.47,138.89l0.99-6.02l7.21-4.27l-1.24,6.17c-0.18,0.91-0.73,1.96-1.47,2.91c-0.73,0.93-1.65,1.79-2.61,2.35
			C107.47,141.14,106.17,140.65,106.47,138.89z M105.15,131.37l-7.28,4.31l0.74-6.44c0.12-1.01,0.65-2.21,1.43-3.3
			c0.76-1.11,1.78-2.11,2.85-2.75c2.11-1.27,3.57-0.55,3.26,1.56L105.15,131.37z M96.84,144.57l0.67-5.81l7.16-4.24l-0.9,5.96
			c-0.14,0.88-0.64,1.89-1.33,2.81c-0.71,0.92-1.61,1.77-2.54,2.31C98.01,146.72,96.65,146.27,96.84,144.57z M95.03,137.37
			l-7.23,4.28l0.38-6.2c0.06-0.98,0.54-2.13,1.27-3.2c0.73-1.08,1.72-2.07,2.77-2.7c2.13-1.26,3.66-0.59,3.46,1.44L95.03,137.37z
			 M87.28,150.2l0.34-5.59l7.1-4.2l-0.57,5.74c-0.09,0.84-0.54,1.83-1.21,2.73c-0.67,0.9-1.54,1.72-2.47,2.27
			C88.61,152.25,87.17,151.85,87.28,150.2z M85,143.32l-7.19,4.26l0.03-5.97c0-0.95,0.42-2.06,1.1-3.1c0.7-1.06,1.65-2.02,2.7-2.64
			c2.09-1.25,3.72-0.65,3.64,1.31L85,143.32z M77.78,155.8l0.02-5.38l7.06-4.18l-0.25,5.53c-0.03,0.83-0.44,1.78-1.09,2.67
			c-0.62,0.87-1.47,1.68-2.41,2.23C79.27,157.76,77.78,157.39,77.78,155.8z M64.46,145.89l7.01,3.98l0.23,5.05
			c0.03,0.74-0.3,1.19-0.87,1.33c-0.57,0.14-1.36-0.02-2.27-0.53c-1.83-1.02-3.42-3.04-3.58-4.58L64.46,145.89z M63.58,137.06
			c-0.09-0.96,0.25-1.59,0.89-1.82c0.63-0.24,1.58-0.07,2.63,0.54c2.11,1.25,3.88,3.78,3.96,5.64l0.27,5.75l-7.17-4.1L63.58,137.06z
			 M53.75,139.8l7.25,4.12l0.67,5.38c0.09,0.79-0.19,1.28-0.75,1.43c-0.54,0.17-1.34,0.01-2.28-0.52c-1.88-1.04-3.64-3.18-3.91-4.81
			L53.75,139.8z M52.83,128.42c0.55-0.25,1.36-0.15,2.32,0.35l0.04,0.02c0.1,0.05,0.19,0.11,0.29,0.16
			c0.08,0.05,0.18,0.11,0.26,0.16l0.15,0.09c2.03,1.38,3.78,3.86,4.01,5.71l0.75,6.12l-7.41-4.25l-1.11-6.4
			C51.94,129.36,52.23,128.69,52.83,128.42z M42.66,133.49l7.52,4.27l1.12,5.73c0.16,0.83-0.08,1.36-0.6,1.54
			c-0.53,0.18-1.33,0.02-2.3-0.52c-1.95-1.08-3.86-3.32-4.28-5.05L42.66,133.49z M42.27,121.34c0.35,0.1,0.74,0.28,1.15,0.53
			c0.37,0.21,0.74,0.48,1.09,0.76c1.84,1.47,3.42,3.75,3.77,5.53l1.29,6.53l-7.7-4.4l-1.65-6.82c-0.27-1.1-0.05-1.83,0.53-2.11
			C41.12,121.15,41.63,121.14,42.27,121.34z"/>
		<path class="st9" d="M34.74,105.42v9.14h0.03c0.03,0.3,0.12,0.59,0.3,0.87c0.25,0.42,0.68,0.82,1.27,1.16l33.84,19.54
			c2.12,1.23,5.56,1.23,7.68,0l52.21-30.14c0.61-0.36,1.05-0.77,1.3-1.22c0.19-0.33,0.29-0.66,0.29-1c0-0.04-0.02-0.07-0.02-0.12
			h0.02v-9.14c0,0.34-0.09,0.68-0.29,1.01c-0.25,0.44-0.69,0.86-1.3,1.21l-52.21,30.14c-2.11,1.23-5.56,1.23-7.68,0l-33.84-19.53
			c-0.59-0.34-1.02-0.74-1.27-1.16c-0.16-0.24-0.25-0.5-0.3-0.75H34.74z"/>
		<path class="st9" d="M34.75,105.12c0,0.09,0,0.2,0.03,0.3c0.04,0.26,0.14,0.51,0.3,0.76c0.26,0.42,0.68,0.82,1.27,1.16
			l33.84,19.53c2.11,1.23,5.55,1.23,7.67,0l52.21-30.14c0.61-0.37,1.04-0.77,1.3-1.22c0.19-0.32,0.28-0.66,0.28-1
			c0-0.81-0.53-1.61-1.58-2.23L96.21,72.75c-2.11-1.23-5.55-1.23-7.67,0L47.28,96.57l-2.7,1.57l-8.24,4.75
			C35.27,103.51,34.75,104.31,34.75,105.12z M36.89,105.12c0.08-0.09,0.23-0.23,0.5-0.39l7.19-4.15l2.7-1.57l42.31-24.44
			c0.7-0.39,1.72-0.62,2.78-0.62c1.07,0,2.08,0.23,2.78,0.62l33.85,19.55c0.28,0.16,0.42,0.3,0.49,0.39
			c-0.05,0.07-0.19,0.2-0.49,0.39l-34.54,19.93L76.8,125.04c-0.7,0.39-1.72,0.64-2.78,0.64c-1.07,0-2.08-0.24-2.78-0.64l-0.88-0.51
			L37.38,105.5C37.07,105.32,36.95,105.17,36.89,105.12z"/>
		<g>
			<path class="st5" d="M121.09,109.2c0.72,0,1.31-0.56,1.35-1.28c0.15-3.02,0.34-8.27-0.07-9.48c-1.39-4.15-26.7-37.72-26.95-38.04
				c-0.84-1.08-2.41-0.99-4.09,0.23c-1.23,0.89-0.76,1.81-0.58,2.07c0.12,0.18,0.8,1.06,2.07,0.28c0.16-0.1,0.29-0.22,0.39-0.36
				c0.12-0.07,0.25-0.14,0.37-0.19c3.22,4.19,25.15,33.61,26.23,36.86c0.18,0.7,0.11,4.96-0.07,8.49c-0.04,0.75,0.54,1.38,1.28,1.42
				C121.05,109.2,121.07,109.2,121.09,109.2z"/>
		</g>
		<path class="st6" d="M82.6,54.89l0.01,0.02c0.57-0.36,1.42-0.31,2.39,0.25c1.72,1,3.12,3.2,3.12,4.93c0,0.83-0.33,1.38-0.85,1.64
			l0.01,0.01L66.6,73.64l-4.64-6.85L82.6,54.89z"/>
		<path class="st5" d="M61.21,68.38c0,1.72,1.4,3.93,3.12,4.92c1.73,1,3.12,0.4,3.12-1.32c0-1.73-1.4-3.93-3.12-4.93
			C62.61,66.07,61.21,66.66,61.21,68.38z"/>
		<path class="st6" d="M88.84,58.65l0.01,0.02c0.57-0.36,1.42-0.31,2.39,0.25c1.73,1,3.12,3.2,3.12,4.93c0,0.83-0.33,1.38-0.85,1.64
			l0.01,0.01L72.84,77.4l-4.64-6.85L88.84,58.65z"/>
		<path class="st5" d="M67.45,72.14c0,1.73,1.4,3.93,3.12,4.93c1.72,1,3.12,0.4,3.12-1.32c0-1.73-1.4-3.93-3.12-4.93
			C68.85,69.83,67.45,70.42,67.45,72.14z"/>
		<g>
			<path class="st5" d="M84.39,129.98c0.72,0,1.31-0.56,1.35-1.28c0.15-3.02,0.34-8.27-0.07-9.48c-0.63-1.89-4.44-12.41-8.13-22.58
				c-3.32-9.17-7.08-19.56-7.28-20.24c-0.12-0.44-0.15-0.54,0.55-0.97c0.64-0.39,0.83-1.22,0.44-1.86
				c-0.39-0.64-1.22-0.83-1.86-0.44c-0.6,0.37-2.43,1.49-1.73,4c0.17,0.62,2.9,8.16,7.35,20.43c3.68,10.16,7.48,20.66,8.1,22.52
				c0.18,0.7,0.11,4.96-0.07,8.49c-0.03,0.74,0.54,1.38,1.28,1.42C84.35,129.98,84.37,129.98,84.39,129.98z"/>
		</g>
		<g>
			<path class="st5" d="M44.58,96.16v1.97l2.7-1.57v-0.4c0-3.46,10.9-17.37,15.87-23.18c0.8-0.95,1.27-1.3,1.47-1.42
				c0.63-0.39,0.84-1.23,0.45-1.86c-0.39-0.64-1.23-0.84-1.87-0.45c-0.61,0.38-1.3,1.03-2.11,1.97
				C60.43,72.01,44.58,90.6,44.58,96.16z"/>
		</g>
	</g>
	<g>
		<g>
			<polyline class="st10" points="118.84,101.43 131.63,98.61 134.1,104.52 			"/>
			<polygon class="st10" points="156.35,154.85 134.1,158.77 134.1,104.52 156.35,100.6 			"/>
			<polygon class="st10" points="118.36,155.79 134.1,158.77 134.1,104.52 118.36,101.54 			"/>
			<polyline class="st10" points="134.1,104.52 128.4,90.92 128.75,85.59 128.4,90.92 118.36,101.54 131.63,98.61 			"/>
			<polyline class="st10" points="128.75,85.59 147.91,83.31 148.04,88.07 156.35,100.6 134.1,104.52 128.4,90.92 148.04,88.07 			
				"/>
			<g>
				<path class="st11" d="M144.83,95.1c0.28,1.81-0.67,3.46-2.13,3.69c-1.46,0.23-2.87-1.06-3.15-2.87
					c-0.28-1.81,0.67-3.46,2.13-3.69C143.14,92,144.55,93.29,144.83,95.1z"/>
				<path class="st11" d="M146.86,94.4c0.58,1.74-0.08,3.53-1.47,4c-1.4,0.47-3-0.56-3.59-2.29c-0.58-1.74,0.08-3.53,1.47-4
					C144.67,91.64,146.28,92.66,146.86,94.4z"/>
			</g>
		</g>
		<g>
			<g>
				<polygon class="st10" points="121.86,156.49 110.32,162.17 110.32,131.06 121.86,127.55 				"/>
				<polygon class="st10" points="99.54,127.55 110.32,131.1 110.32,162.17 99.54,156.38 				"/>
				<polygon class="st10" points="121.86,127.55 110.32,130.96 99.54,127.55 111.4,124.27 				"/>
				<polygon class="st10" points="99.54,127.55 104.21,135.7 110.32,131.06 				"/>
			</g>
			<path class="st10" d="M107.06,117.95h-5.92v2.37h5.92v7.3c0,0,0.54,0.39,1.24,0.39c0.75,0,1.2-0.39,1.2-0.39v-7.3v-2.37H107.06z"
				/>
			<path class="st10" d="M101.86,119.13c0,0.65-0.33,1.18-0.73,1.18c-0.4,0-0.73-0.53-0.73-1.18c0-0.65,0.33-1.18,0.73-1.18
				C101.54,117.95,101.86,118.48,101.86,119.13z"/>
		</g>
		<g>
			<path class="st10" d="M114.11,148.29c0,0-2.66-19,30.94-15.35c0,0,13.9,2.26,22.78,2.26c0,0.56,0,1.12,0,1.67
				c0,6.57,0,13.15,0,19.72c0,3.33,0,6.67,0,10c0,1.57,0,6.31,0,6.31s-3.36-0.57-7.34,0.29c-0.99,0.21-2.03,0.17-3.04,0.14
				c-6.24-0.24-10.5-5.44-15.6-8.39C132.5,159.56,123.29,153.94,114.11,148.29z"/>
			<path class="st10" d="M132,155.08c-9.42,0-17.13-3.49-17.82-7.92h-0.07v25.25c0,4.73,8.01,8.56,17.89,8.56
				c9.88,0,17.89-3.83,17.89-8.56v-25.25h-0.07C149.13,151.59,141.42,155.08,132,155.08z"/>
			<ellipse class="st10" cx="132" cy="147.49" rx="17.89" ry="8.56"/>
			<ellipse cx="132" cy="147.49" rx="5.97" ry="2.86"/>
		</g>
		<line class="st10" x1="134.1" y1="104.52" x2="118.84" y2="101.43"/>
	</g>
</g>
</svg>
