<?xml version="1.0" encoding="utf-8"?>
<!-- Generator: Adobe Illustrator 23.0.1, SVG Export Plug-In . SVG Version: 6.00 Build 0)  -->
<svg version="1.1" id="Layer_1" xmlns="http://www.w3.org/2000/svg" xmlns:xlink="http://www.w3.org/1999/xlink" x="0px" y="0px"
	 viewBox="0 0 220 220" style="enable-background:new 0 0 220 220;" xml:space="preserve">
<style type="text/css">
	.st0{fill:#FFFFFF;stroke:#000000;stroke-width:1.5;stroke-linecap:round;stroke-linejoin:round;stroke-miterlimit:10;}
	.st1{fill:#BCBEC0;stroke:#000000;stroke-width:1.5;stroke-linecap:round;stroke-linejoin:round;stroke-miterlimit:10;}
	.st2{fill:none;stroke:#000000;stroke-width:1.5;stroke-linecap:round;stroke-linejoin:round;stroke-miterlimit:10;}
	.st3{fill:#BCBEC0;}
	.st4{fill:#2E6840;}
	.st5{fill:#336A43;}
	.st6{fill:#FFFFFF;}
	.st7{fill:none;stroke:#FFFFFF;stroke-miterlimit:10;}
	.st8{fill:none;stroke:#FFFFFF;stroke-miterlimit:10;stroke-dasharray:2.0734,2.0734;}
	.st9{fill:#FFFFFF;stroke:#000000;stroke-width:0.3898;stroke-miterlimit:10;}
	.st10{fill:#191411;stroke:#000000;stroke-width:0.3898;stroke-miterlimit:10;}
	.st11{fill:#FFFFFF;stroke:#000000;stroke-width:0.7267;stroke-miterlimit:10;}
	.st12{fill:#2E6840;stroke:#000000;stroke-width:1.398;stroke-linecap:round;stroke-linejoin:round;stroke-miterlimit:10;}
	.st13{fill:#2E6840;stroke:#000000;stroke-width:0.7267;stroke-miterlimit:10;}
	.st14{fill:#191411;stroke:#000000;stroke-width:0.7267;stroke-miterlimit:10;}
	.st15{fill:#FFFFFF;stroke:#000000;stroke-width:0.699;stroke-linecap:round;stroke-linejoin:round;stroke-miterlimit:10;}
	.st16{fill:#FFFFFF;stroke:#000000;stroke-width:1.398;stroke-linecap:round;stroke-linejoin:round;stroke-miterlimit:10;}
	.st17{fill:#BCBEC0;stroke:#BCBEC0;stroke-width:0.699;stroke-linecap:round;stroke-linejoin:round;stroke-miterlimit:10;}
</style>
<g>
	<g>
		<g>
			<g>
				<path class="st0" d="M90.02,87.22L8.05,134.54l121.92,70.85l81.97-47.32L90.02,87.22z"/>
				<g>
					<polygon class="st1" points="8.05,134.54 8.07,140.15 129.98,211 129.97,205.39 					"/>
				</g>
				<g>
					<polygon class="st1" points="129.97,205.39 129.98,211 211.95,163.68 211.93,158.07 					"/>
				</g>
				<path class="st2" d="M90.02,87.22L8.05,134.54l121.92,70.85l81.97-47.32L90.02,87.22z"/>
			</g>
			<path class="st2" d="M90.02,87.22L8.05,134.54l121.92,70.85l81.97-47.32L90.02,87.22z"/>
		</g>
		<polygon class="st3" points="95.83,107.14 111,116.13 118.65,111.8 103.47,102.81 		"/>
		<polygon class="st4" points="86.78,93.17 79.13,97.5 94.31,106.49 101.95,102.16 		"/>
		<polygon class="st3" points="113.12,117.12 128.3,126.11 135.94,121.78 120.77,112.79 		"/>
		<polygon class="st5" points="79.81,97.23 62.93,106.79 178.21,172.09 195.1,162.52 		"/>
		<g>
			<polygon class="st6" points="111.52,120.68 108.97,122.03 79.65,104.6 82.21,103.25 			"/>
		</g>
		<g>
			<polygon class="st6" points="86.2,110.88 83.65,112.22 74.96,107.06 77.51,105.71 			"/>
		</g>
		<g>
			<polygon class="st6" points="91.36,113.95 88.81,115.3 84.7,112.85 87.25,111.51 			"/>
		</g>
		<path class="st3" d="M168.19,171.02l-7.24-4.17c-0.22-0.12-0.45-0.23-0.69-0.33L71.6,116.13l-7.24-4.17
			c-2.36-1.36-5.92-1.5-7.96-0.32l-9.22,5.33c-2.04,1.18-1.78,3.24,0.58,4.6l7.24,4.17l96.6,54.89c2.36,1.36,5.92,1.5,7.96,0.32
			l9.21-5.33C170.81,174.44,170.55,172.38,168.19,171.02z"/>
		<path class="st3" d="M147.06,183.63l-7.24-4.17c-0.22-0.12-0.45-0.23-0.69-0.33l-88.67-50.39l-7.24-4.17
			c-2.36-1.36-5.92-1.5-7.96-0.32l-9.22,5.33c-2.04,1.18-1.78,3.24,0.58,4.6l7.24,4.17l96.6,54.89c2.36,1.36,5.92,1.5,7.96,0.32
			l9.21-5.33C149.68,187.05,149.42,184.99,147.06,183.63z"/>
		<g>
			<g>
				<path class="st7" d="M143.92,154.43c-0.16,0.15-0.42,0.37-0.77,0.64"/>
				<path class="st8" d="M141.48,156.29c-7.83,5.52-30.96,20.08-37.47,24.17"/>
				<path class="st7" d="M103.14,181.01c-0.55,0.34-0.84,0.53-0.84,0.53"/>
			</g>
		</g>
		<path class="st6" d="M142.81,169.23l9.61,5.79c0.91,0.55,2.04,0.56,2.96,0.04l0,0c1.96-1.11,1.99-3.91,0.07-5.07l-9.61-5.79
			c-0.91-0.55-2.04-0.56-2.96-0.04v0C140.93,165.26,140.89,168.07,142.81,169.23z"/>
		<path class="st6" d="M121.36,181.16l9.61,5.79c0.91,0.55,2.04,0.56,2.96,0.04l0,0c1.96-1.11,1.99-3.91,0.07-5.07l-9.61-5.79
			c-0.91-0.55-2.04-0.56-2.96-0.04h0C119.48,177.19,119.44,180,121.36,181.16z"/>
		<polygon class="st6" points="146.14,137.14 142.9,136.67 143.44,139.13 		"/>
		<polygon class="st6" points="159.05,144.55 159.66,147.31 156.27,146.69 		"/>
		<g>
			<polygon class="st6" points="156.52,144.3 155.61,145.07 146.93,139.9 147.84,139.13 			"/>
		</g>
		<polygon class="st6" points="171.28,152.98 168.07,152.35 168.51,155.06 		"/>
		<polygon class="st6" points="183.29,160.1 183.71,162.61 180.68,161.9 		"/>
		<g>
			<polygon class="st6" points="180.87,159.5 179.97,160.27 171.28,155.11 172.19,154.34 			"/>
		</g>
	</g>
	<g id="XMLID_663_">
		<g id="XMLID_695_">
			<path id="XMLID_711_" class="st9" d="M91.71,104.86l-12-6.93c-1.65-0.95-2.99-3.51-2.99-5.71V65.71c0-2.2,1.34-3.21,2.99-2.26
				l12,6.93c1.65,0.95,2.99,3.51,2.99,5.71v26.52C94.7,104.8,93.36,105.82,91.71,104.86z"/>
			<path id="XMLID_710_" class="st9" d="M100.51,65.21l-12-6.93c-0.72-0.42-1.39-0.46-1.91-0.18l-8.56,5.23
				c0.49-0.19,1.09-0.12,1.74,0.26l12,6.93c1.65,0.95,2.99,3.51,2.99,5.71v26.52c0,1.02,3.82-6.65,3.35-6.21l0.57,2.17l2.02-2.8
				c0.67-0.35,2.79,1.56,2.79,0.31V70.93C103.5,68.72,102.16,66.17,100.51,65.21z"/>
		</g>
		<g id="XMLID_672_">
			<path id="XMLID_679_" class="st10" d="M90.87,81.21l-9.96-5.75c-0.55-0.31-1.08-0.35-1.52-0.1c-0.51,0.29-0.8,0.94-0.8,1.77
				v12.81c0,1.49,0.88,3.16,2.01,3.81l9.96,5.75c0.3,0.18,0.61,0.26,0.89,0.26c0.22,0,0.44-0.06,0.63-0.17
				c0.51-0.29,0.8-0.94,0.8-1.77V85.02C92.88,83.53,91.99,81.86,90.87,81.21z M91.77,99.06c-0.31,0.18-0.66,0.04-0.9-0.1l-9.96-5.75
				c-0.92-0.53-1.7-2.03-1.7-3.27V79.35l13.05,7.54v10.95C92.26,98.43,92.08,98.88,91.77,99.06z M92.26,86.17l-13.05-7.54v-1.5
				c0-0.6,0.18-1.05,0.49-1.23c0.1-0.06,0.21-0.08,0.32-0.08c0.21,0,0.42,0.09,0.58,0.18l9.96,5.75c0.92,0.53,1.7,2.03,1.7,3.27
				V86.17z"/>
			<path id="XMLID_673_" class="st10" d="M100.66,64.71l-0.5-0.29V55.6c0-1.96-1.19-4.18-2.7-5.06l-3.31-1.91
				c-0.87-0.5-1.76-0.54-2.51-0.11c-0.82,0.47-1.3,1.46-1.3,2.69v7.54l-1.68-0.97c-0.82-0.47-1.64-0.54-2.33-0.18l-8.56,5.23
				l0.01,0.01c-0.08,0.03-0.16,0.05-0.23,0.09c-0.79,0.46-1.24,1.47-1.24,2.78v26.52c0,2.37,1.4,5.03,3.2,6.07l12,6.93
				c0.48,0.28,0.95,0.41,1.4,0.41c0.35,0,0.68-0.09,0.97-0.26c0.13-0.07,0.24-0.19,0.35-0.29l0.03,0.02l8.29-4.99
				c0.84-0.43,1.32-1.46,1.32-2.82V70.78C103.86,68.41,102.46,65.75,100.66,64.71z M95.07,75.29c-0.06-0.51-0.19-1.02-0.36-1.52
				l8.05-4.73c0.16,0.55,0.26,1.11,0.27,1.66L95.07,75.29z M97.95,63.14l-5.39-3.11v-8.82c0-0.54,0.15-0.75,0.19-0.77
				c0.07,0,0.18,0.04,0.3,0.11l3.3,1.91c0.85,0.49,1.59,1.96,1.59,3.14V63.14z M86.75,58.32c0.41-0.22,0.93-0.15,1.51,0.18l12,6.93
				c0.93,0.54,1.75,1.63,2.25,2.86l-8.08,4.74c-0.58-1.3-1.47-2.43-2.49-3.02l-12-6.93c-0.19-0.11-0.37-0.2-0.56-0.26L86.75,58.32z
				 M91.92,104.51l-12-6.93c-1.54-0.89-2.78-3.29-2.78-5.35V65.71c0-1.01,0.3-1.76,0.83-2.06c0.07-0.04,0.15-0.07,0.22-0.09
				c0.05-0.02,0.11-0.03,0.16-0.04c0.05-0.01,0.1-0.02,0.16-0.02c0.02,0,0.04,0,0.06,0c0.35,0.01,0.68,0.15,0.95,0.3l12,6.93
				c1.54,0.89,2.78,3.29,2.78,5.35v26.52c0,1.01-0.3,1.76-0.83,2.06C92.94,104.97,92.33,104.74,91.92,104.51z"/>
		</g>
	</g>
	<g id="_x31_4">
		<g id="XMLID_6035_">
			<g id="XMLID_5075_">
				<path id="XMLID_5078_" class="st11" d="M58.62,121.66L46.2,103.51c-0.56-0.94-1.66-1.43-2.74-1.22l-2.16,0.41
					c-0.66,0.13-1.09,0.78-0.95,1.43l5.56,19.17L58.62,121.66z"/>
				<path id="XMLID_5108_" class="st12" d="M40.07,104.2c-0.09-0.4-0.01-0.8,0.21-1.14c0.22-0.34,0.57-0.57,0.97-0.65L43.4,102
					c1.2-0.23,2.43,0.32,3.04,1.35l12.69,18.55l-13.44,1.73L40.07,104.2z M50.77,110.72c-1.7-1.82-4.56-4.61-5.39-4.69
					c-1.2-0.12-3.41,0.37-3.44,0.38l-0.59,0.11l4.77,16.46l11.97-1.54L50.77,110.72z"/>
			</g>
			<g id="XMLID_5053_">
				<path id="XMLID_5104_" class="st13" d="M123.93,87.99c0.48-1.31,1.28-2.08,2.19-2.28l0,0l0.02,0c0.02,0,0.04-0.01,0.06-0.01
					l13.68-3.68c0.02,0,0.05-0.01,0.07-0.01l0.09-0.02l0,0.01c0.89-0.12,1.88,0.29,2.77,1.29c1.87,2.09,2.59,5.95,1.63,8.61
					c-0.48,1.33-1.3,2.11-2.23,2.29l0,0.02l-14.17,1.59c-0.02,0-0.03,0.01-0.05,0.01l-0.07,0.01l0,0c-0.9,0.14-1.9-0.28-2.8-1.28
					C123.25,92.44,122.97,90.65,123.93,87.99z"/>
				<path id="XMLID_5101_" class="st14" d="M123.65,87.89c0.46-1.26,1.22-2.11,2.17-2.41l0-0.02l13.98-3.73l0.39-0.07l0.1,0.01
					c0.94-0.02,1.9,0.47,2.73,1.41c1.93,2.16,2.68,6.16,1.68,8.9c-0.3,0.83-0.74,1.49-1.27,1.92c-0.28,0.22-0.58,0.39-0.9,0.49
					l-0.28,0.1l-14.22,1.6l-0.39,0.04l0,0c-0.95,0.03-1.91-0.46-2.75-1.41C122.99,92.59,122.64,90.67,123.65,87.89z M142.15,93.89
					c0.86-0.17,1.57-0.92,2.01-2.1c0.93-2.56,0.23-6.29-1.57-8.31c-0.79-0.88-1.68-1.3-2.51-1.19l-0.11,0.01l-13.49,3.62l0,0.01
					L126.19,86c-0.85,0.19-1.55,0.93-1.97,2.09c-0.52,1.42-0.65,2.58-0.38,3.66l13.65-2.3l0.22,1.04l-13.53,2.18
					c0.18,0.36,0.4,0.71,0.67,1.07l13.37-2.14l1.09,1.33l1.45,1.14l1.14-0.13L142.15,93.89z"/>
				<path id="XMLID_5100_" class="st14" d="M121.64,83.86c0.15-0.12,3.7-3.07,6.64-1.25c1.63,1.01,3.72,1.48,5.25,1.82
					c1.28,0.29,1.91,0.44,2.18,0.74l0,0c0.2,0.23,0.21,0.46,0.17,0.61c-0.05,0.23-0.22,0.43-0.4,0.58
					c-0.21,0.17-0.42,0.27-0.49,0.31l-6.84,1.38c-1.35,0.27-2.75-0.13-3.74-1.08l-3.01-2.88L121.64,83.86z"/>
				<path id="XMLID_5094_" class="st14" d="M144.55,93.69l-0.05-1.14c0.09-0.19,0.17-0.37,0.23-0.54c0.9-2.46,0.39-6-1.18-8.27
					l-0.17-1.56l-2.91-0.51l0,0c-1.33-0.07-2.47,0.86-3.08,2.53l0,0c-1,2.75-0.24,6.76,1.69,8.93c0.97,1.09,2.09,1.57,3.16,1.37
					c0.28-0.05,0.8-0.24,1.04-0.38L144.55,93.69z M142.85,82.68l0.14,1.27l0.04,0.06c1.5,2.12,2,5.47,1.15,7.79
					c-0.07,0.2-0.16,0.38-0.25,0.56l-0.04,0.08l0.09,0.8l-1.18,0.43c-0.23,0.13-0.44,0.2-0.65,0.24c-0.86,0.16-1.79-0.26-2.62-1.18
					c-1.8-2.02-2.51-5.76-1.57-8.33l0,0c0.54-1.49,1.55-2.28,2.69-2.12l0.05,0.01L142.85,82.68z"/>
				<path id="XMLID_5093_" class="st13" d="M141.76,92.27c1.69,1.89,3.76,1.48,4.64-0.92c0.87-2.4,0.22-5.89-1.47-7.78
					c-1.69-1.89-3.76-1.48-4.64,0.92C139.41,86.9,140.07,90.38,141.76,92.27z"/>
				<path id="XMLID_5088_" class="st14" d="M145.51,93.2c0.49-0.4,0.88-0.99,1.16-1.75c0.91-2.49,0.22-6.12-1.53-8.08
					c-0.89-0.99-1.91-1.44-2.89-1.24c-0.99,0.19-1.79,1-2.25,2.27c-0.91,2.49-0.22,6.12,1.53,8.08l0,0
					c0.89,0.99,1.91,1.44,2.89,1.24C144.82,93.64,145.19,93.46,145.51,93.2z M141.54,83.11c0.25-0.2,0.53-0.34,0.83-0.4
					c0.77-0.15,1.6,0.23,2.34,1.06c1.62,1.82,2.25,5.17,1.41,7.48c-0.39,1.06-1.03,1.73-1.8,1.89c-0.77,0.15-1.6-0.23-2.34-1.06l0,0
					c-1.62-1.82-2.25-5.18-1.41-7.48C140.8,83.94,141.14,83.43,141.54,83.11z"/>
				<g id="XMLID_5074_">
					<path id="XMLID_5086_" class="st14" d="M144.97,90.98c0.29-0.24,0.53-0.59,0.69-1.04c0.53-1.46,0.13-3.57-0.89-4.72
						c-0.53-0.59-1.14-0.86-1.74-0.74c-0.6,0.12-1.08,0.6-1.35,1.35c-0.53,1.46-0.13,3.57,0.89,4.72c0.53,0.59,1.14,0.86,1.74,0.74
						C144.55,91.25,144.77,91.14,144.97,90.98z"/>
				</g>
			</g>
			<g id="XMLID_5043_">
				<path id="XMLID_5041_" class="st15" d="M110.31,48l3.25-0.59c1.09-0.16,2.14,0.44,2.54,1.46l22.8,63.59l-30.26,4.24l3.7-40.39
					l-3.27-26.64C108.96,48.86,109.51,48.12,110.31,48z"/>
				<path id="XMLID_5070_" class="st14" d="M112.05,76.31l-3.27-26.61c-0.07-0.46,0.05-0.93,0.33-1.3c0.28-0.38,0.69-0.62,1.15-0.69
					l3.26-0.59c1.23-0.18,2.4,0.49,2.86,1.65l22.92,63.93l-30.99,4.35L112.05,76.31z M119.52,59.28c-1.05-1.86-2.99-5.11-3.99-5.44
					c-1.4-0.47-4.64,0.07-5.62,0.25l2.72,22.18l-3.66,40.09l29.53-4.14L119.52,59.28z"/>
			</g>
			<g id="XMLID_5080_">
				<path id="XMLID_5057_" class="st13" d="M108.53,156.13c0.48-1.31,1.28-2.08,2.19-2.28l0,0l0.02,0c0.02,0,0.04-0.01,0.06-0.01
					l13.68-3.68c0.02,0,0.05-0.01,0.07-0.01l0.09-0.02l0,0.01c0.89-0.12,1.88,0.29,2.77,1.29c1.87,2.09,2.59,5.95,1.63,8.61
					c-0.48,1.33-1.3,2.11-2.23,2.29l0,0.02l-14.17,1.59c-0.02,0-0.03,0.01-0.05,0.01l-0.07,0.01l0,0c-0.9,0.14-1.9-0.28-2.8-1.28
					C107.85,160.57,107.57,158.79,108.53,156.13z"/>
				<path id="XMLID_5066_" class="st14" d="M108.26,156.03c0.46-1.26,1.22-2.11,2.17-2.41l0-0.02l13.98-3.73l0.39-0.07l0.1,0.01
					c0.94-0.02,1.9,0.47,2.73,1.41c1.93,2.16,2.68,6.16,1.68,8.9c-0.3,0.83-0.74,1.49-1.27,1.92c-0.28,0.22-0.58,0.39-0.9,0.49
					l-0.28,0.1l-14.22,1.6l-0.39,0.04l0,0c-0.95,0.03-1.91-0.46-2.75-1.41C107.59,160.73,107.24,158.81,108.26,156.03z
					 M126.75,162.03c0.86-0.17,1.57-0.92,2.01-2.1c0.93-2.56,0.23-6.29-1.57-8.31c-0.79-0.88-1.68-1.3-2.51-1.19l-0.11,0.01
					l-13.49,3.62l0,0.01l-0.29,0.06c-0.85,0.19-1.55,0.93-1.97,2.09c-0.52,1.42-0.65,2.58-0.38,3.66l13.65-2.3l0.22,1.04
					l-13.53,2.18c0.18,0.36,0.4,0.71,0.67,1.07l13.37-2.14l1.09,1.33l1.45,1.14l1.14-0.13L126.75,162.03z"/>
				<path id="XMLID_5062_" class="st14" d="M106.25,151.99c0.15-0.12,3.7-3.07,6.64-1.25c1.63,1.01,3.72,1.48,5.25,1.82
					c1.28,0.29,1.91,0.44,2.18,0.74l0,0c0.2,0.23,0.21,0.46,0.17,0.61c-0.05,0.23-0.22,0.43-0.4,0.58
					c-0.21,0.17-0.42,0.27-0.49,0.31l-6.84,1.38c-1.35,0.27-2.75-0.13-3.74-1.08l-3.01-2.88L106.25,151.99z"/>
				<path id="XMLID_5054_" class="st14" d="M129.15,161.82l-0.05-1.14c0.09-0.19,0.17-0.37,0.23-0.54c0.89-2.46,0.39-6-1.18-8.27
					l-0.17-1.56l-2.91-0.51l0,0c-1.33-0.07-2.47,0.86-3.08,2.53l0,0c-1,2.75-0.24,6.76,1.69,8.93c0.97,1.09,2.09,1.57,3.16,1.37
					c0.28-0.05,0.8-0.24,1.04-0.38L129.15,161.82z M127.45,150.81l0.14,1.27l0.04,0.06c1.5,2.12,2,5.47,1.15,7.79
					c-0.07,0.2-0.16,0.38-0.25,0.56l-0.04,0.08l0.09,0.8l-1.18,0.43c-0.23,0.13-0.44,0.2-0.65,0.24c-0.86,0.16-1.79-0.26-2.62-1.18
					c-1.8-2.02-2.51-5.76-1.57-8.33l0,0c0.54-1.49,1.55-2.28,2.69-2.12l0.05,0.01L127.45,150.81z"/>
				<path id="XMLID_5049_" class="st13" d="M126.36,160.41c1.69,1.89,3.76,1.48,4.64-0.92c0.87-2.4,0.22-5.89-1.47-7.78
					c-1.69-1.89-3.76-1.48-4.64,0.92C124.01,155.03,124.67,158.52,126.36,160.41z"/>
				<path id="XMLID_5050_" class="st14" d="M130.11,161.34c0.49-0.4,0.88-0.99,1.16-1.75c0.91-2.49,0.22-6.12-1.53-8.08
					c-0.89-0.99-1.91-1.44-2.89-1.24c-0.99,0.19-1.79,1-2.25,2.27c-0.91,2.49-0.22,6.12,1.53,8.08l0,0
					c0.89,0.99,1.91,1.44,2.89,1.24C129.42,161.78,129.79,161.6,130.11,161.34z M126.14,151.24c0.25-0.2,0.53-0.34,0.83-0.4
					c0.77-0.15,1.6,0.23,2.34,1.06c1.62,1.82,2.25,5.17,1.41,7.48c-0.39,1.06-1.03,1.73-1.8,1.89c-0.77,0.15-1.6-0.23-2.34-1.06l0,0
					c-1.62-1.82-2.25-5.18-1.41-7.48C125.4,152.07,125.74,151.57,126.14,151.24z"/>
				<g id="XMLID_7674_">
					<path id="XMLID_5044_" class="st14" d="M129.57,159.12c0.29-0.24,0.53-0.59,0.69-1.04c0.53-1.46,0.13-3.57-0.89-4.72
						c-0.53-0.59-1.14-0.86-1.74-0.74c-0.6,0.12-1.08,0.6-1.35,1.35c-0.53,1.46-0.13,3.57,0.89,4.72c0.53,0.59,1.14,0.86,1.74,0.74
						C129.15,159.38,129.37,159.28,129.57,159.12z"/>
				</g>
			</g>
			<path id="XMLID_5107_" class="st16" d="M159.04,101.69c11.25,0.62,25.23,8.81,26.45,12.08c1.64,4.4-2.53,5.85-7.32,8.19
				c-10.03,4.9-46.41,11.68-69.56,15.39c-23.14,3.71-32.91,5.6-38.93,5.85c-10.39,0.44-32.96-9.26-39.63-13.11
				c-4.89-2.82-0.52-6.09,4.67-7.75c5.19-1.66,39.93-8.06,69.68-13.42C134.16,103.56,145.58,100.95,159.04,101.69z"/>
			<g id="XMLID_5720_">
				<g id="XMLID_5122_">
					<path id="XMLID_5303_" class="st17" d="M158.08,112.71c0.09-0.27,0.32-0.47,0.63-0.53c0.41-0.09,0.93-0.18,1.53-0.29
						c0.56-0.1,1.21-0.22,1.91-0.36l-0.01,0l1.15-0.24c2.18-0.46,4.12-0.97,5.91-1.56c0.58-0.19,1.11-0.42,1.59-0.68l0.09-0.05
						c0.42-0.24,0.8-0.53,1.11-0.87l0.21-0.29c0.2-0.28,0.34-0.58,0.42-0.88l0,0c0.03-0.13,0.02-0.27-0.03-0.43l-0.04-0.14
						c-0.4-0.83-1.77-1.64-2.19-1.78l0.19-0.56c1.68,0.54,3.25,1.3,4.77,2.04l0.13,0.06c0.55,0.27,0.97,0.69,1.18,1.18
						c0.47,1.09,0.09,2.37-1.04,3.51c-0.1,0.1-0.21,0.2-0.34,0.3c-2.62,2.13-9.85,3.78-13.39,4.12c-1.1,0.11-2.07-0.13-2.81-0.67
						l-0.72-0.88C158.07,113.39,157.98,113.02,158.08,112.71z"/>
				</g>
				<path id="XMLID_5131_" class="st14" d="M27.66,127.18c0.24-2.21,3.77-4.1,6.99-5.13c4.12-1.32,27.57-5.84,69.71-13.43
					c4.12-0.74,7.89-1.43,11.37-2.07c21.77-3.98,31.7-5.8,43.33-5.16c11.25,0.62,25.42,8.81,26.71,12.28
					c0.9,2.4,0.14,3.99-1.44,5.27c-1.21,0.98-2.9,1.79-4.69,2.64c-0.44,0.21-0.88,0.42-1.33,0.64
					c-9.55,4.67-43.48,11.22-69.64,15.41c-6.31,1.01-11.62,1.89-16.13,2.63c-11.88,1.96-18.43,3.04-22.83,3.22
					c-10.28,0.43-32.83-9.14-39.79-13.15C28.29,129.41,27.53,128.34,27.66,127.18z M159.02,101.99
					c-11.56-0.63-21.47,1.18-43.19,5.15c-3.47,0.64-7.24,1.33-11.37,2.07c-42.12,7.59-65.55,12.1-69.64,13.41
					c-2.3,0.74-4.15,1.69-5.3,2.68c4.52,2.2,11.1,5,17.68,7.25c2.13-0.88,4.92-1.86,5.56-1.25c3.77,3.56,8.81,4.86,9.02,4.92
					c1.25,0.14,2.4,0.2,3.44,0.16c6.02-0.25,14.74-2.49,37.89-6.2c23.14-3.71,54.43-8.48,70.29-14.14c5.57-1.99,7.77-3.75,7.72-5.94
					C175.99,106.6,166.95,102.42,159.02,101.99z"/>
				<path id="XMLID_5722_" class="st6" d="M183.4,116.82c0.63,0.77,1.43,0.64,1.79-0.29c0.36-0.93,0.14-2.32-0.49-3.09
					c-0.63-0.77-1.43-0.64-1.79,0.29C182.55,114.67,182.77,116.05,183.4,116.82z"/>
			</g>
			<g id="XMLID_5040_">
				<path id="XMLID_5085_" class="st15" d="M133.92,126.8c-1.93-1.44-23.37,2.36-30.75,3.65c-1.5,0.26-2.79,1.21-3.5,2.56
					l-18.56,32.08L53.5,203.52c-0.66,0.86,0.02,2.1,1.1,1.99l3.99-0.39c2.3-0.22,4.47-1.23,6.13-2.85l64.43-62.83
					c1.96-1.91,3.6-4.15,4.73-6.64C134.82,130.7,135.88,128.27,133.92,126.8z"/>
				<path id="XMLID_5084_" class="st14" d="M53.14,205.02c-0.3-0.54-0.25-1.19,0.12-1.68l0.89-1.23l0,0l26.72-37.16l18.55-32.07
					c0.74-1.42,2.13-2.44,3.71-2.72l0.47-0.08c13.27-2.33,28.74-4.84,30.5-3.52c2.18,1.63,0.95,4.36,0.05,6.36
					c-1.1,2.44-2.71,4.71-4.79,6.73l-55.41,54.03l0,0l-9.02,8.79c-0.22,0.22-0.46,0.43-0.7,0.62c-1.6,1.3-3.55,2.11-5.61,2.31
					l-3.99,0.39C54.01,205.86,53.44,205.56,53.14,205.02z M128.94,139.23c2.02-1.97,3.59-4.18,4.66-6.55c1.1-2.44,1.8-4.4,0.14-5.64
					c-1.79-1.34-23.06,2.4-30.05,3.63l-0.47,0.08c-1.42,0.25-2.62,1.13-3.29,2.42l-18.58,32.1L59.19,196.1
					c1.34-0.07,6.04-0.35,8.57-0.77c2.3-0.39,8.77-5.41,11.88-8.02l-0.04,0.05L128.94,139.23z"/>
			</g>
			<g id="XMLID_5060_">
				<path id="XMLID_5071_" class="st11" d="M52.47,133.12c0.69-0.53,0.5-1.61-0.33-1.87c-3.75-1.17-13.08-0.27-13.82-0.16
					c-0.93,0.14-3.05,3.28-3.05,3.28l-13.31,19.14c-0.38,0.55,0.06,1.29,0.72,1.21l2.96-0.34c1.3-0.15,2.53-0.68,3.53-1.53
					L52.47,133.12z"/>
				<path id="XMLID_5076_" class="st12" d="M21.87,154.74c-0.07-0.07-0.14-0.15-0.2-0.24c-0.16-0.27-0.2-0.59-0.1-0.88
					c0.03-0.1,0.08-0.19,0.14-0.28l13.31-19.14c0.36-0.54,2.24-3.26,3.25-3.41c0.88-0.13,10.2-1,13.95,0.17
					c0.49,0.15,0.85,0.56,0.94,1.06c0.09,0.5-0.12,1.01-0.51,1.32l-23.3,19.73c-0.04,0.03-0.07,0.06-0.11,0.09
					c-1.03,0.84-2.26,1.36-3.58,1.51l-2.96,0.34c-0.29,0.03-0.56-0.05-0.77-0.22C21.92,154.77,21.89,154.76,21.87,154.74z
					 M52.29,132.89L52.29,132.89c0.25-0.19,0.35-0.47,0.3-0.75c-0.05-0.29-0.25-0.52-0.53-0.6c-3.65-1.14-12.82-0.28-13.69-0.15
					c-0.55,0.08-1.99,1.89-2.84,3.16l-10.47,15.06c1.35-0.16,4.04-0.43,5.29-0.56c1.8-0.18,5.41-2.42,6.86-3.37L52.29,132.89
					L52.29,132.89z"/>
			</g>
			<g id="XMLID_5723_">
				<g id="XMLID_5105_">
					<path id="XMLID_5110_" class="st11" d="M54.53,121.5c0,0-30.46-19.95-32.38-20.22c-1.38-0.19-5.77,0.46-8.17,0.85
						c-0.67,0.11-0.95,0.93-0.47,1.42l21.14,21.62c0.78,0.79,1.89,1.16,2.99,0.97l16.48-2.73C54.12,123.41,56.04,123.02,54.53,121.5
						z"/>
					<path id="XMLID_5119_" class="st12" d="M13.04,102.61c0.03-0.1,0.08-0.2,0.14-0.28c0.17-0.26,0.45-0.43,0.76-0.49
						c2.48-0.4,6.85-1.05,8.25-0.85c1.94,0.27,29.38,18.22,32.51,20.26l0.05,0.04c0.14,0.14,0.25,0.28,0.35,0.41
						c0.28,0.4,0.38,0.77,0.27,1.11c-0.07,0.22-0.2,0.39-0.36,0.51c-0.33,0.27-0.77,0.37-0.84,0.38l-0.91,0.15l-0.39,0.09l0-0.02
						l-15.18,2.52c-1.19,0.2-2.41-0.2-3.25-1.06L13.3,103.76C13,103.46,12.9,103.01,13.04,102.61z M34.86,124.96
						c0.71,0.72,1.73,1.06,2.73,0.89l15.23-2.53c-0.13-0.25-0.37-0.84-1.29-1.36c-1.57-0.88-20.5-8.17-31.6-12.28L34.86,124.96z"/>
				</g>
				<path id="XMLID_5721_" class="st6" d="M18.32,106.54c0.91,1.12,2.8,1.83,4.22,1.6s1.84-1.32,0.94-2.44
					c-0.91-1.12-2.8-1.83-4.22-1.6S17.41,105.42,18.32,106.54z"/>
			</g>
		</g>
	</g>
</g>
</svg>
