<?xml version="1.0" encoding="utf-8"?>
<!-- Generator: Adobe Illustrator 23.0.1, SVG Export Plug-In . SVG Version: 6.00 Build 0)  -->
<svg version="1.1" id="Layer_1" xmlns="http://www.w3.org/2000/svg" xmlns:xlink="http://www.w3.org/1999/xlink" x="0px" y="0px"
	 viewBox="0 0 220 220" style="enable-background:new 0 0 220 220;" xml:space="preserve">
<style type="text/css">
	.st0{fill:#FFFFFF;stroke:#000000;stroke-width:1.5939;stroke-linecap:round;stroke-linejoin:round;stroke-miterlimit:10;}
	.st1{fill:#336A43;stroke:#000000;stroke-width:1.4193;stroke-linecap:round;stroke-linejoin:round;stroke-miterlimit:10;}
	.st2{fill:#BCBEC0;}
	.st3{fill:#FFFFFF;stroke:#000000;stroke-width:1.4413;stroke-linecap:round;stroke-linejoin:round;stroke-miterlimit:10;}
	
		.st4{opacity:0.53;fill:#FFFFFF;stroke:#000000;stroke-width:1.4413;stroke-linecap:round;stroke-linejoin:round;stroke-miterlimit:10;}
	.st5{fill:#FFFFFF;stroke:#000000;stroke-width:1.7805;stroke-miterlimit:10;}
	.st6{fill:#FFFFFF;stroke:#000000;stroke-width:1.7805;stroke-linecap:round;stroke-linejoin:round;stroke-miterlimit:10;}
	.st7{stroke:#000000;stroke-width:1.3358;stroke-linecap:round;stroke-linejoin:round;stroke-miterlimit:10;}
	.st8{fill:#FFFFFF;stroke:#000000;stroke-width:1.3358;stroke-linecap:round;stroke-linejoin:round;stroke-miterlimit:10;}
	.st9{fill:#FFFFFF;stroke:#000000;stroke-width:1.2482;stroke-linecap:round;stroke-linejoin:round;stroke-miterlimit:10;}
	.st10{stroke:#000000;stroke-linecap:round;stroke-linejoin:round;stroke-miterlimit:10;}
	.st11{fill:#FFFFFF;stroke:#000000;stroke-width:1.6501;stroke-linecap:round;stroke-linejoin:round;stroke-miterlimit:10;}
	.st12{fill:#FFFFFF;stroke:#000000;stroke-width:1.1911;stroke-linecap:round;stroke-linejoin:round;stroke-miterlimit:10;}
	
		.st13{opacity:0.53;fill:#FFFFFF;stroke:#000000;stroke-width:1.1911;stroke-linecap:round;stroke-linejoin:round;stroke-miterlimit:10;}
	.st14{stroke:#000000;stroke-width:1.1911;stroke-linecap:round;stroke-linejoin:round;stroke-miterlimit:10;}
	.st15{opacity:0.53;stroke:#000000;stroke-width:1.1911;stroke-linecap:round;stroke-linejoin:round;stroke-miterlimit:10;}
</style>
<g>
	<g>
		<g>
			<g>
				<g>
					<path class="st0" d="M90.02,87.22L8.05,134.54l121.92,70.85l81.97-47.32L90.02,87.22z"/>
					<g>
						<polygon class="st1" points="8.05,134.54 8.07,140.15 129.98,211 129.97,205.39 						"/>
					</g>
					<g>
						<polygon class="st1" points="129.97,205.39 129.98,211 211.95,163.68 211.93,158.07 						"/>
					</g>
				</g>
			</g>
		</g>
		<ellipse class="st2" cx="88.48" cy="112.61" rx="21.71" ry="12.58"/>
		<ellipse class="st2" cx="126.78" cy="133.77" rx="21.71" ry="12.58"/>
		<ellipse class="st2" cx="165.22" cy="156.48" rx="21.71" ry="12.58"/>
		<ellipse class="st2" cx="51.92" cy="133.77" rx="21.71" ry="12.58"/>
		<ellipse class="st2" cx="90.22" cy="154.93" rx="21.71" ry="12.58"/>
		<ellipse class="st2" cx="128.66" cy="177.64" rx="21.71" ry="12.58"/>
	</g>
	<g>
		<g>
			<path class="st3" d="M122.66,105.17l0,20.65c0,2.09-1.38,4.17-4.12,5.77c-5.54,3.22-14.51,3.22-20.07,0.02
				c-2.8-1.62-4.2-3.74-4.2-5.86l0-20.66c-0.01,2.13,1.39,4.25,4.2,5.87c5.56,3.21,14.52,3.21,20.07-0.02
				C121.28,109.34,122.65,107.26,122.66,105.17z"/>
			<path class="st4" d="M122.66,105.17l0,20.65c0,2.09-1.38,4.17-4.12,5.77c-5.54,3.22-14.51,3.22-20.07,0.02
				c-2.8-1.62-4.2-3.74-4.2-5.86l0-20.66c-0.01,2.13,1.39,4.25,4.2,5.87c5.56,3.21,14.52,3.21,20.07-0.02
				C121.28,109.34,122.65,107.26,122.66,105.17z"/>
			<path class="st3" d="M91.21,62.55c9.59,0.81,25.06,0.81,34.64,0c4.34-0.37,6.73-0.96,7.12-1.47l0-5.03l-49.01-0.15l0,5.19
				C84.01,61.62,86.43,62.15,91.21,62.55z"/>
			<path class="st3" d="M125.85,62.55c-9.58,0.81-25.05,0.81-34.64,0.01c-4.78-0.4-7.2-0.93-7.25-1.46l10.17,54.05
				c0,4.52,6.42,8.18,14.33,8.18c7.91,0,14.33-3.66,14.33-8.18l10.18-54.06C132.58,61.58,130.18,62.18,125.85,62.55z"/>
			<path class="st4" d="M125.85,62.55c-9.58,0.81-25.05,0.81-34.64,0.01c-4.78-0.4-7.19-0.93-7.25-1.46l10.17,54.05
				c0,4.52,6.42,8.18,14.33,8.18c7.91,0,14.33-3.66,14.33-8.18l10.18-54.06C132.58,61.58,130.18,62.18,125.85,62.55z"/>
		</g>
		<g>
			<g>
				<path class="st1" d="M166.07,152.63c1.95-4.65,3.1-10.28,3.1-16.36c0-6.07-1.15-11.7-3.1-16.36l-3.16-12.56h-11.05v0.03
					c-0.1,0-0.21-0.03-0.31-0.03c-9.73,0-17.62,12.95-17.62,28.91c0,15.97,7.89,28.91,17.62,28.91c0.75,0,10.29,0,10.29,0
					L166.07,152.63z"/>
				<ellipse class="st1" cx="161.85" cy="136.28" rx="17.62" ry="28.91"/>
			</g>
			<path class="st1" d="M102.52,131.51v35.26c0,3.38,12.46,6.12,27.83,6.12s27.83-2.74,27.83-6.12v-35.26H102.52z"/>
			<ellipse class="st1" cx="130.35" cy="131.51" rx="27.83" ry="6.12"/>
			<ellipse class="st5" cx="130.35" cy="133.56" rx="23.83" ry="4.07"/>
			<path class="st6" d="M130.35,146.53c-9.1,0-17-0.87-21.02-2.15v14.97c0,1.98,9.41,3.59,21.02,3.59s21.02-1.61,21.02-3.59v-14.97
				C147.36,145.66,139.45,146.53,130.35,146.53z"/>
		</g>
		<g>
			<path class="st7" d="M60.69,119.89V145c0,0,9.87-1,13.53-4.66v-25.02L60.69,119.89z"/>
			<path class="st7" d="M48.46,114.98v25.36c0,0,7.04,4.66,12.23,4.66v-25.11L48.46,114.98z"/>
			<path class="st7" d="M48.46,114.98l12.98-3.63l12.78,3.63c0,0-8.06,4.54-13.53,4.91C60.69,119.89,52.72,117.94,48.46,114.98z"/>
			<path class="st8" d="M52.16,107.05v6.69c0,1.05,4.11,1.9,9.17,1.9c5.07,0,9.17-0.85,9.17-1.9v-6.69H52.16z"/>
			<ellipse class="st8" cx="61.33" cy="107.05" rx="9.17" ry="1.9"/>
			<path class="st9" d="M68.21,82.84H54.45v23.36h0.01c0,0-0.01,0.01-0.01,0.01c0,0.46,3.08,0.84,6.88,0.84
				c3.8,0,6.88-0.38,6.88-0.84c0,0-0.01-0.01-0.01-0.01h0.01V82.84z"/>
			<ellipse class="st10" cx="61.33" cy="82.84" rx="6.88" ry="1.64"/>
			<path class="st11" d="M66.09,63.27c-0.57-2.46-3.24-0.36-4.38,0.8c-1.08,1.11-2.05,2.31-2.92,3.58c-1.23,1.8-2.27,4.94-2.27,7.16
				c0,0.01,0,4.18,0,7.93c0,1.04,2.15,1.46,4.81,1.46c2.36,0,4.32-0.25,4.72-1.13C66.11,82.97,66.22,63.84,66.09,63.27z"/>
		</g>
		<g>
			<g>
				<g>
					<path class="st12" d="M96.55,150.75l0,3.18c0,2.07-1.37,4.14-4.1,5.73c-5.51,3.2-14.42,3.2-19.94,0.02
						c-2.78-1.61-4.18-3.72-4.17-5.82l0-3.18c-0.01,2.11,1.39,4.22,4.17,5.83c5.52,3.18,14.43,3.18,19.94-0.02
						C95.18,154.89,96.54,152.82,96.55,150.75z"/>
					<path class="st13" d="M96.55,150.75l0,3.18c0,2.07-1.37,4.14-4.1,5.73c-5.51,3.2-14.42,3.2-19.94,0.02
						c-2.78-1.61-4.18-3.72-4.17-5.82l0-3.18c-0.01,2.11,1.39,4.22,4.17,5.83c5.52,3.18,14.43,3.18,19.94-0.02
						C95.18,154.89,96.54,152.82,96.55,150.75z"/>
				</g>
			</g>
			<g>
				<g>
					<path class="st1" d="M96.55,130.29l0,20.52c0,2.07-1.37,4.14-4.1,5.73c-5.51,3.2-14.42,3.2-19.94,0.02
						c-2.78-1.61-4.18-3.72-4.17-5.82l0-20.53c-0.01,2.11,1.39,4.22,4.17,5.83c5.52,3.18,14.43,3.18,19.94-0.02
						C95.18,134.43,96.54,132.36,96.55,130.29z"/>
				</g>
				<path class="st1" d="M96.55,130.29l0,20.52c0,2.07-1.37,4.14-4.1,5.73c-5.51,3.2-14.42,3.2-19.94,0.02
					c-2.78-1.61-4.18-3.72-4.17-5.82l0-20.53c-0.01,2.11,1.39,4.22,4.17,5.83c5.52,3.18,14.43,3.18,19.94-0.02
					C95.18,134.43,96.54,132.36,96.55,130.29z"/>
				<path class="st1" d="M92.39,124.48c5.52,3.19,5.55,8.35,0.07,11.53c-5.52,3.2-14.42,3.2-19.94,0.02
					c-5.52-3.19-5.58-8.37-0.07-11.57C77.93,121.28,86.87,121.29,92.39,124.48z"/>
				<path class="st1" d="M92.39,124.48c5.52,3.19,5.55,8.35,0.07,11.53c-5.52,3.2-14.42,3.2-19.94,0.02
					c-5.52-3.19-5.58-8.37-0.07-11.57C77.93,121.28,86.87,121.29,92.39,124.48z"/>
			</g>
			<g>
				<g>
					<path class="st14" d="M88.56,106.47l0,22.45c0,0.9-0.59,1.8-1.78,2.48c-2.39,1.39-6.25,1.39-8.64,0.01
						c-1.21-0.7-1.81-1.61-1.81-2.52l0-22.45c0,0.92,0.6,1.83,1.81,2.53c2.39,1.38,6.25,1.38,8.64-0.01
						C87.96,108.27,88.56,107.37,88.56,106.47z"/>
				</g>
				<path class="st15" d="M88.56,106.47l0,22.45c0,0.9-0.59,1.8-1.78,2.48c-2.39,1.39-6.25,1.39-8.64,0.01
					c-1.21-0.7-1.81-1.61-1.81-2.52l0-22.45c0,0.92,0.6,1.83,1.81,2.53c2.39,1.38,6.25,1.38,8.64-0.01
					C87.97,108.27,88.56,107.37,88.56,106.47z"/>
				<path class="st14" d="M86.75,103.94c2.39,1.38,2.41,3.62,0.03,5c-2.39,1.39-6.25,1.39-8.64,0.01c-2.39-1.38-2.42-3.62-0.03-5.01
					C80.49,102.55,84.36,102.55,86.75,103.94z"/>
			</g>
		</g>
		<g>
			<path class="st2" d="M89.66,82.01l3,16.1c0.2,1.07,0.96,1.95,1.99,2.31c7.75,2.68,18.23,2.73,26.96,0.08
				c1.08-0.33,1.9-1.22,2.11-2.33l3.07-16.13c0.09-0.46-0.32-0.86-0.78-0.76c-11.27,2.48-24.38,2.68-35.56-0.03
				C89.99,81.15,89.57,81.54,89.66,82.01z"/>
		</g>
	</g>
</g>
</svg>
