<?xml version="1.0" encoding="utf-8"?>
<!-- Generator: Adobe Illustrator 23.0.1, SVG Export Plug-In . SVG Version: 6.00 Build 0)  -->
<svg version="1.1" id="Layer_1" xmlns="http://www.w3.org/2000/svg" xmlns:xlink="http://www.w3.org/1999/xlink" x="0px" y="0px"
	 viewBox="0 0 220 220" style="enable-background:new 0 0 220 220;" xml:space="preserve">
<style type="text/css">
	.st0{fill:none;stroke:#231F20;stroke-width:1.5073;stroke-linecap:round;stroke-linejoin:round;stroke-miterlimit:10;}
	.st1{fill:#FFFFFF;stroke:#231F20;stroke-width:1.5;stroke-linecap:round;stroke-linejoin:round;stroke-miterlimit:10;}
	.st2{fill:#BBBDBF;stroke:#231F20;stroke-width:1.5;stroke-linecap:round;stroke-linejoin:round;stroke-miterlimit:10;}
	.st3{fill:#BBBDBF;}
	.st4{fill:#336B43;}
	.st5{fill:#336B43;stroke:#231F20;stroke-width:1.419;stroke-linecap:round;stroke-linejoin:round;stroke-miterlimit:10;}
	.st6{fill:#FFFFFF;stroke:#231F20;stroke-width:1.5073;stroke-linecap:round;stroke-linejoin:round;stroke-miterlimit:10;}
	.st7{fill:#231F20;stroke:#231F20;stroke-width:1.5073;stroke-linecap:round;stroke-linejoin:round;stroke-miterlimit:10;}
	.st8{fill:#BBBDBF;stroke:#231F20;stroke-width:1.5073;stroke-linecap:round;stroke-linejoin:round;stroke-miterlimit:10;}
	.st9{fill:#231F20;}
	.st10{fill:#FFFFFF;}
	.st11{fill:#231F20;stroke:#231F20;stroke-width:0.7662;stroke-linecap:round;stroke-linejoin:round;stroke-miterlimit:10;}
	.st12{fill:#2E6840;}
	.st13{fill:#3E3593;}
	.st14{fill:#2E6840;stroke:#231F20;stroke-width:1.3916;stroke-linecap:round;stroke-linejoin:round;stroke-miterlimit:10;}
	.st15{fill:#2E6840;stroke:#231F20;stroke-width:0.5562;stroke-linecap:round;stroke-linejoin:round;stroke-miterlimit:10;}
	.st16{fill:none;stroke:#231F20;stroke-width:1.1126;stroke-linecap:round;stroke-linejoin:round;stroke-miterlimit:10;}
	.st17{fill:#FFFFFF;stroke:#231F20;stroke-width:1.3762;stroke-linecap:round;stroke-linejoin:round;stroke-miterlimit:10;}
	.st18{fill:#BBBDBF;stroke:#231F20;stroke-width:1.3762;stroke-linecap:round;stroke-linejoin:round;stroke-miterlimit:10;}
</style>
<g>
	<path class="st0" d="M90.02,87.22L8.05,134.54l121.92,70.85l81.97-47.32L90.02,87.22z"/>
	<g>
		<g>
			<g>
				<path class="st1" d="M90.02,87.22L8.05,134.54l121.92,70.85l81.97-47.32L90.02,87.22z"/>
				<g>
					<polygon class="st2" points="8.05,134.54 8.07,140.15 129.98,211 129.97,205.39 					"/>
				</g>
				<g>
					<polygon class="st2" points="129.97,205.39 129.98,211 211.95,163.68 211.93,158.07 					"/>
				</g>
			</g>
			<g>
				<polygon class="st3" points="47.38,147.59 63.77,157.13 71.96,152.41 55.56,142.87 				"/>
				<polygon class="st4" points="48.1,111.55 30.01,121.97 154.52,191.27 172.61,180.84 				"/>
				<polygon class="st3" points="34.9,130.83 26.71,135.55 43.1,145.1 51.29,140.38 				"/>
				<polygon class="st3" points="142.17,141.93 184.21,166.84 200.11,157.68 158.06,132.77 				"/>
			</g>
		</g>
		<g>
			<g>
				<g>
					<g>
						<polygon class="st5" points="121.99,69.44 127.79,146.54 102.51,163.6 48.99,132 50.1,50.37 60.14,52.11 66.94,42.74 						
							"/>
						<polygon class="st6" points="121.99,69.44 114.45,79.47 101.83,77.21 102.51,163.6 127.79,146.54 						"/>
						<polygon class="st6" points="101.83,77.21 50.1,50.37 48.99,132 102.51,163.6 						"/>
						<path class="st7" d="M79.34,73.17c0.14,0.81,0.62,1.41,1.08,1.33c0.46-0.08,0.72-0.8,0.59-1.61
							c-0.14-0.81-0.62-1.41-1.08-1.33C79.46,71.64,79.2,72.36,79.34,73.17z"/>
						<path class="st7" d="M65.32,64.81c0.14,0.81,0.62,1.4,1.07,1.32c0.46-0.08,0.72-0.79,0.58-1.6c-0.14-0.81-0.62-1.4-1.07-1.32
							C65.44,63.28,65.18,64,65.32,64.81z"/>
						<polygon class="st8" points="127.79,146.54 114.32,141.99 102.51,163.6 						"/>
						<g>
							<path class="st9" d="M73.15,89.53c0.85-0.01,1.65-0.28,2.39-0.8c4.08-2.85,5.01-12.8,5.18-15.4
								c0.02-0.33-0.23-0.62-0.57-0.63l0,0c-0.32-0.01-0.6,0.23-0.62,0.55c-0.17,2.45-1.07,11.98-4.68,14.5
								c-0.87,0.61-1.82,0.74-2.92,0.39c-5.68-1.8-5.74-16.81-5.25-23.17c0.02-0.32-0.22-0.61-0.54-0.63l0,0
								c-0.33-0.03-0.62,0.22-0.65,0.55c-0.27,3.66-1.24,22.08,6.08,24.4C72.12,89.46,72.65,89.54,73.15,89.53z"/>
						</g>
					</g>
					<polygon class="st5" points="66.94,42.74 67.47,59.38 101.83,77.21 114.45,79.47 121.99,69.44 					"/>
					<g>
						<polygon class="st4" points="61.79,138.88 60.73,106 83.48,118.28 84.58,152.27 						"/>
						<polygon class="st10" points="70.44,143.74 70.08,143.9 68.99,110.34 69.4,110.32 						"/>
						<polygon class="st3" points="61.79,138.88 60.73,106 69,110.47 70.07,143.75 						"/>
						<polygon class="st3" points="76.31,147.41 75.22,113.82 83.49,118.28 84.58,152.27 						"/>
						<path class="st11" d="M59.95,104.75l1.12,34.56l24.29,14.27l-1.16-35.75L59.95,104.75z M84.58,152.27l-22.79-13.39L60.73,106
							l22.75,12.27L84.58,152.27z"/>
						<polygon class="st10" points="62.15,137.15 69.88,130.19 69.83,128.52 62.1,135.49 						"/>
						<polygon class="st10" points="61.83,127.34 69.56,120.38 69.55,119.82 61.82,126.79 						"/>
						<polygon class="st10" points="61.75,124.64 69.48,117.68 69.42,116.02 61.69,122.99 						"/>
						<polygon class="st10" points="61.4,113.83 66.82,108.94 65.64,108.29 61.34,112.17 						"/>
						<polygon class="st10" points="76.14,142.1 83.6,135.36 83.55,133.7 76.09,140.44 						"/>
						<polygon class="st10" points="75.93,135.55 83.39,128.53 83.37,127.98 75.91,135 						"/>
						<polygon class="st10" points="75.54,123.49 82.22,117.6 81.02,116.95 75.48,121.83 						"/>
					</g>
				</g>
				<g>
					<polygon class="st12" points="54.27,98.07 49.16,103.25 51.85,104.67 56.96,99.5 					"/>
					<polygon class="st10" points="56.97,99.5 51.85,104.67 54.54,106.1 59.66,100.93 					"/>
					<polygon class="st12" points="59.66,100.93 54.54,106.1 57.23,107.53 62.34,102.36 					"/>
					<polygon class="st10" points="62.34,102.35 57.23,107.53 59.92,108.95 65.03,103.78 					"/>
					<polygon class="st12" points="65.03,103.78 59.91,108.95 62.61,110.38 67.72,105.21 					"/>
					<polygon class="st10" points="67.72,105.21 62.6,110.38 65.3,111.81 70.41,106.64 					"/>
					<polygon class="st12" points="70.41,106.63 65.29,111.81 67.99,113.23 73.1,108.06 					"/>
					<polygon class="st10" points="73.1,108.06 67.98,113.23 70.68,114.66 75.79,109.49 					"/>
					<polygon class="st12" points="75.79,109.49 70.67,114.66 73.37,116.09 78.48,110.92 					"/>
					<polygon class="st10" points="78.48,110.92 73.36,116.09 76.05,117.52 81.17,112.34 					"/>
					<polygon class="st12" points="81.17,112.34 76.05,117.52 78.74,118.94 83.85,113.77 					"/>
					<polygon class="st10" points="83.85,113.77 78.74,118.94 81.43,120.37 86.54,115.2 					"/>
					<polygon class="st12" points="86.54,115.2 81.43,120.37 84.12,121.8 89.23,116.63 					"/>
					<polygon class="st10" points="89.23,116.62 84.11,121.8 86.81,123.22 91.92,118.05 					"/>
					<polygon class="st12" points="91.92,118.05 86.8,123.22 89.5,124.65 94.61,119.48 					"/>
					<polygon class="st10" points="94.61,119.48 89.49,124.65 92.19,126.08 97.3,120.91 					"/>
					<path class="st12" d="M49.16,103.25c0,0,0.11,1.39,1.09,1.92c1.15,0.63,1.6-0.5,1.6-0.5L49.16,103.25z"/>
					<path class="st3" d="M51.84,104.67c0,0,0.11,1.39,1.09,1.92c1.15,0.63,1.6-0.5,1.6-0.5L51.84,104.67z"/>
					<path class="st12" d="M54.53,106.09c0,0,0.11,1.39,1.09,1.92c1.15,0.63,1.6-0.5,1.6-0.5L54.53,106.09z"/>
					<path class="st3" d="M57.22,107.51c0,0,0.11,1.39,1.09,1.92c1.15,0.63,1.6-0.5,1.6-0.5L57.22,107.51z"/>
					<path class="st12" d="M59.9,108.94c0,0,0.11,1.39,1.09,1.92c1.15,0.63,1.6-0.5,1.6-0.5L59.9,108.94z"/>
					<path class="st3" d="M62.59,110.36c0,0,0.11,1.39,1.09,1.92c1.15,0.63,1.6-0.5,1.6-0.5L62.59,110.36z"/>
					<path class="st12" d="M65.28,111.78c0,0,0.11,1.39,1.09,1.92c1.15,0.63,1.6-0.5,1.6-0.5L65.28,111.78z"/>
					<path class="st3" d="M67.97,113.21c0,0,0.11,1.39,1.09,1.92c1.15,0.63,1.6-0.5,1.6-0.5L67.97,113.21z"/>
					<path class="st12" d="M70.65,114.63c0,0,0.11,1.39,1.09,1.92c1.15,0.63,1.6-0.5,1.6-0.5L70.65,114.63z"/>
					<path class="st3" d="M73.34,116.05c0,0,0.11,1.39,1.09,1.92c1.15,0.63,1.6-0.5,1.6-0.5L73.34,116.05z"/>
					<path class="st12" d="M76.03,117.47c0,0,0.11,1.39,1.09,1.92c1.15,0.63,1.6-0.5,1.6-0.5L76.03,117.47z"/>
					<path class="st3" d="M78.71,118.9c0,0,0.11,1.39,1.09,1.92c1.15,0.63,1.6-0.5,1.6-0.5L78.71,118.9z"/>
					<path class="st12" d="M81.4,120.32c0,0,0.11,1.39,1.09,1.92c1.15,0.63,1.6-0.5,1.6-0.5L81.4,120.32z"/>
					<path class="st3" d="M84.09,121.74c0,0,0.11,1.39,1.09,1.92c1.15,0.63,1.6-0.5,1.6-0.5L84.09,121.74z"/>
					<path class="st12" d="M86.78,123.16c0,0,0.11,1.39,1.09,1.92c1.15,0.63,1.6-0.5,1.6-0.5L86.78,123.16z"/>
					<path class="st3" d="M89.46,124.59c0,0,0.11,1.39,1.09,1.92c1.15,0.63,1.6-0.5,1.6-0.5L89.46,124.59z"/>
				</g>
				<g>
					<polygon class="st13" points="62.99,95.29 63.36,94.89 82.2,104.98 82.36,110.51 82,110.9 					"/>
					<path class="st14" d="M63.36,94.89l0.16,5.53l18.84,10.08l-0.16-5.53L63.36,94.89z M70.47,101.67l1.14,0.61l0.02,0.79
						c0,0.06-0.01,0.09-0.03,0.1c-0.02,0.01-0.05,0.01-0.09-0.01c0.04,0.02,0.07,0.02,0.09,0.01c0.02-0.01,0.03-0.04,0.03-0.1
						l-0.02-0.79L70.47,101.67L70.47,101.67z M69.69,99.58l0.01,0.39l0,0L69.69,99.58z M69.75,102.23l0.13,0.06
						c0.05,0.02,0.09,0.02,0.11-0.01c-0.02,0.04-0.06,0.03-0.11,0.01L69.75,102.23l0.01,0.37l0,0L69.75,102.23z M67.53,100.99
						c0.05,0.03,0.1,0.07,0.16,0.09c0.06,0.03,0.11,0.05,0.16,0.07c-0.05-0.02-0.1-0.04-0.16-0.07
						C67.63,101.05,67.58,101.02,67.53,100.99z M68.08,101.15c-0.05,0.04-0.11,0.04-0.19,0.02
						C67.97,101.18,68.03,101.18,68.08,101.15z M68.03,99.98c-0.05-0.04-0.09-0.09-0.14-0.13c-0.08-0.07-0.15-0.13-0.21-0.19
						c-0.13-0.12-0.23-0.24-0.29-0.36c-0.03-0.06-0.04-0.13-0.05-0.2l0,0c0,0.07,0.02,0.14,0.05,0.2c0.06,0.13,0.16,0.24,0.29,0.36
						c0.07,0.06,0.14,0.12,0.21,0.19C67.94,99.89,67.99,99.93,68.03,99.98c0.09,0.09,0.18,0.18,0.27,0.28
						C68.22,100.16,68.13,100.06,68.03,99.98z M68.32,98.9c-0.19-0.17-0.38-0.3-0.58-0.41C67.94,98.59,68.13,98.73,68.32,98.9z
						 M67.36,98.34c-0.11-0.02-0.21-0.01-0.29,0.02C67.15,98.33,67.25,98.32,67.36,98.34z M70.38,102.93l0.36,0.19v0L70.38,102.93z
						 M72.36,103.61l-0.23-0.14L72.36,103.61L72.36,103.61z M72.3,100.98l-0.98-0.52L72.3,100.98L72.3,100.98z"/>
					<path class="st15" d="M62.99,95.29l0.16,5.53L82,110.9l-0.16-5.53L62.99,95.29z"/>
				</g>
				<path class="st16" d="M97.3,120.91l-2.69-1.43l0,0l-2.69-1.43l0,0l-2.69-1.43l0,0l-2.69-1.43l0,0l-2.69-1.43l0,0l-2.69-1.43l0,0
					l-2.69-1.43l0,0l-2.69-1.43l0,0l-2.69-1.43l0,0l-2.69-1.43l0,0l-2.69-1.43l0,0l-2.69-1.43l0,0l-2.69-1.43l0,0l-2.69-1.43l0,0
					l-2.69-1.43l0,0l-2.69-1.43l-5.12,5.17l0,0c0,0,0.11,1.39,1.09,1.92c1.13,0.62,1.58-0.44,1.6-0.49
					c0.01,0.06,0.14,1.39,1.09,1.91c1.13,0.62,1.58-0.44,1.6-0.49c0.01,0.06,0.14,1.39,1.09,1.91c1.13,0.62,1.58-0.44,1.6-0.49
					c0.01,0.06,0.14,1.39,1.09,1.91c1.13,0.62,1.58-0.44,1.6-0.49c0.01,0.06,0.14,1.39,1.09,1.91c1.13,0.62,1.58-0.44,1.6-0.49
					c0.01,0.06,0.14,1.39,1.09,1.91c1.12,0.61,1.57-0.43,1.6-0.48l0,0c0.01,0.08,0.14,1.39,1.09,1.91c1.11,0.61,1.57-0.41,1.6-0.48
					l0,0c0.01,0.1,0.15,1.39,1.09,1.9c1.1,0.61,1.56-0.39,1.6-0.48l0,0c0.01,0.12,0.16,1.39,1.09,1.9c1.09,0.6,1.55-0.38,1.59-0.48
					l0.01,0c0.01,0.14,0.16,1.39,1.09,1.9c1.09,0.6,1.54-0.36,1.59-0.47l0.01,0c0.02,0.15,0.17,1.39,1.09,1.89
					c1.08,0.59,1.54-0.34,1.59-0.47l0.01,0.01c0.02,0.17,0.18,1.39,1.08,1.89c1.07,0.59,1.53-0.33,1.59-0.47l0.01,0.01
					c0.02,0.18,0.18,1.39,1.08,1.88c1.06,0.58,1.52-0.32,1.59-0.47l0.01,0.01c0.02,0.2,0.19,1.39,1.08,1.88
					c1.05,0.58,1.51-0.3,1.59-0.46l0.02,0.01c0.02,0.21,0.2,1.39,1.08,1.88c1.04,0.57,1.51-0.29,1.59-0.46l0.02,0.01
					c0.03,0.23,0.21,1.39,1.08,1.87c1.04,0.57,1.5-0.28,1.59-0.46l0.05,0.03L97.3,120.91z M54.53,106.09L54.53,106.09"/>
			</g>
			<g>
				<g>
					<polygon class="st5" points="122.71,124.71 101.44,138 99.51,174.02 112.57,181.66 138.04,164.3 134.94,125.76 130.02,126.95 
						126.36,122.53 					"/>
					<polygon class="st6" points="101.44,138 105.39,145.11 111.67,141.2 112.57,181.66 99.51,174.02 					"/>
					<polygon class="st6" points="111.67,141.2 134.94,125.76 138.04,164.3 112.57,181.66 					"/>
					<path class="st9" d="M121.5,142.8c-0.12,0.97-0.65,1.7-1.2,1.63c-0.55-0.07-0.9-0.9-0.78-1.87c0.12-0.97,0.65-1.7,1.2-1.63
						C121.27,141,121.62,141.83,121.5,142.8z"/>
					<path class="st9" d="M129.13,137.74c-0.12,0.97-0.65,1.7-1.2,1.63c-0.55-0.07-0.9-0.9-0.78-1.87c0.12-0.97,0.65-1.7,1.2-1.63
						C128.9,135.94,129.25,136.77,129.13,137.74z"/>
					<polygon class="st8" points="99.51,174.02 106.03,171.34 112.57,181.66 					"/>
					<polyline class="st5" points="126.36,122.53 126.64,131.26 111.67,141.2 105.39,145.11 101.44,138 126.36,122.53 					"/>
				</g>
				<g>
					<path class="st9" d="M124.89,151.92c-0.48,0.02-0.93-0.11-1.36-0.38c-2.67-1.68-3.33-8.53-3.35-8.83l0.66-0.06
						c0.01,0.07,0.65,6.82,3.04,8.32c0.5,0.32,1.04,0.36,1.64,0.14c3.23-1.19,2.74-10.11,2.28-13.45l0.66-0.09
						c0.07,0.51,1.68,12.54-2.71,14.16C125.46,151.85,125.17,151.91,124.89,151.92z"/>
				</g>
			</g>
			<g>
				<g>
					<polygon class="st5" points="145.65,130.52 126.23,142.66 124.47,175.54 136.39,182.51 159.65,166.67 156.81,131.48 
						152.32,132.56 148.98,128.52 					"/>
					<polygon class="st17" points="126.23,142.66 129.84,149.14 135.57,145.58 136.39,182.51 124.47,175.54 					"/>
					<polygon class="st17" points="135.57,145.58 156.81,131.48 159.65,166.67 136.39,182.51 					"/>
					<path class="st9" d="M144.55,147.03c-0.11,0.88-0.6,1.55-1.1,1.49c-0.5-0.06-0.82-0.82-0.72-1.71c0.11-0.88,0.6-1.55,1.1-1.49
						C144.33,145.39,144.65,146.15,144.55,147.03z"/>
					<path class="st9" d="M151.51,142.41c-0.11,0.88-0.6,1.55-1.1,1.49c-0.5-0.06-0.82-0.82-0.72-1.71c0.11-0.88,0.6-1.55,1.1-1.49
						C151.3,140.77,151.62,141.53,151.51,142.41z"/>
					<polygon class="st18" points="124.47,175.54 130.42,173.09 136.39,182.51 					"/>
					<polyline class="st5" points="148.98,128.52 149.24,136.5 135.57,145.58 129.84,149.14 126.23,142.66 148.98,128.52 					"/>
				</g>
				<g>
					<path class="st9" d="M147.64,155.36c-0.44,0.01-0.85-0.1-1.24-0.35c-2.43-1.53-3.04-7.79-3.06-8.06l0.61-0.06
						c0.01,0.06,0.6,6.22,2.78,7.6c0.46,0.29,0.95,0.33,1.5,0.13c2.95-1.09,2.5-9.23,2.08-12.28l0.6-0.08
						c0.06,0.47,1.53,11.45-2.47,12.93C148.16,155.3,147.9,155.35,147.64,155.36z"/>
				</g>
			</g>
		</g>
	</g>
</g>
</svg>
