<?xml version="1.0" encoding="utf-8"?>
<!-- Generator: Adobe Illustrator 23.0.1, SVG Export Plug-In . SVG Version: 6.00 Build 0)  -->
<svg version="1.1" id="Layer_1" xmlns="http://www.w3.org/2000/svg" xmlns:xlink="http://www.w3.org/1999/xlink" x="0px" y="0px"
	 viewBox="0 0 220 220" style="enable-background:new 0 0 220 220;" xml:space="preserve">
<style type="text/css">
	.st0{fill:#FFFFFF;stroke:#000000;stroke-width:1.5;stroke-linecap:round;stroke-linejoin:round;stroke-miterlimit:10;}
	.st1{fill:#336A43;stroke:#000000;stroke-width:1.5;stroke-linecap:round;stroke-linejoin:round;stroke-miterlimit:10;}
	.st2{fill:#BCBEC0;}
	.st3{fill:#FFFFFF;}
	.st4{fill:#336A43;stroke:#000000;stroke-width:1.4193;stroke-linecap:round;stroke-linejoin:round;stroke-miterlimit:10;}
	.st5{fill:#BCBEC0;stroke:#000000;stroke-width:1.2589;stroke-linecap:round;stroke-linejoin:round;stroke-miterlimit:10;}
	.st6{fill:#FFFFFF;stroke:#000000;stroke-width:1.4193;stroke-linecap:round;stroke-linejoin:round;stroke-miterlimit:10;}
	.st7{fill:#2E6840;stroke:#000000;stroke-width:1.2589;stroke-linecap:round;stroke-linejoin:round;stroke-miterlimit:10;}
	.st8{fill:#FFFFFF;stroke:#000000;stroke-width:1.2589;stroke-linecap:round;stroke-linejoin:round;stroke-miterlimit:10;}
</style>
<g>
	<g>
		<g>
			<g>
				<path class="st0" d="M90.02,87.22L8.05,134.54l121.92,70.85l81.97-47.32L90.02,87.22z"/>
				<g>
					<polygon class="st1" points="8.05,134.54 8.07,140.15 129.98,211 129.97,205.39 					"/>
				</g>
				<g>
					<polygon class="st1" points="129.97,205.39 129.98,211 211.95,163.68 211.93,158.07 					"/>
				</g>
			</g>
		</g>
		<g>
			<path id="XMLID_313_" class="st2" d="M100.64,106.2l-59.11,34.78c-2.84,1.67-7.81,1.5-11.12-0.37l-4.83-2.73
				c-3.31-1.87-3.69-4.74-0.85-6.41l59.11-34.78c2.84-1.67,7.81-1.5,11.12,0.37l4.83,2.73C103.1,101.67,103.48,104.54,100.64,106.2z
				"/>
			<path id="XMLID_308_" class="st2" d="M65.86,150.09l-7.08,4.17c-1.57,0.92-4.32,0.83-6.15-0.2l-5.61-3.18
				c-1.83-1.03-2.04-2.62-0.47-3.54l7.08-4.17c1.57-0.92,4.32-0.83,6.15,0.2l5.61,3.18C67.22,147.58,67.43,149.17,65.86,150.09z"/>
			<path id="XMLID_303_" class="st2" d="M84.74,138.99l-7.08,4.17c-1.57,0.92-4.32,0.83-6.15-0.2l-5.61-3.18
				c-1.83-1.04-2.04-2.62-0.47-3.54l7.08-4.17c1.57-0.92,4.32-0.83,6.15,0.2l5.61,3.18C86.09,136.48,86.3,138.06,84.74,138.99z"/>
			<path id="XMLID_298_" class="st2" d="M103.61,127.88l-7.08,4.17c-1.57,0.92-4.32,0.83-6.15-0.2l-5.61-3.18
				c-1.83-1.04-2.04-2.62-0.47-3.54l7.08-4.17c1.57-0.92,4.32-0.83,6.15,0.2l5.61,3.18C104.97,125.37,105.18,126.96,103.61,127.88z"
				/>
			<path id="XMLID_293_" class="st2" d="M122.48,116.78l-7.08,4.17c-1.57,0.92-4.32,0.83-6.15-0.2l-5.61-3.18
				c-1.83-1.04-2.04-2.62-0.47-3.54l7.08-4.17c1.57-0.92,4.32-0.83,6.15,0.2l5.61,3.18C123.84,114.27,124.05,115.85,122.48,116.78z"
				/>
			<path id="XMLID_288_" class="st2" d="M84.42,160.6l-7.08,4.17c-1.57,0.92-4.32,0.83-6.15-0.2l-5.61-3.18
				c-1.83-1.04-2.04-2.62-0.47-3.54l7.08-4.17c1.57-0.92,4.32-0.83,6.15,0.2l5.61,3.18C85.77,158.09,85.98,159.68,84.42,160.6z"/>
			<path id="XMLID_283_" class="st2" d="M103.29,149.5l-7.08,4.17c-1.57,0.92-4.32,0.83-6.15-0.2l-5.61-3.18
				c-1.83-1.03-2.04-2.62-0.47-3.54l7.08-4.17c1.57-0.92,4.32-0.83,6.15,0.2l5.61,3.18C104.65,146.99,104.86,148.57,103.29,149.5z"
				/>
			<path id="XMLID_278_" class="st2" d="M122.16,138.39l-7.08,4.17c-1.57,0.92-4.32,0.83-6.15-0.2l-5.61-3.18
				c-1.83-1.04-2.04-2.62-0.47-3.54l7.08-4.17c1.57-0.92,4.32-0.83,6.15,0.2l5.61,3.18C123.52,135.88,123.73,137.47,122.16,138.39z"
				/>
			<path id="XMLID_273_" class="st2" d="M141.04,127.28l-7.08,4.17c-1.57,0.92-4.32,0.83-6.15-0.2l-5.61-3.18
				c-1.83-1.04-2.04-2.62-0.47-3.54l7.08-4.17c1.57-0.92,4.32-0.83,6.15,0.2l5.61,3.18C142.39,124.77,142.6,126.36,141.04,127.28z"
				/>
			<path id="XMLID_268_" class="st2" d="M103.12,171.19l-7.08,4.17c-1.57,0.92-4.32,0.83-6.15-0.2l-5.61-3.18
				c-1.83-1.04-2.04-2.62-0.47-3.54l7.08-4.17c1.57-0.92,4.32-0.83,6.15,0.2l5.61,3.18C104.47,168.68,104.69,170.27,103.12,171.19z"
				/>
			<path id="XMLID_263_" class="st2" d="M121.99,160.09l-7.08,4.17c-1.57,0.92-4.32,0.83-6.15-0.2l-5.61-3.18
				c-1.83-1.04-2.04-2.62-0.47-3.54l7.08-4.17c1.57-0.92,4.32-0.83,6.15,0.2l5.61,3.18C123.35,157.58,123.56,159.17,121.99,160.09z"
				/>
			<path id="XMLID_258_" class="st2" d="M140.86,148.98l-7.08,4.17c-1.57,0.92-4.32,0.83-6.15-0.2l-5.61-3.18
				c-1.83-1.04-2.04-2.62-0.47-3.54l7.08-4.17c1.57-0.92,4.32-0.83,6.15,0.2l5.61,3.18C142.22,146.47,142.43,148.06,140.86,148.98z"
				/>
			<path id="XMLID_253_" class="st2" d="M159.74,137.88l-7.08,4.17c-1.57,0.92-4.32,0.83-6.15-0.2l-5.61-3.18
				c-1.83-1.04-2.04-2.62-0.47-3.54l7.08-4.17c1.57-0.92,4.32-0.83,6.15,0.2l5.61,3.18C161.09,135.37,161.31,136.95,159.74,137.88z"
				/>
			<path id="XMLID_248_" class="st2" d="M121.67,181.7l-7.08,4.17c-1.57,0.92-4.32,0.83-6.15-0.2l-5.61-3.18
				c-1.83-1.04-2.04-2.62-0.47-3.54l7.08-4.17c1.57-0.92,4.32-0.83,6.15,0.2l5.61,3.18C123.03,179.19,123.24,180.78,121.67,181.7z"
				/>
			<path id="XMLID_243_" class="st2" d="M140.54,170.6l-7.08,4.17c-1.57,0.92-4.32,0.83-6.15-0.2l-5.61-3.18
				c-1.83-1.04-2.04-2.62-0.47-3.54l7.08-4.17c1.57-0.92,4.32-0.83,6.15,0.2l5.61,3.18C141.9,168.09,142.11,169.67,140.54,170.6z"/>
			<path id="XMLID_238_" class="st2" d="M159.42,159.49l-7.08,4.17c-1.57,0.92-4.32,0.83-6.15-0.2l-5.61-3.18
				c-1.83-1.04-2.04-2.62-0.47-3.54l7.08-4.17c1.57-0.92,4.32-0.83,6.15,0.2l5.61,3.18C160.77,156.98,160.99,158.57,159.42,159.49z"
				/>
			<path id="XMLID_233_" class="st2" d="M178.29,148.38l-7.08,4.17c-1.57,0.92-4.32,0.83-6.15-0.2l-5.61-3.18
				c-1.83-1.04-2.04-2.62-0.47-3.54l7.08-4.17c1.57-0.92,4.32-0.83,6.15,0.2l5.61,3.18C179.65,145.88,179.86,147.46,178.29,148.38z"
				/>
			<path id="XMLID_45_" class="st2" d="M140.71,191.89l-7.08,4.17c-1.57,0.92-4.32,0.83-6.15-0.2l-5.61-3.18
				c-1.83-1.04-2.04-2.62-0.47-3.54l7.08-4.17c1.57-0.92,4.32-0.83,6.15,0.2l5.61,3.18C142.07,189.38,142.28,190.97,140.71,191.89z"
				/>
			<path id="XMLID_44_" class="st2" d="M159.59,180.78l-7.08,4.17c-1.57,0.92-4.32,0.83-6.15-0.2l-5.61-3.18
				c-1.83-1.04-2.04-2.62-0.47-3.54l7.08-4.17c1.57-0.92,4.32-0.83,6.15,0.2l5.61,3.18C160.94,178.28,161.16,179.86,159.59,180.78z"
				/>
			<path id="XMLID_43_" class="st2" d="M178.46,169.68l-7.08,4.17c-1.57,0.92-4.32,0.83-6.15-0.2l-5.61-3.18
				c-1.83-1.04-2.04-2.62-0.47-3.54l7.08-4.17c1.57-0.92,4.32-0.83,6.15,0.2l5.61,3.18C179.82,167.17,180.03,168.76,178.46,169.68z"
				/>
			<path id="XMLID_42_" class="st2" d="M197.33,158.57l-7.08,4.17c-1.57,0.92-4.32,0.83-6.15-0.2l-5.61-3.18
				c-1.83-1.04-2.04-2.62-0.47-3.54l7.08-4.17c1.57-0.92,4.32-0.83,6.15,0.2l5.61,3.18C198.69,156.06,198.9,157.65,197.33,158.57z"
				/>
		</g>
	</g>
	<g>
		<path class="st3" d="M60.67,145.75l0.13,0.06c0.48,0.22,0.45,0.63-0.05,0.93l-7.22,4.22c-0.51,0.3-1.3,0.36-1.78,0.14l-0.13-0.06
			c-0.48-0.22-0.45-0.63,0.05-0.93l7.22-4.22C59.4,145.6,60.2,145.53,60.67,145.75z"/>
		<path class="st3" d="M60.49,151.05l-0.12,0.07c-0.46,0.25-1.21,0.2-1.68-0.09l-6.73-4.25c-0.47-0.3-0.48-0.74-0.03-0.98l0.12-0.07
			c0.46-0.25,1.21-0.2,1.68,0.09l6.73,4.25C60.94,150.36,60.95,150.81,60.49,151.05z"/>
	</g>
	<path class="st3" d="M79.35,155.53l0.13,0.06c0.48,0.22,0.45,0.63-0.05,0.93l-7.22,4.22c-0.51,0.3-1.3,0.36-1.78,0.14l-0.13-0.06
		c-0.48-0.22-0.45-0.63,0.05-0.93l7.22-4.22C78.08,155.38,78.87,155.31,79.35,155.53z"/>
	<g>
		<path class="st3" d="M99.61,168.95l-0.07,0.15c-0.28,0.55-1.04,1.03-1.71,1.07l-9.53,0.53c-0.67,0.04-0.99-0.38-0.71-0.93
			l0.07-0.15c0.28-0.55,1.04-1.03,1.71-1.07l9.53-0.53C99.57,167.98,99.88,168.4,99.61,168.95z"/>
		<path class="st3" d="M93.32,173.8l-0.14-0.07c-0.52-0.26-0.91-0.86-0.87-1.34l0.54-6.91c0.04-0.48,0.49-0.67,1.01-0.41l0.14,0.07
			c0.52,0.26,0.91,0.86,0.87,1.34l-0.54,6.91C94.29,173.87,93.84,174.06,93.32,173.8z"/>
	</g>
	<g>
		<path class="st3" d="M117.1,176.73l0.13,0.06c0.48,0.22,0.45,0.63-0.05,0.93l-7.22,4.22c-0.51,0.3-1.3,0.36-1.78,0.14l-0.13-0.06
			c-0.48-0.22-0.45-0.63,0.05-0.93l7.22-4.22C115.82,176.58,116.62,176.51,117.1,176.73z"/>
		<ellipse class="st3" cx="109.6" cy="177.69" rx="1.51" ry="0.88"/>
		<ellipse class="st3" cx="115.52" cy="181.33" rx="1.51" ry="0.88"/>
	</g>
	<g>
		<g>
			<polygon class="st1" points="87.97,108.63 87.97,82.05 97.38,102.47 104.29,97.04 114.01,110.94 135.62,93.48 140.41,103.06 
				175.1,58.95 170.96,154.65 			"/>
			<polygon class="st1" points="175.1,58.95 183.64,54.99 180.59,148.71 170.96,154.65 			"/>
			<polygon class="st1" points="87.97,82.05 95,77.64 104.29,97.04 97.38,102.47 			"/>
			<polygon class="st1" points="104.29,97.04 111.77,91.62 121.19,105.23 114.01,110.94 			"/>
			<polygon class="st1" points="135.62,93.48 140.41,103.06 145.15,97.04 141.18,88.62 			"/>
		</g>
		<g>
			<g>
				<path class="st4" d="M64.05,141.51l0.03,5.29l18.66,10.85l37.5-21.65l-0.03-5.29l-18.66-10.85"/>
				<g>
					
						<ellipse transform="matrix(1 -2.836179e-03 2.836179e-03 1 -0.3857 0.2618)" class="st4" cx="92.13" cy="136.11" rx="7.9" ry="4.58"/>
				</g>
				<g>
					<path class="st4" d="M97.25,124.62c2.35,1.37,6.18,1.37,8.54,0l6.22,3.62c-2.37,1.37-2.38,3.58-0.03,4.95L87.01,147.6
						c-2.35-1.37-6.17-1.37-8.54,0l-6.22-3.62c2.36-1.37,2.38-3.58,0.03-4.95L97.25,124.62z M97.7,139.34
						c3.09-1.79,3.11-4.68,0.04-6.47c-3.07-1.79-8.08-1.79-11.17,0c-3.1,1.79-3.11,4.68-0.04,6.47
						C89.6,141.13,94.6,141.13,97.7,139.34"/>
				</g>
				<g>
					<path class="st4" d="M120.21,130.7l-37.5,21.65l-18.66-10.85l37.5-21.65L120.21,130.7z M78.47,147.6
						c2.37-1.36,6.19-1.36,8.54,0l24.98-14.42c-2.35-1.37-2.34-3.58,0.03-4.95l-6.22-3.62c-2.37,1.37-6.19,1.37-8.54,0l-24.98,14.42
						c2.35,1.37,2.34,3.58-0.03,4.95L78.47,147.6"/>
				</g>
				<g>
					<polygon class="st4" points="80.23,132.16 98.89,143.01 104.6,139.71 85.94,128.86 					"/>
				</g>
				<g>
					<polygon class="st5" points="98.91,143.01 98.93,148.3 104.65,145 104.62,139.71 					"/>
				</g>
				<polygon class="st4" points="82.71,152.36 82.71,157.64 64.07,146.8 64.07,141.51 				"/>
			</g>
			<g>
				<path class="st4" d="M63.64,136.94l0.03,5.29l18.66,10.85l37.5-21.65l-0.03-5.29l-18.66-10.85"/>
				<g>
					
						<ellipse transform="matrix(1 -2.834363e-03 2.834363e-03 1 -0.3725 0.2605)" class="st4" cx="91.73" cy="131.54" rx="7.9" ry="4.58"/>
				</g>
				<g>
					<path class="st4" d="M96.85,120.05c2.35,1.37,6.18,1.37,8.54,0l6.22,3.62c-2.37,1.37-2.38,3.58-0.03,4.95L86.6,143.03
						c-2.35-1.37-6.17-1.37-8.54,0l-6.22-3.62c2.36-1.37,2.38-3.58,0.03-4.95L96.85,120.05z M97.29,134.77
						c3.09-1.79,3.11-4.68,0.04-6.47c-3.07-1.79-8.08-1.79-11.17,0c-3.1,1.79-3.11,4.68-0.04,6.47
						C89.2,136.56,94.2,136.56,97.29,134.77"/>
				</g>
				<g>
					<path class="st4" d="M119.81,126.14l-37.5,21.65l-18.66-10.85l37.5-21.65L119.81,126.14z M78.06,143.03
						c2.37-1.36,6.19-1.36,8.54,0l24.98-14.42c-2.35-1.37-2.34-3.58,0.03-4.95l-6.22-3.62c-2.37,1.37-6.19,1.37-8.54,0l-24.98,14.42
						c2.35,1.37,2.34,3.58-0.03,4.95L78.06,143.03"/>
				</g>
				<g>
					<polygon class="st4" points="79.82,127.59 98.49,138.44 104.2,135.14 85.54,124.29 					"/>
				</g>
				<g>
					<polygon class="st5" points="98.5,138.44 98.53,143.73 104.24,140.43 104.22,135.14 					"/>
				</g>
				<polygon class="st4" points="82.31,147.79 82.31,153.07 63.67,142.23 63.67,136.94 				"/>
			</g>
			<g>
				<path class="st4" d="M62.82,132.06l0.03,5.29l18.66,10.85l37.5-21.65l-0.03-5.29l-18.66-10.85"/>
				<g>
					
						<ellipse transform="matrix(1 -2.836179e-03 2.836179e-03 1 -0.3588 0.2583)" class="st4" cx="90.91" cy="126.65" rx="7.9" ry="4.58"/>
				</g>
				<g>
					<path class="st6" d="M96.03,115.16c2.35,1.37,6.18,1.37,8.54,0l6.22,3.62c-2.37,1.37-2.38,3.58-0.03,4.95l-24.98,14.42
						c-2.35-1.37-6.17-1.37-8.54,0l-6.22-3.62c2.36-1.37,2.38-3.58,0.03-4.95L96.03,115.16z M96.47,129.89
						c3.09-1.79,3.11-4.68,0.04-6.47c-3.07-1.79-8.08-1.79-11.17,0c-3.1,1.79-3.11,4.68-0.04,6.47
						C88.38,131.68,93.38,131.68,96.47,129.89"/>
				</g>
				<g>
					<path class="st4" d="M118.99,121.25l-37.5,21.65l-18.66-10.85l37.5-21.65L118.99,121.25z M77.24,138.15
						c2.37-1.36,6.19-1.36,8.54,0l24.98-14.42c-2.35-1.37-2.34-3.58,0.03-4.95l-6.22-3.62c-2.37,1.37-6.19,1.37-8.54,0l-24.98,14.42
						c2.35,1.37,2.34,3.58-0.03,4.95L77.24,138.15"/>
				</g>
				<g>
					<polygon class="st5" points="79,122.71 97.67,133.55 103.38,130.25 84.72,119.41 					"/>
				</g>
				<g>
					<polygon class="st5" points="97.68,133.56 97.71,138.84 103.42,135.55 103.4,130.26 					"/>
				</g>
				<polygon class="st4" points="81.49,142.9 81.49,148.19 62.85,137.34 62.85,132.06 				"/>
			</g>
		</g>
		<g>
			<g>
				<path class="st4" d="M118.69,147.5l-20.44,10.14l-0.15,5.17l40.1,22.1l20.44-10.14l0.15-5.17"/>
				<g>
					
						<ellipse transform="matrix(0.0252 -0.9997 0.9997 0.0252 -38.2861 287.9909)" class="st4" cx="128.52" cy="163.63" rx="4.48" ry="8.55"/>
				</g>
				<g>
					<path class="st4" d="M149.95,166.98c-2.57,1.28-2.61,3.44-0.08,4.84l-6.81,3.38c-2.53-1.39-6.67-1.49-9.24-0.21l-26.71-14.72
						c2.58-1.28,2.61-3.44,0.08-4.84l6.81-3.38c2.53,1.39,6.67,1.49,9.24,0.21L149.95,166.98z M122.43,166.65
						c3.31,1.82,8.72,1.95,12.09,0.28c3.37-1.67,3.42-4.5,0.11-6.33c-3.31-1.82-8.72-1.95-12.09-0.28
						C119.16,162,119.12,164.83,122.43,166.65"/>
				</g>
				<g>
					<path class="st4" d="M118.69,147.5l40.1,22.1l-20.44,10.14l-40.1-22.1L118.69,147.5z M143.05,175.2l6.81-3.38
						c-2.53-1.39-2.49-3.56,0.08-4.84l-26.71-14.72c-2.58,1.28-6.71,1.18-9.24-0.21l-6.81,3.38c2.53,1.39,2.5,3.56-0.08,4.84
						l26.71,14.72C136.39,173.71,140.52,173.81,143.05,175.2"/>
				</g>
				<g>
					<polygon class="st4" points="141.49,160.06 121.05,170.21 114.94,166.84 135.38,156.69 					"/>
				</g>
				<g>
					<polygon class="st5" points="121.04,170.21 120.89,175.38 114.78,172.01 114.93,166.84 					"/>
				</g>
				<polygon class="st4" points="138.35,179.75 138.24,184.92 158.65,174.77 158.77,169.6 				"/>
			</g>
			<g>
				<path class="st4" d="M117.03,143.07l-20.44,10.14l-0.15,5.17l40.1,22.1l20.44-10.14l0.15-5.17"/>
				<g>
					
						<ellipse transform="matrix(0.0252 -0.9997 0.9997 0.0252 -35.4733 282.0049)" class="st4" cx="126.86" cy="159.19" rx="4.48" ry="8.55"/>
				</g>
				<g>
					<path class="st4" d="M148.29,162.55c-2.57,1.28-2.61,3.44-0.08,4.84l-6.81,3.38c-2.53-1.39-6.67-1.49-9.24-0.21l-26.71-14.72
						c2.58-1.28,2.61-3.44,0.08-4.84l6.81-3.38c2.53,1.39,6.67,1.49,9.24,0.21L148.29,162.55z M120.76,162.22
						c3.31,1.82,8.72,1.95,12.09,0.28c3.37-1.67,3.42-4.5,0.11-6.33c-3.31-1.82-8.72-1.95-12.09-0.28
						C117.5,157.56,117.45,160.39,120.76,162.22"/>
				</g>
				<g>
					<path class="st4" d="M117.03,143.07l40.1,22.1l-20.44,10.14l-40.1-22.1L117.03,143.07z M141.39,170.77l6.81-3.38
						c-2.53-1.39-2.49-3.56,0.08-4.84l-26.71-14.72c-2.58,1.28-6.71,1.18-9.24-0.21l-6.81,3.38c2.53,1.39,2.5,3.56-0.08,4.84
						l26.71,14.72C134.72,169.28,138.86,169.37,141.39,170.77"/>
				</g>
				<g>
					<polygon class="st4" points="139.83,155.63 119.39,165.77 113.28,162.4 133.72,152.26 					"/>
				</g>
				<g>
					<polygon class="st5" points="119.37,165.78 119.23,170.94 113.12,167.58 113.26,162.41 					"/>
				</g>
				<polygon class="st4" points="136.69,175.31 136.57,180.48 156.99,170.34 157.1,165.17 				"/>
			</g>
			<g>
				<path class="st4" d="M117.14,138.36L96.7,148.5l-0.15,5.17l40.1,22.1l20.44-10.14l0.15-5.17"/>
				<g>
					
						<ellipse transform="matrix(0.0252 -0.9997 0.9997 0.0252 -30.6602 277.5212)" class="st4" cx="126.97" cy="154.48" rx="4.48" ry="8.55"/>
				</g>
				<g>
					<path class="st4" d="M148.39,157.84c-2.57,1.28-2.61,3.44-0.08,4.84l-6.81,3.38c-2.53-1.39-6.67-1.49-9.24-0.21l-26.71-14.72
						c2.58-1.28,2.61-3.44,0.08-4.84l6.81-3.38c2.53,1.39,6.67,1.49,9.24,0.21L148.39,157.84z M120.87,157.51
						c3.31,1.82,8.72,1.95,12.09,0.28c3.37-1.67,3.42-4.5,0.11-6.33c-3.31-1.82-8.72-1.95-12.09-0.28
						C117.61,152.85,117.56,155.68,120.87,157.51"/>
				</g>
				<g>
					<path class="st4" d="M117.14,138.36l40.1,22.1L136.8,170.6l-40.1-22.1L117.14,138.36z M141.5,166.06l6.81-3.38
						c-2.53-1.39-2.49-3.56,0.08-4.84l-26.71-14.72c-2.58,1.28-6.71,1.18-9.24-0.21l-6.81,3.38c2.53,1.39,2.5,3.56-0.08,4.84
						l26.71,14.72C134.83,164.57,138.97,164.66,141.5,166.06"/>
				</g>
				<g>
					<polygon class="st4" points="139.94,150.92 119.5,161.06 113.39,157.69 133.83,147.55 					"/>
				</g>
				<g>
					<polygon class="st5" points="119.48,161.07 119.33,166.23 113.22,162.87 113.37,157.7 					"/>
				</g>
				<polygon class="st4" points="136.8,170.6 136.68,175.77 157.09,165.63 157.21,160.46 				"/>
			</g>
			<g>
				<path class="st4" d="M119.72,134.73l-20.44,10.14l-0.15,5.17l40.1,22.1l20.44-10.14l0.15-5.17"/>
				<g>
					
						<ellipse transform="matrix(0.0252 -0.9997 0.9997 0.0252 -24.5061 276.5651)" class="st4" cx="129.55" cy="150.85" rx="4.48" ry="8.55"/>
				</g>
				<g>
					<path class="st4" d="M150.98,154.2c-2.57,1.28-2.61,3.44-0.08,4.84l-6.81,3.38c-2.53-1.39-6.67-1.49-9.24-0.21l-26.71-14.72
						c2.58-1.28,2.61-3.44,0.08-4.84l6.81-3.38c2.53,1.39,6.67,1.49,9.24,0.21L150.98,154.2z M123.46,153.87
						c3.31,1.82,8.72,1.95,12.09,0.28c3.37-1.67,3.42-4.5,0.11-6.33c-3.31-1.82-8.72-1.95-12.09-0.28
						C120.2,149.22,120.15,152.05,123.46,153.87"/>
				</g>
				<g>
					<path class="st4" d="M119.72,134.73l40.1,22.1l-20.44,10.14l-40.1-22.1L119.72,134.73z M144.09,162.42l6.81-3.38
						c-2.53-1.39-2.49-3.56,0.08-4.84l-26.71-14.72c-2.58,1.28-6.71,1.18-9.24-0.21l-6.81,3.38c2.53,1.39,2.5,3.56-0.08,4.84
						l26.71,14.72C137.42,160.94,141.55,161.03,144.09,162.42"/>
				</g>
				<g>
					<polygon class="st4" points="142.53,147.28 122.08,157.43 115.98,154.06 136.42,143.92 					"/>
				</g>
				<g>
					<polygon class="st5" points="122.07,157.43 121.92,162.6 115.81,159.23 115.96,154.07 					"/>
				</g>
				<polygon class="st4" points="139.39,166.97 139.27,172.14 159.68,161.99 159.8,156.82 				"/>
			</g>
			<g>
				<path class="st4" d="M119.85,129.69l-20.44,10.14l-0.15,5.17l40.1,22.1l20.44-10.14l0.15-5.17"/>
				<g>
					
						<ellipse transform="matrix(0.0252 -0.9997 0.9997 0.0252 -19.3481 271.7885)" class="st7" cx="129.68" cy="145.81" rx="4.48" ry="8.55"/>
				</g>
				<g>
					<path class="st8" d="M151.11,149.17c-2.57,1.28-2.61,3.44-0.08,4.84l-6.81,3.38c-2.53-1.39-6.67-1.49-9.24-0.21l-26.71-14.72
						c2.58-1.28,2.61-3.44,0.08-4.84l6.81-3.38c2.53,1.39,6.67,1.49,9.24,0.21L151.11,149.17z M123.59,148.84
						c3.31,1.82,8.72,1.95,12.09,0.28c3.37-1.67,3.42-4.5,0.11-6.33c-3.31-1.82-8.72-1.95-12.09-0.28
						C120.33,144.18,120.28,147.02,123.59,148.84"/>
				</g>
				<g>
					<path class="st4" d="M119.85,129.69l40.1,22.1l-20.44,10.14l-40.1-22.1L119.85,129.69z M144.22,157.39l6.81-3.38
						c-2.53-1.39-2.49-3.56,0.08-4.84l-26.71-14.72c-2.58,1.28-6.71,1.18-9.24-0.21l-6.81,3.38c2.53,1.39,2.5,3.56-0.08,4.84
						l26.71,14.72C137.55,155.9,141.68,156,144.22,157.39"/>
				</g>
				<g>
					<polygon class="st5" points="142.66,142.25 122.21,152.39 116.11,149.03 136.55,138.88 					"/>
				</g>
				<g>
					<polygon class="st5" points="122.2,152.4 122.05,157.57 115.94,154.2 116.09,149.03 					"/>
				</g>
				<polygon class="st4" points="139.52,161.94 139.4,167.11 159.81,156.96 159.93,151.79 				"/>
			</g>
		</g>
	</g>
</g>
</svg>
