<?xml version="1.0" encoding="utf-8"?>
<!-- Generator: Adobe Illustrator 23.0.1, SVG Export Plug-In . SVG Version: 6.00 Build 0)  -->
<svg version="1.1" id="Layer_1" xmlns="http://www.w3.org/2000/svg" xmlns:xlink="http://www.w3.org/1999/xlink" x="0px" y="0px"
	 viewBox="0 0 220 220" style="enable-background:new 0 0 220 220;" xml:space="preserve">
<style type="text/css">
	.st0{fill:#FFFFFF;stroke:#231F20;stroke-width:1.5;stroke-linecap:round;stroke-linejoin:round;stroke-miterlimit:10;}
	.st1{fill:#FFFFFF;stroke:#2E6941;stroke-width:1.9506;stroke-linecap:round;stroke-linejoin:round;stroke-miterlimit:10;}
	.st2{fill:none;stroke:#2E6941;stroke-width:0.9753;stroke-linecap:round;stroke-linejoin:round;stroke-miterlimit:10;}
	.st3{fill:#2E6941;stroke:#FFFFFF;stroke-width:0.3768;stroke-linecap:round;stroke-linejoin:round;stroke-miterlimit:10;}
	.st4{fill:#BBBDBF;}
	.st5{fill:#2E6840;}
	.st6{fill:#336B43;stroke:#231F20;stroke-width:1.4193;stroke-linecap:round;stroke-linejoin:round;stroke-miterlimit:10;}
	.st7{fill:#282B42;stroke:#231F20;stroke-width:1.5552;stroke-linecap:round;stroke-linejoin:round;stroke-miterlimit:10;}
	.st8{fill:#BBBDBF;stroke:#231F20;stroke-width:1.5552;stroke-linecap:round;stroke-linejoin:round;stroke-miterlimit:10;}
	.st9{fill:#FFFFFF;}
	.st10{fill:#343751;stroke:#231F20;stroke-width:1.5552;stroke-linecap:round;stroke-linejoin:round;stroke-miterlimit:10;}
	.st11{fill:#FFFFFF;stroke:#231F20;stroke-width:1.5552;stroke-linecap:round;stroke-linejoin:round;stroke-miterlimit:10;}
	.st12{fill:#2E6840;stroke:#231F20;stroke-width:1.5552;stroke-linecap:round;stroke-linejoin:round;stroke-miterlimit:10;}
	.st13{fill:#231F20;}
</style>
<g>
	<g>
		<g>
			<path class="st0" d="M90.02,87.22L8.05,134.54l121.92,70.85l81.97-47.32L90.02,87.22z"/>
			<g>
				<polygon class="st0" points="8.05,134.54 8.07,140.15 129.98,211 129.97,205.39 				"/>
			</g>
			<g>
				<polygon class="st0" points="129.97,205.39 129.98,211 211.95,163.68 211.93,158.07 				"/>
			</g>
		</g>
		<g>
			<ellipse class="st1" cx="175.26" cy="158.59" rx="12.69" ry="7.33"/>
			<path class="st2" d="M175.26,163.97c-3.01,0-5.92-0.69-8-1.89c-1.74-1.01-2.74-2.28-2.74-3.49s1-2.49,2.74-3.49
				c2.07-1.2,4.99-1.89,8-1.89s5.92,0.69,8,1.89c1.74,1.01,2.74,2.28,2.74,3.49s-1,2.49-2.74,3.49
				C181.19,163.28,178.27,163.97,175.26,163.97z"/>
			<g>
				<path class="st3" d="M170.42,163.97l14.37-8.76l-4.41-1.99l-14.52,8.58C166.47,162.15,169.66,163.58,170.42,163.97z"/>
			</g>
			<g>
				<g>
					<polygon class="st4" points="66.58,126.94 69.67,128.74 106.32,107.59 103.22,105.79 					"/>
				</g>
				<g>
					<polygon class="st4" points="123.09,129.92 126.19,131.72 137.05,125.45 133.95,123.65 					"/>
				</g>
				<g>
					<polygon class="st4" points="52.93,134.82 56.03,136.62 60.99,133.76 57.89,131.96 					"/>
				</g>
				<g>
					<polygon class="st4" points="34.68,137.7 37.78,139.5 57.71,127.99 54.61,126.19 					"/>
				</g>
				<g>
					<polygon class="st4" points="41.3,141.54 44.39,143.34 54.36,137.59 51.26,135.79 					"/>
				</g>
				<g>
					<polygon class="st4" points="148.01,144.39 151.11,146.2 161.97,139.93 158.87,138.13 					"/>
				</g>
				<g>
					<polygon class="st4" points="66.21,156.02 69.31,157.82 79.27,152.07 76.18,150.27 					"/>
				</g>
				<g>
					<polygon class="st4" points="81.54,139.51 84.64,141.31 91.31,137.46 88.21,135.66 					"/>
				</g>
				<g>
					<polygon class="st4" points="72.03,159.4 75.13,161.2 106.54,143.06 103.44,141.26 					"/>
				</g>
				<g>
					<polygon class="st4" points="84.51,166.65 87.61,168.45 107.54,156.95 104.44,155.15 					"/>
				</g>
				<g>
					<polygon class="st4" points="106.46,153.99 109.55,155.79 116.22,151.93 113.13,150.13 					"/>
				</g>
				<g>
					<polygon class="st4" points="96.94,173.88 100.04,175.68 131.46,157.54 128.36,155.74 					"/>
				</g>
				<g>
					<polygon class="st4" points="103.19,177.51 106.28,179.31 134.11,163.24 131.01,161.44 					"/>
				</g>
				<g>
					<polygon class="st4" points="73.96,115.02 77.06,116.82 99.71,103.74 96.61,101.94 					"/>
				</g>
				<g>
					<polygon class="st4" points="98.18,115.44 101.28,117.24 112.13,110.97 109.04,109.17 					"/>
				</g>
				<g>
					<polygon class="st4" points="91.72,119.16 94.82,120.96 99.96,118 96.86,116.2 					"/>
				</g>
				<g>
					<polygon class="st4" points="65.32,120.01 68.41,121.81 75.08,117.96 71.99,116.16 					"/>
				</g>
				<g>
					<polygon class="st4" points="85.58,122.71 88.68,124.51 93.81,121.54 90.72,119.74 					"/>
				</g>
				<g>
					<polygon class="st4" points="56.63,125.03 59.72,126.83 66.39,122.98 63.3,121.18 					"/>
				</g>
				<g>
					<polygon class="st4" points="79.44,126.26 82.53,128.06 87.67,125.09 84.57,123.29 					"/>
				</g>
				<g>
					<polygon class="st4" points="98.88,129.5 101.98,131.3 124.62,118.22 121.52,116.42 					"/>
				</g>
				<g>
					<polygon class="st4" points="59.47,131.05 62.57,132.85 67.52,129.99 64.43,128.19 					"/>
				</g>
				<g>
					<polygon class="st4" points="82.36,131.8 85.46,133.6 118.38,114.59 115.28,112.79 					"/>
				</g>
				<g>
					<polygon class="st4" points="116.64,133.64 119.74,135.44 124.87,132.48 121.78,130.68 					"/>
				</g>
				<g>
					<polygon class="st4" points="90.23,134.49 93.33,136.29 100,132.44 96.9,130.64 					"/>
				</g>
				<g>
					<polygon class="st4" points="110.49,137.19 113.59,138.99 118.73,136.02 115.63,134.22 					"/>
				</g>
				<g>
					<polygon class="st4" points="104.35,140.74 107.45,142.54 112.58,139.57 109.48,137.77 					"/>
				</g>
				<g>
					<polygon class="st4" points="91.49,141.42 94.59,143.22 131.23,122.07 128.14,120.27 					"/>
				</g>
				<g>
					<polygon class="st4" points="123.79,143.98 126.89,145.78 149.54,132.7 146.44,130.9 					"/>
				</g>
				<g>
					<polygon class="st4" points="47.11,144.92 50.21,146.72 81.62,128.58 78.53,126.78 					"/>
				</g>
				<g>
					<polygon class="st4" points="84.38,145.53 87.48,147.33 92.44,144.47 89.34,142.67 					"/>
				</g>
				<g>
					<polygon class="st4" points="107.28,146.28 110.38,148.08 143.29,129.07 140.2,127.27 					"/>
				</g>
				<g>
					<polygon class="st4" points="141.55,148.12 144.65,149.92 149.79,146.96 146.69,145.16 					"/>
				</g>
				<g>
					<polygon class="st4" points="53.36,148.55 56.45,150.35 84.28,134.28 81.18,132.48 					"/>
				</g>
				<g>
					<polygon class="st4" points="115.15,148.97 118.24,150.77 124.91,146.92 121.82,145.12 					"/>
				</g>
				<g>
					<polygon class="st4" points="77.85,149.3 80.95,151.1 85.9,148.24 82.81,146.44 					"/>
				</g>
				<g>
					<polygon class="st4" points="135.41,151.67 138.51,153.47 143.65,150.5 140.55,148.7 					"/>
				</g>
				<g>
					<polygon class="st4" points="59.6,152.18 62.7,153.98 82.62,142.47 79.53,140.67 					"/>
				</g>
				<g>
					<polygon class="st4" points="129.27,155.22 132.36,157.02 137.5,154.05 134.4,152.25 					"/>
				</g>
				<g>
					<polygon class="st4" points="116.41,155.9 119.51,157.7 156.15,136.55 153.05,134.75 					"/>
				</g>
				<g>
					<polygon class="st4" points="109.3,160.01 112.4,161.81 117.35,158.94 114.26,157.14 					"/>
				</g>
				<g>
					<polygon class="st4" points="78.27,163.03 81.37,164.83 109.2,148.76 106.1,146.96 					"/>
				</g>
				<g>
					<polygon class="st4" points="102.76,163.78 105.86,165.58 110.82,162.72 107.72,160.92 					"/>
				</g>
				<g>
					<polygon class="st4" points="91.13,170.5 94.23,172.3 104.19,166.55 101.09,164.75 					"/>
				</g>
			</g>
			<g>
				<path class="st5" d="M130.66,194.46c-0.62-1.42-1.14-2.89-1.54-4.41c-0.2-0.76-0.37-1.52-0.52-2.3
					c-0.18-0.77-0.14-1.56-0.19-2.35c-0.03-0.41,0.29-0.77,0.7-0.79c0.27-0.02,0.52,0.12,0.67,0.33l0.01,0.02
					c0.96,1.42,2.04,2.77,3.21,4.02c0.59,0.61,1.21,1.34,1.71,1.52c0.52,0.19,0.99,0.03,1.38-0.54c0.19-0.28,0.35-0.62,0.46-0.98
					l0.36-1.25l0.72-2.54l1.44-5.07c0.11-0.4,0.53-0.63,0.93-0.52c0.07,0.02,0.14,0.05,0.21,0.09c0.8,0.52,1.91,0.66,2.97,0.55
					c1.07-0.11,2.1-0.51,3.07-1.08c0.97-0.56,1.9-1.29,2.86-2.02l2.87-2.17c1.92-1.44,3.81-2.91,5.74-4.33
					c2.06-1.25,4.09-2.55,6.18-3.76c-1.73,1.69-3.53,3.29-5.29,4.93c-1.89,1.48-3.81,2.91-5.72,4.36l-2.87,2.17
					c-0.95,0.72-1.91,1.48-3.01,2.12c-1.09,0.64-2.35,1.14-3.67,1.27c-1.3,0.13-2.72,0-3.96-0.79l1.14-0.42l-1.44,5.07l-0.72,2.54
					l-0.37,1.28c-0.15,0.48-0.35,0.95-0.66,1.4c-0.3,0.44-0.74,0.88-1.35,1.11c-0.6,0.23-1.27,0.2-1.83-0.03
					c-0.57-0.23-0.97-0.59-1.31-0.92c-0.33-0.32-0.63-0.64-0.94-0.97c-1.23-1.31-2.35-2.72-3.36-4.21l1.38-0.45
					c0.01,0.75,0.15,1.5,0.12,2.26c0,0.76,0.03,1.52,0.09,2.28C130.22,191.41,130.4,192.93,130.66,194.46z"/>
			</g>
		</g>
	</g>
	<g>
		<g>
			<path class="st6" d="M85.48,154.88l15.03-7.32c0,0-2.41-4.7-8.31-3.07c-5.9,1.63-9.25,3.68-9.25,3.68L85.48,154.88z"/>
			<g>
				<path class="st7" d="M92.23,153.5c0,5.5,3.35,11.9,7.47,14.28c4.13,2.38,7.47-0.15,7.47-5.65c0-5.5-3.35-11.9-7.47-14.28
					C95.58,145.47,92.23,148,92.23,153.5z"/>
				<polygon class="st8" points="109.14,165.53 99.53,171.09 90.47,150.02 105.98,141.61 				"/>
				<path class="st8" d="M87.38,156.3c0,5.5,3.35,11.9,7.47,14.28c4.13,2.38,7.47-0.15,7.47-5.65c0-5.5-3.35-11.9-7.47-14.28
					C90.73,148.27,87.38,150.8,87.38,156.3z"/>
				<path class="st9" d="M99.13,161.04c-0.19-0.82-0.47-1.62-0.84-2.38c-0.35-0.74-0.76-1.42-1.23-2.04
					c-0.61-0.81-1.3-1.49-2.05-1.96c-0.06-0.04-0.11-0.09-0.17-0.12c-0.95-0.55-1.83-0.67-2.56-0.43c-0.81,0.26-1.41,0.99-1.74,2.06
					c-0.16,0.53-0.27,1.13-0.27,1.82c0,0.09,0.02,0.17,0.02,0.26c0.02,0.78,0.14,1.58,0.36,2.37c0.23,0.84,0.55,1.66,0.96,2.43
					c0.35,0.67,0.77,1.29,1.22,1.84c0.58,0.72,1.23,1.32,1.92,1.74c0.03,0.02,0.06,0.05,0.09,0.06c0.68,0.39,1.32,0.55,1.9,0.53
					c0.66-0.02,1.22-0.31,1.67-0.8c0.55-0.61,0.89-1.54,0.97-2.74c0.01-0.15,0.03-0.28,0.03-0.44
					C99.42,162.53,99.31,161.78,99.13,161.04z"/>
			</g>
			<path class="st10" d="M35,125.87l13.8-8.06c0,0-2.41-4.7-8.31-3.07c-5.9,1.63-9.25,3.68-9.25,3.68L35,125.87z"/>
			<path class="st6" d="M29.59,102.25c0,0,17.58-14.73,30.7-17.67c5.46-1.22,10.96,1.66,15.51,2.05l4.89,4.77l-35.22,21.61
				l-16.68-5.86C27.44,106.37,28.25,103.03,29.59,102.25z"/>
			<g>
				<path class="st11" d="M136.49,119.96l-4.52-5.35l-3.24-3.84l-6.08-7.21l-10.82,6.31l-6.49,3.78l-16.79,9.79l-0.2,0.11l2.26,3.99
					l2.79,4.91l1.44,2.53l4.03,7.12c0,0,8.78,0.63,21.62-7.14c1.27-0.77,2.56-1.59,3.91-2.53c0.24-0.17,0.45-0.33,0.69-0.49
					c4.77-3.38,7.63-5.85,9.3-7.62c0.33-0.35,0.63-0.68,0.88-0.98C137.47,120.65,136.49,119.96,136.49,119.96z"/>
			</g>
			<path class="st6" d="M111.29,96.18c-3.7-2.25-7.01-4.27-9.97-6.07c-5.76-3.5-4.57-2.56-7.41-4.04c-2.86-1.5-5.42-2.21-7.66-2.43
				c-6.7-0.68-10.45,3.01-10.45,3.01l-22.77,14.58l-6.27,1.09l-7.37,4.04c0,0,11.64-1.51,15.01-2.25c3.58,1.26,9.13,3.43,14.36,6.34
				c8.66,4.82,19.59,13.11,19.59,13.11s15.3-5.65,23.73-11.5c9.05-6.28,10.57-8.49,10.57-8.49
				C119.42,101.35,115.35,98.65,111.29,96.18z"/>
			<g>
				<path class="st7" d="M40.57,123.63c0,5.5,3.35,11.9,7.47,14.28c4.13,2.38,7.47-0.15,7.47-5.65c0-5.5-3.35-11.9-7.47-14.28
					C43.91,115.59,40.57,118.12,40.57,123.63z"/>
				<polygon class="st8" points="60.62,133.59 47.86,141.22 38.81,120.14 51.76,112.44 				"/>
				<path class="st8" d="M35.71,126.43c0,5.5,3.35,11.9,7.47,14.28c4.13,2.38,7.47-0.15,7.47-5.65c0-5.5-3.35-11.9-7.47-14.28
					C39.06,118.4,35.71,120.93,35.71,126.43z"/>
			</g>
			<g>
				<path class="st6" d="M29.59,102.25c2.72,0.5,4.15,2.66,9.8,3.56c1.13,0.18,1.99-0.31,2.97-0.49c1.64-0.3,6.67-2.21,10.8-1.91
					c4.39,0.32,6.82,1.95,10.78,4.3c3.14,1.86,8.73,4.63,17.26,10.13c4.78,3.08,8.09,4.91,9.33,6.97c0.86,1.43,3.9,8.55,6.86,14.1
					c0.6,1.12,1.34,2.14,2.2,3.05l14.11-2.59c-5.65,12.42-6.39,17.14-7.72,26.54c-0.66-0.45-1.16-1.01-1.72-1.59
					c-0.04-0.04-0.08-0.05-0.11-0.08c-0.52-6.45-5.18-14.58-8.56-16.54c-5.46-3.15-9.88-0.33-9.91,6.93
					c-11.63-6.73-21.57-12.13-33.51-19.03c-0.24-1.92-1.26-8.13-2.32-9.96c-2.13-3.65-7.5-8.73-9.89-8.47
					c-6.24,0.67-6.21,7.97-6.21,7.97c-5.99-3.45-5.45-6.46-6.43-10.78C26.76,111.96,26.94,103.99,29.59,102.25z"/>
				<path class="st6" d="M114.89,137.34c3.98-2.49,8.91-3.58,11.94-6.9l13.16-3.33c0,0,13.42,4.61,15.08,7.04
					c3.29,4.82,7,15.56,4,18.93c-3.26,3.66-5.79,3.84-9.95,7.22c-9.28,7.54-27.23,10.03-35.88,6.25
					c-11.29-4.93-10.66-15.17-9.01-25.21C108.01,140.61,111.71,139.34,114.89,137.34z"/>
			</g>
			<path class="st12" d="M43.32,117.52c5.47,3.16,9.9,11.61,9.93,18.91c-0.26-0.14-0.51-0.29-0.76-0.43
				c-0.14-0.08-0.52-0.3-1.09-0.63c0-0.07,0.01-0.14,0.01-0.21c0-6.04-3.67-13.06-8.2-15.67c-4.53-2.62-8.2,0.16-8.2,6.2
				c0,0.06,0.01,0.13,0.01,0.19c-0.53-0.3-1.07-0.62-1.61-0.93C33.43,117.69,37.85,114.37,43.32,117.52z"/>
			<path class="st6" d="M119.44,134.08c4.6-2.89,11.46-6.9,17.17-13.97c2.48,1.66,14.5,10.12,16.78,12.22
				c5,4.61,3.63,7.78-10.98,16.61c-13.05,7.89-16.99,8.86-25.09,4.13c-1.25-0.73-16.45-10.38-17.72-11.12
				C104.39,141.12,115.36,136.64,119.44,134.08z"/>
			<g>
				<path class="st11" d="M40.42,105.8c2.27-1.27,4.77-2.63,6.02-3.32c0.54-0.3,1.3-0.72,2.44-1.35
					c7.76-4.35,16.22-9.72,17.59-10.57c1.89-1.17,5.55-3.08,7.51-4.09c2.34-1.2,5.05-2.03,7.17-2.5c1.5-0.33,2.7-0.48,3.22-0.41
					c0,0-10.13,5.54-14.7,8.54c-4.92,3.23-14.53,8.67-19.48,11.43c-3.32,0.4-6.58,1.57-7.84,1.8
					C41.7,105.44,41.09,105.69,40.42,105.8z"/>
			</g>
			<path class="st8" d="M103.15,159.46c3.03,1.36,19.87,11.24,28.43,7.12c4.51-2.17,19-9.81,23.66-13.17
				c3.52-2.54,4.55-7.66,4.55-7.66s3.18,9.13-3.62,13.71c-6.39,4.3-11.15,8.23-24,13.45c-9.98,4.05-23.84-4.23-28.48-7.45
				C103.71,164.59,103.13,160.33,103.15,159.46z"/>
			<path class="st8" d="M85.48,154.88l-34.09-19.52l0.49-1.93l35.43,20.33C86.83,154.23,85.94,154.4,85.48,154.88z"/>
			<path class="st9" d="M152.02,149.54l0.09,0.31c0.32,1.03-0.12,2.15-1.05,2.69l-12.75,7.37c-1.29,0.74-2.93,0.1-3.37-1.31l0,0
				c-0.24-0.77,0.08-1.6,0.77-2l13.8-8.03C150.47,148.01,151.69,148.49,152.02,149.54z"/>
		</g>
		<path class="st9" d="M130.81,159.64c-1.24-0.95-6.74-2.14-9.51-2.7c-0.42-0.08-0.77-0.15-1.04-0.2c-0.41-0.08-0.84,0.01-1.16,0.26
			c-0.51,0.39-1.21,1.13-1.47,2.35c-0.24,1.13-0.14,2-0.01,2.55c0.09,0.4,0.38,0.72,0.8,0.88c0.34,0.13,0.82,0.31,1.39,0.51
			c1.8,0.63,4.53,1.43,6.84,1.52c2.95,0.11,4.97-0.74,5.83-1.2c0.3-0.16,0.44-0.47,0.35-0.77
			C132.59,162.06,132.02,160.57,130.81,159.64z"/>
		<path class="st9" d="M158.98,144.56c-0.28-2.83-1.21-4.36-1.63-4.92c-0.1-0.13-0.29-0.13-0.39,0.01
			c-0.13,0.18-0.33,0.48-0.56,0.81c-0.92,1.37-2.41,3.74-2.77,5.25c-0.35,1.49,0.11,3.35,0.45,4.41c0.13,0.41,0.65,0.54,0.96,0.25
			c1.73-1.58,2.7-2.86,3.26-3.77c0.25-0.41,0.43-0.76,0.53-1.01C158.97,145.27,159.01,144.91,158.98,144.56z"/>
		<path class="st8" d="M34.94,121.58c0,0-2.97-1.5-4.37-2.69c-1.4-1.19-2.88-2.56-2.88-2.56s-0.27-0.13-1,0.5
			c-0.72,0.62-0.63,2.05-0.24,3.43c0.27,0.97,8.55,5.62,8.55,5.62L34.94,121.58z"/>
		<g>
			<g>
				<path class="st9" d="M88.71,128.52c-1.21-2.55-3.17-4.67-5.62-6.06l-0.77-0.44l-4.6-2.62l-9.77-5.57c0,3.25,0,7.35,0,10.48
					l4.6,2.55l10.96,6.07l4.8,2.66l5.1,2.82L88.71,128.52z"/>
				<path class="st9" d="M59.24,108.86c-0.46-0.26-0.94-0.5-1.42-0.72c-2.18-0.97-4.55-1.45-6.93-1.4
					c-1.02,0.02-2.05,0.14-3.06,0.36l-5.32,1.15l-2.53,0.55l3.2,1.77l11.06,6.13l7.45,4.13l3.74,2.07v-10.52L59.24,108.86z"/>
			</g>
			<path class="st5" d="M65.42,112.38l2.53,1.44c0,3.25,0,7.35,0,10.48l-2.53-1.4V112.38z"/>
		</g>
		<polygon class="st13" points="71.92,130.45 67.59,128.06 67.59,129.84 71.94,132.38 		"/>
		<polygon class="st13" points="65.05,126.58 60.71,124.19 60.71,125.97 65.06,128.52 		"/>
		<path class="st9" d="M47.47,131.12c-0.19-0.82-0.47-1.62-0.84-2.38c-0.35-0.74-0.76-1.42-1.23-2.04c-0.61-0.81-1.3-1.49-2.05-1.96
			c-0.06-0.04-0.11-0.09-0.17-0.12c-0.95-0.55-1.83-0.67-2.56-0.43c-0.81,0.26-1.41,0.99-1.74,2.06c-0.16,0.53-0.27,1.13-0.27,1.82
			c0,0.09,0.02,0.17,0.02,0.26c0.02,0.78,0.14,1.58,0.36,2.37c0.23,0.84,0.55,1.66,0.96,2.43c0.35,0.67,0.77,1.29,1.22,1.84
			c0.58,0.72,1.23,1.32,1.92,1.74c0.03,0.02,0.06,0.05,0.09,0.06c0.68,0.39,1.32,0.55,1.9,0.53c0.66-0.02,1.22-0.31,1.67-0.8
			c0.55-0.61,0.89-1.54,0.97-2.74c0.01-0.15,0.03-0.28,0.03-0.44C47.75,132.61,47.64,131.86,47.47,131.12z"/>
	</g>
</g>
</svg>
