<?xml version="1.0" encoding="utf-8"?>
<!-- Generator: Adobe Illustrator 23.0.1, SVG Export Plug-In . SVG Version: 6.00 Build 0)  -->
<svg version="1.1" id="Layer_1" xmlns="http://www.w3.org/2000/svg" xmlns:xlink="http://www.w3.org/1999/xlink" x="0px" y="0px"
	 viewBox="0 0 220 220" style="enable-background:new 0 0 220 220;" xml:space="preserve">
<style type="text/css">
	.st0{fill:#FFFFFF;stroke:#000000;stroke-width:1.5;stroke-linecap:round;stroke-linejoin:round;stroke-miterlimit:10;}
	.st1{fill:#BCBEC0;stroke:#000000;stroke-width:1.5;stroke-linecap:round;stroke-linejoin:round;stroke-miterlimit:10;}
	.st2{fill:#BCBEC0;}
	.st3{fill:#336A43;stroke:#000000;stroke-width:1.4193;stroke-linecap:round;stroke-linejoin:round;stroke-miterlimit:10;}
	.st4{fill:#191411;}
	.st5{fill:#B0C2D9;}
	.st6{fill:#DFE6F0;}
	.st7{fill:#F1F6FC;}
	.st8{fill:#FFFFFF;stroke:#000000;stroke-width:1.7846;stroke-linecap:round;stroke-linejoin:round;stroke-miterlimit:10;}
	.st9{fill:#336A43;}
	.st10{fill:#BCBEC0;stroke:#000000;stroke-width:1.7846;stroke-linecap:round;stroke-linejoin:round;stroke-miterlimit:10;}
	.st11{fill:none;stroke:#000000;stroke-width:1.7846;stroke-linecap:round;stroke-linejoin:round;stroke-miterlimit:10;}
	.st12{fill:#FFFFFF;stroke:#000000;stroke-width:1.5073;stroke-linecap:round;stroke-linejoin:round;stroke-miterlimit:10;}
	.st13{fill:#BCBEC0;stroke:#000000;stroke-width:1.5073;stroke-linecap:round;stroke-linejoin:round;stroke-miterlimit:10;}
	.st14{fill:none;stroke:#000000;stroke-width:1.5073;stroke-linecap:round;stroke-linejoin:round;stroke-miterlimit:10;}
	.st15{fill:#FFFFFF;stroke:#000000;stroke-width:0.7536;stroke-miterlimit:10;}
	.st16{fill:#191411;stroke:#000000;stroke-width:0.7536;stroke-miterlimit:10;}
	.st17{fill:#FFFFFF;stroke:#000000;stroke-width:0.754;stroke-linecap:round;stroke-linejoin:round;stroke-miterlimit:10;}
	.st18{fill:#191411;stroke:#000000;stroke-width:0.754;stroke-linecap:round;stroke-linejoin:round;stroke-miterlimit:10;}
	.st19{fill:#FFFFFF;stroke:#000000;stroke-width:0.7536;stroke-linecap:round;stroke-linejoin:round;stroke-miterlimit:10;}
	.st20{fill:#191411;stroke:#000000;stroke-width:0.7536;stroke-linecap:round;stroke-linejoin:round;stroke-miterlimit:10;}
	.st21{stroke:#000000;stroke-width:0.7536;stroke-linecap:round;stroke-linejoin:round;stroke-miterlimit:10;}
</style>
<g>
	<g>
		<g>
			<g>
				<path class="st0" d="M90.02,87.22L8.05,134.54l121.92,70.85l81.97-47.32L90.02,87.22z"/>
				<g>
					<polygon class="st1" points="8.05,134.54 8.07,140.15 129.98,211 129.97,205.39 					"/>
				</g>
				<g>
					<polygon class="st1" points="129.97,205.39 129.98,211 211.95,163.68 211.93,158.07 					"/>
				</g>
			</g>
		</g>
		<g id="XMLID_232_">
			<polygon id="XMLID_234_" class="st2" points="50.5,126.47 65.3,135.19 110.28,109.22 95.49,100.5 			"/>
		</g>
		<g id="XMLID_2282_">
			<polygon id="XMLID_2283_" class="st2" points="30.84,137.82 45.64,146.54 60.21,138.13 45.41,129.41 			"/>
		</g>
		<g id="XMLID_2272_">
			<polygon id="XMLID_2273_" class="st2" points="55.03,151.83 62.87,156.54 127.55,119.19 119.71,114.49 			"/>
		</g>
		<g id="XMLID_2274_">
			<polygon id="XMLID_2275_" class="st2" points="69.72,160.32 77.56,165.02 142.25,127.67 134.41,122.97 			"/>
		</g>
		<g id="XMLID_2276_">
			<polygon id="XMLID_2277_" class="st2" points="84.42,168.8 92.26,173.51 156.95,136.16 149.11,131.46 			"/>
		</g>
		<g id="XMLID_2278_">
			<polygon id="XMLID_2279_" class="st2" points="100.52,178.1 114.67,186.45 132.47,176.17 118.32,167.82 			"/>
		</g>
		<g id="XMLID_2280_">
			<polygon id="XMLID_2281_" class="st2" points="118.57,188.52 122.08,190.72 187.61,152.88 184.11,150.68 			"/>
		</g>
		<g id="XMLID_34_">
			<g id="XMLID_37_">
				<path id="XMLID_41_" d="M31.53,108.85l0.03,0.29l7.66-4.34c0.13,0.1,0.25,0.2,0.41,0.28c2.16,1.23,3.42,3.18,5.58,1.96
					c2.16-1.23,4.41-1.63,2.25-2.86c-0.16-0.09-0.33-0.16-0.5-0.23l-0.7-5.67l2.98-1.01l0.46,5.13l8.47-8.34
					c1.49-0.84,4.03-0.43,4.52,0.73l1.08,2.58l0.99-0.1v6.18c0,0.02,0,0.04,0,0.06v0.02l0,0c-0.04,0.37-0.3,0.73-0.77,1
					l-23.29,13.21c-0.65,0.37-1.59,0.52-2.48,0.41l-8.53-1.07c-1.37-0.17-2.16-0.87-2.1-1.57v-6.08L31.53,108.85z"/>
				<path id="XMLID_38_" d="M38.11,118.79l-8.53-1.07c-1.68-0.21-2.78-1.15-2.69-2.23v-6.25c0-0.24,0.18-0.43,0.41-0.47l4.73-0.68
					l6.85-3.89l0.49-0.15l0.36,0.27c0.08,0.06,0.15,0.11,0.24,0.16c0.61,0.35,1.16,0.75,1.64,1.11c1.4,1.03,2.12,1.5,3.27,0.85
					c0.51-0.29,1.02-0.53,1.48-0.75c0.43-0.2,0.98-0.47,1.23-0.65c-0.08-0.07-0.22-0.17-0.46-0.31c-0.09-0.05-0.19-0.09-0.44-0.2
					l-0.77-0.11l0.06-6.72l3.87-1.31l0.4,4.5l7.44-7.33l0.14-0.11c1.04-0.59,2.58-0.7,3.84-0.29c0.81,0.27,1.4,0.75,1.64,1.33
					l0.89,2.12l1.23-0.12l0,8.07l-0.34-0.16c-0.19,0.25-0.45,0.48-0.78,0.66l-23.29,13.2c-0.61,0.35-1.42,0.54-2.24,0.54
					C38.56,118.83,38.34,118.82,38.11,118.79z M64.08,97.99l-0.74,0.07l-1.27-3.04c-0.09-0.22-0.4-0.44-0.83-0.58
					c-0.84-0.28-1.94-0.22-2.65,0.14l-9.42,9.28l-0.52-5.76l-1.8,0.84v5.15c0.06,0.03,0.91-0.52,0.96-0.49
					c0.58,0.33,1.24,0.8,1.22,1.5c-0.03,0.82-0.93,1.25-2.07,1.8c-0.43,0.21-0.92,0.44-1.39,0.71c-1.97,1.12-3.39,0.07-4.76-0.94
					c-0.47-0.35-0.96-0.71-1.51-1.02c-0.04-0.02-0.07-0.04-0.11-0.07l-8.18,4.64l-0.07-0.62l-2.69,0.38l0,5.56
					c-0.02,0.28,0.49,0.73,1.51,0.85l8.53,1.07c0.75,0.09,1.54-0.03,2.06-0.33l23.29-13.2c0.26-0.15,0.43-0.33,0.44-0.49l0-0.02
					L64.08,97.99z"/>
			</g>
			<g id="XMLID_35_">
				<path id="XMLID_36_" class="st3" d="M28.61,108.24l10.68-6.17c0.13,0.1,0.25,0.2,0.4,0.28c2.12,1.23,5.56,1.23,7.69,0
					c2.12-1.23,2.12-3.21,0-4.44c-0.15-0.09-0.33-0.16-0.49-0.23l11.01-6.35c1.46-0.84,3.96-0.43,4.43,0.73l1.96,4.77
					c0.21,0.51-0.05,1.06-0.7,1.43l-22.87,13.21c-0.64,0.37-1.56,0.52-2.44,0.41l-8.37-1.07C27.87,110.54,27.13,109.09,28.61,108.24
					z"/>
			</g>
		</g>
		<g id="XMLID_29_">
			<path id="XMLID_33_" class="st2" d="M27.33,129.48l59.21-34.19c1.42-0.82,1.24-2.26-0.4-3.2l-3.66-2.11
				c-1.64-0.95-4.13-1.05-5.55-0.23l-59.21,34.19c-1.42,0.82-1.24,2.26,0.4,3.2l3.66,2.11C23.42,130.19,25.91,130.3,27.33,129.48z"
				/>
			<path id="XMLID_30_" class="st4" d="M21.45,129.82l-3.66-2.12c-1.07-0.62-1.69-1.49-1.69-2.39c0-0.79,0.46-1.49,1.29-1.97
				L76.6,89.17c1.63-0.94,4.36-0.84,6.21,0.23l3.66,2.12c1.07,0.62,1.69,1.49,1.69,2.39c0,0.79-0.46,1.49-1.29,1.97l-59.21,34.19
				c-0.75,0.43-1.73,0.64-2.75,0.64C23.71,130.7,22.45,130.4,21.45,129.82z M86.21,94.72c0.29-0.17,0.63-0.44,0.63-0.82
				c0-0.4-0.38-0.87-1.03-1.24l-3.66-2.11c-1.43-0.83-3.67-0.93-4.89-0.23L18.05,124.5c-0.29,0.17-0.63,0.44-0.63,0.82
				c0,0.41,0.39,0.87,1.03,1.24l3.66,2.12c1.43,0.83,3.67,0.93,4.89,0.23L86.21,94.72z"/>
		</g>
	</g>
	<g>
		<g>
			<g>
				<polygon class="st5" points="101.18,53.73 101.18,145.67 134.36,126.52 134.36,34.57 				"/>
				<polygon class="st6" points="101.18,53.73 68,34.57 68,126.52 101.18,145.67 				"/>
				<polygon class="st7" points="101.18,15.42 134.36,34.57 101.18,53.73 68,34.57 				"/>
				<polygon class="st8" points="101.18,53.73 101.18,145.67 134.36,126.52 134.36,34.57 				"/>
				<polygon class="st8" points="101.18,53.73 68,34.57 68,126.52 101.18,145.67 				"/>
				<polygon class="st7" points="101.18,15.42 134.36,34.57 101.18,53.73 68,34.57 				"/>
				<g>
					<g>
						<polygon class="st9" points="75.5,50.04 72.18,48.12 72.18,51.95 75.5,53.87 75.5,53.87 75.5,53.87 75.5,50.76 75.5,50.76 
													"/>
						<polygon class="st9" points="82.13,53.89 78.82,51.97 78.82,55.8 79.38,56.13 79.38,56.13 80.1,56.54 82.13,57.72 
							82.13,57.72 82.13,57.72 82.13,54.61 82.13,54.61 						"/>
						<polygon class="st9" points="88.77,57.73 85.45,55.81 85.45,59.64 86.01,59.97 86.01,59.97 87.3,60.71 88.77,61.56 
							88.77,61.56 88.77,61.56 88.77,58.45 88.77,58.45 						"/>
						<polygon class="st9" points="95.41,62.3 95.41,61.58 92.09,59.66 92.09,63.49 95.41,65.41 95.41,65.41 95.41,65.41 
							95.41,62.3 						"/>
						<polygon class="st9" points="75.5,57.73 72.18,55.81 72.18,59.64 72.74,59.97 72.74,59.97 73.58,60.45 75.5,61.56 75.5,61.56 
							75.5,61.56 75.5,58.45 75.5,58.45 						"/>
						<polygon class="st9" points="82.13,61.58 78.82,59.66 78.82,63.49 79.38,63.82 79.38,63.82 80.1,64.23 82.13,65.41 
							82.13,65.41 82.13,65.41 82.13,62.3 82.13,62.3 						"/>
						<polygon class="st9" points="88.77,65.42 85.45,63.5 85.45,67.33 88.77,69.25 88.77,69.25 88.77,69.25 88.77,66.14 
							88.77,66.14 						"/>
						<polygon class="st9" points="95.41,69.27 92.09,67.35 92.09,71.18 95.41,73.1 95.41,73.1 95.41,73.1 95.41,69.99 95.41,69.99 
													"/>
						<polygon class="st9" points="75.5,65.42 72.18,63.5 72.18,67.33 75.5,69.25 75.5,69.25 75.5,69.25 75.5,66.14 75.5,66.14 
													"/>
						<polygon class="st9" points="82.13,69.27 78.82,67.35 78.82,71.18 79.38,71.51 79.38,71.51 79.85,71.78 82.13,73.1 
							82.13,73.1 82.13,73.1 82.13,69.99 82.13,69.99 						"/>
						<polygon class="st9" points="88.77,73.11 85.45,71.19 85.45,75.02 86.01,75.35 86.01,75.35 87.3,76.09 88.77,76.94 
							88.77,76.94 88.77,76.94 88.77,73.83 88.77,73.83 						"/>
						<polygon class="st9" points="95.41,76.96 92.09,75.04 92.09,78.87 95.41,80.79 95.41,80.79 95.41,80.79 95.41,77.68 
							95.41,77.68 						"/>
						<polygon class="st9" points="75.5,73.11 72.18,71.19 72.18,75.02 72.74,75.35 72.74,75.35 73.58,75.83 75.5,76.94 75.5,76.94 
							75.5,76.94 75.5,73.83 75.5,73.83 						"/>
						<polygon class="st9" points="82.13,76.96 78.82,75.04 78.82,78.87 79.38,79.2 79.38,79.2 79.65,79.36 82.13,80.79 
							82.13,80.79 82.13,80.79 82.13,77.68 82.13,77.68 						"/>
						<polygon class="st9" points="88.77,80.8 85.45,78.88 85.45,82.71 88.77,84.63 88.77,84.63 88.77,84.63 88.77,81.52 
							88.77,81.52 						"/>
						<polygon class="st9" points="95.41,84.65 92.09,82.73 92.09,86.56 95.41,88.48 95.41,88.48 95.41,88.48 95.41,85.37 
							95.41,85.37 						"/>
						<polygon class="st9" points="75.5,80.8 72.18,78.88 72.18,82.71 75.5,84.63 75.5,84.63 75.5,84.63 75.5,81.52 75.5,81.52 
													"/>
						<polygon class="st9" points="82.13,84.65 78.82,82.73 78.82,86.56 82.13,88.48 82.13,88.48 82.13,88.48 82.13,85.37 
							82.13,85.37 						"/>
						<polygon class="st9" points="88.77,88.49 85.45,86.57 85.45,90.4 88.77,92.32 88.77,92.32 88.77,92.32 88.77,89.21 
							88.77,89.21 						"/>
						<polygon class="st9" points="95.41,92.34 92.09,90.42 92.09,94.26 95.41,96.17 95.41,96.17 95.41,96.17 95.41,93.06 
							95.41,93.06 						"/>
						<polygon class="st9" points="75.5,88.49 72.18,86.57 72.18,90.4 75.5,92.32 75.5,92.32 75.5,92.32 75.5,89.21 75.5,89.21 
													"/>
						<polygon class="st9" points="82.13,92.34 78.82,90.42 78.82,94.26 82.13,96.17 82.13,96.17 82.13,96.17 82.13,93.06 
							82.13,93.06 						"/>
						<polygon class="st9" points="88.77,96.18 85.45,94.26 85.45,98.09 88.77,100.01 88.77,100.01 88.77,100.01 88.77,96.9 
							88.77,96.9 						"/>
						<polygon class="st9" points="95.41,100.03 92.09,98.12 92.09,101.95 95.41,103.86 95.41,103.86 95.41,103.86 95.41,100.75 
							95.41,100.75 						"/>
						<polygon class="st9" points="75.5,96.18 72.18,94.26 72.18,98.09 75.5,100.01 75.5,100.01 75.5,100.01 75.5,96.9 75.5,96.9 
													"/>
						<polygon class="st9" points="82.13,100.03 78.82,98.12 78.82,101.95 79.38,102.27 79.38,102.27 80.1,102.69 82.13,103.86 
							82.13,103.86 82.13,103.86 82.13,100.75 82.13,100.75 						"/>
						<polygon class="st9" points="88.77,103.87 85.45,101.95 85.45,105.78 86.01,106.11 86.01,106.11 87.3,106.85 88.77,107.7 
							88.77,107.7 88.77,107.7 88.77,104.59 88.77,104.59 						"/>
						<polygon class="st9" points="95.41,107.72 92.09,105.81 92.09,109.64 95.41,111.55 95.41,111.55 95.41,111.55 95.41,108.44 
							95.41,108.44 						"/>
						<polygon class="st9" points="75.5,103.87 72.18,101.95 72.18,105.78 72.74,106.11 72.74,106.11 73.58,106.59 75.5,107.7 
							75.5,107.7 75.5,107.7 75.5,104.59 75.5,104.59 						"/>
						<polygon class="st9" points="82.13,107.72 78.82,105.81 78.82,109.64 79.38,109.96 79.38,109.96 79.65,110.12 82.13,111.55 
							82.13,111.55 82.13,111.55 82.13,108.44 82.13,108.44 						"/>
						<polygon class="st9" points="88.77,111.56 85.45,109.64 85.45,113.47 86.01,113.8 86.01,113.8 87.3,114.54 88.77,115.39 
							88.77,115.39 88.77,115.39 88.77,112.28 88.77,112.28 						"/>
						<polygon class="st9" points="95.41,115.41 92.09,113.5 92.09,117.33 95.41,119.24 95.41,119.24 95.41,119.24 95.41,116.13 
							95.41,116.13 						"/>
					</g>
					<g>
						<polygon class="st9" points="129.87,48.12 129.87,51.95 126.55,53.87 126.55,50.04 						"/>
						<polygon class="st9" points="126.55,53.87 126.55,50.76 129.31,49.16 129.31,52.27 						"/>
						<polygon class="st9" points="123.23,51.97 123.23,55.8 119.91,57.72 119.91,53.89 						"/>
						<polygon class="st9" points="119.91,57.72 119.91,54.61 122.67,53.02 122.67,56.13 						"/>
						<g>
							<polygon class="st9" points="116.6,55.81 116.6,59.64 113.28,61.56 113.28,57.73 							"/>
							<polygon class="st9" points="113.28,61.56 113.28,58.45 116.03,56.86 116.03,59.97 							"/>
						</g>
						<g>
							<polygon class="st9" points="109.96,59.66 109.96,63.49 106.64,65.41 106.64,61.58 							"/>
							<polygon class="st9" points="106.64,65.41 106.64,62.3 109.4,60.71 109.4,63.82 							"/>
						</g>
					</g>
					<g>
						<polygon class="st9" points="129.87,55.81 129.87,59.64 126.55,61.56 126.55,57.73 						"/>
						<polygon class="st9" points="126.55,61.56 126.55,58.45 129.31,56.86 129.31,59.97 						"/>
						<polygon class="st9" points="123.23,59.66 123.23,63.49 119.91,65.41 119.91,61.58 						"/>
						<polygon class="st9" points="119.91,65.41 119.91,62.3 122.67,60.71 122.67,63.82 						"/>
						<g>
							<polygon class="st9" points="116.6,63.5 116.6,67.33 113.28,69.25 113.28,65.42 							"/>
							<polygon class="st9" points="113.28,69.25 113.28,66.14 116.03,64.55 116.03,67.66 							"/>
						</g>
						<g>
							<polygon class="st9" points="109.96,67.35 109.96,71.18 106.64,73.1 106.64,69.27 							"/>
							<polygon class="st9" points="106.64,73.1 106.64,69.99 109.4,68.4 109.4,71.51 							"/>
						</g>
					</g>
				</g>
				<g>
					<polygon class="st2" points="81.43,134.26 81.43,120.21 73.84,115.83 73.84,129.88 					"/>
					<polygon class="st2" points="92.88,140.89 92.88,126.81 83.92,121.65 83.92,135.71 					"/>
				</g>
				<polygon class="st10" points="101.18,15.46 134.32,34.59 101.18,53.73 68.03,34.59 				"/>
				<path class="st8" d="M101.18,15.46L68.03,34.59l33.14,19.14l33.14-19.14L101.18,15.46L101.18,15.46z"/>
			</g>
			<polygon class="st11" points="101.18,53.73 68,34.57 68,126.52 101.18,145.67 			"/>
		</g>
		<g>
			<g>
				<polygon class="st5" points="117.43,102.76 117.43,171.68 142.3,157.32 142.3,88.4 				"/>
				<polygon class="st6" points="117.43,102.76 92.56,88.4 92.56,157.32 117.43,171.68 				"/>
				<polygon class="st7" points="117.43,74.04 142.3,88.4 117.43,102.76 92.56,88.4 				"/>
				<polygon class="st12" points="117.43,102.76 117.43,171.68 142.3,157.32 142.3,88.4 				"/>
				<polygon class="st12" points="117.43,102.76 92.56,88.4 92.56,157.32 117.43,171.68 				"/>
				<polygon class="st7" points="117.43,74.04 142.3,88.4 117.43,102.76 92.56,88.4 				"/>
				<g>
					<g>
						<polygon class="st9" points="98.18,99.99 95.7,98.56 95.7,101.43 98.18,102.86 98.18,102.86 98.18,102.86 98.18,100.53 
							98.18,100.53 						"/>
						<polygon class="st9" points="103.16,102.88 100.67,101.44 100.67,104.31 101.09,104.56 101.09,104.56 101.63,104.87 
							103.16,105.75 103.16,105.75 103.16,105.75 103.16,103.42 103.16,103.42 						"/>
						<polygon class="st9" points="108.13,105.76 105.64,104.32 105.64,107.19 106.06,107.43 106.06,107.43 107.03,107.99 
							108.13,108.63 108.13,108.63 108.13,108.63 108.13,106.3 108.13,106.3 						"/>
						<polygon class="st9" points="113.1,109.18 113.1,108.64 110.62,107.21 110.62,110.08 113.1,111.51 113.1,111.51 113.1,111.51 
							113.1,109.18 						"/>
						<polygon class="st9" points="98.18,105.76 95.7,104.32 95.7,107.19 96.12,107.43 96.12,107.43 96.75,107.8 98.18,108.63 
							98.18,108.63 98.18,108.63 98.18,106.3 98.18,106.3 						"/>
						<polygon class="st9" points="103.16,108.64 100.67,107.21 100.67,110.08 101.09,110.32 101.09,110.32 101.63,110.63 
							103.16,111.51 103.16,111.51 103.16,111.51 103.16,109.18 103.16,109.18 						"/>
						<polygon class="st9" points="108.13,111.52 105.64,110.08 105.64,112.96 108.13,114.39 108.13,114.39 108.13,114.39 
							108.13,112.06 108.13,112.06 						"/>
						<polygon class="st9" points="113.1,114.41 110.62,112.97 110.62,115.84 113.1,117.28 113.1,117.28 113.1,117.28 113.1,114.95 
							113.1,114.95 						"/>
						<polygon class="st9" points="98.18,111.52 95.7,110.08 95.7,112.96 98.18,114.39 98.18,114.39 98.18,114.39 98.18,112.06 
							98.18,112.06 						"/>
						<polygon class="st9" points="103.16,114.41 100.67,112.97 100.67,115.84 101.09,116.09 101.09,116.09 101.45,116.29 
							103.16,117.28 103.16,117.28 103.16,117.28 103.16,114.95 103.16,114.95 						"/>
						<polygon class="st9" points="108.13,117.29 105.64,115.85 105.64,118.72 106.06,118.96 106.06,118.96 107.03,119.52 
							108.13,120.16 108.13,120.16 108.13,120.16 108.13,117.83 108.13,117.83 						"/>
						<polygon class="st9" points="113.1,120.17 110.62,118.74 110.62,121.61 113.1,123.04 113.1,123.04 113.1,123.04 113.1,120.71 
							113.1,120.71 						"/>
						<polygon class="st9" points="98.18,117.29 95.7,115.85 95.7,118.72 96.12,118.96 96.12,118.96 96.75,119.33 98.18,120.16 
							98.18,120.16 98.18,120.16 98.18,117.83 98.18,117.83 						"/>
						<polygon class="st9" points="103.16,120.17 100.67,118.74 100.67,121.61 101.09,121.85 101.09,121.85 101.3,121.97 
							103.16,123.04 103.16,123.04 103.16,123.04 103.16,120.71 103.16,120.71 						"/>
						<polygon class="st9" points="108.13,123.05 105.64,121.61 105.64,124.49 108.13,125.92 108.13,125.92 108.13,125.92 
							108.13,123.59 108.13,123.59 						"/>
						<polygon class="st9" points="113.1,125.94 110.62,124.5 110.62,127.37 113.1,128.81 113.1,128.81 113.1,128.81 113.1,126.48 
							113.1,126.48 						"/>
						<polygon class="st9" points="98.18,123.05 95.7,121.61 95.7,124.49 98.18,125.92 98.18,125.92 98.18,125.92 98.18,123.59 
							98.18,123.59 						"/>
						<polygon class="st9" points="103.16,125.94 100.67,124.5 100.67,127.37 103.16,128.81 103.16,128.81 103.16,128.81 
							103.16,126.48 103.16,126.48 						"/>
						<polygon class="st9" points="108.13,128.81 105.64,127.38 105.64,130.25 108.13,131.69 108.13,131.69 108.13,131.69 
							108.13,129.36 108.13,129.36 						"/>
						<polygon class="st9" points="113.1,131.7 110.62,130.27 110.62,133.14 113.1,134.57 113.1,134.57 113.1,134.57 113.1,132.24 
							113.1,132.24 						"/>
						<polygon class="st9" points="98.18,128.81 95.7,127.38 95.7,130.25 98.18,131.69 98.18,131.69 98.18,131.69 98.18,129.36 
							98.18,129.36 						"/>
						<polygon class="st9" points="103.16,131.7 100.67,130.27 100.67,133.14 103.16,134.57 103.16,134.57 103.16,134.57 
							103.16,132.24 103.16,132.24 						"/>
						<polygon class="st9" points="108.13,134.58 105.64,133.14 105.64,136.02 108.13,137.45 108.13,137.45 108.13,137.45 
							108.13,135.12 108.13,135.12 						"/>
						<polygon class="st9" points="113.1,137.47 110.62,136.03 110.62,138.9 113.1,140.34 113.1,140.34 113.1,140.34 113.1,138.01 
							113.1,138.01 						"/>
						<polygon class="st9" points="98.18,134.58 95.7,133.14 95.7,136.02 98.18,137.45 98.18,137.45 98.18,137.45 98.18,135.12 
							98.18,135.12 						"/>
						<polygon class="st9" points="103.16,137.47 100.67,136.03 100.67,138.9 101.09,139.15 101.09,139.15 101.63,139.46 
							103.16,140.34 103.16,140.34 103.16,140.34 103.16,138.01 103.16,138.01 						"/>
						<polygon class="st9" points="108.13,140.34 105.64,138.91 105.64,141.78 106.06,142.02 106.06,142.02 107.03,142.58 
							108.13,143.22 108.13,143.22 108.13,143.22 108.13,140.88 108.13,140.88 						"/>
						<polygon class="st9" points="113.1,143.23 110.62,141.8 110.62,144.67 113.1,146.1 113.1,146.1 113.1,146.1 113.1,143.77 
							113.1,143.77 						"/>
						<polygon class="st9" points="98.18,140.34 95.7,138.91 95.7,141.78 96.12,142.02 96.12,142.02 96.75,142.39 98.18,143.22 
							98.18,143.22 98.18,143.22 98.18,140.88 98.18,140.88 						"/>
						<polygon class="st9" points="103.16,143.23 100.67,141.8 100.67,144.67 101.09,144.91 101.09,144.91 101.3,145.03 
							103.16,146.1 103.16,146.1 103.16,146.1 103.16,143.77 103.16,143.77 						"/>
						<polygon class="st9" points="108.13,146.11 105.64,144.67 105.64,147.54 106.06,147.79 106.06,147.79 107.03,148.35 
							108.13,148.98 108.13,148.98 108.13,148.98 108.13,146.65 108.13,146.65 						"/>
						<polygon class="st9" points="113.1,149 110.62,147.56 110.62,150.43 113.1,151.87 113.1,151.87 113.1,151.87 113.1,149.54 
							113.1,149.54 						"/>
					</g>
					<g>
						<polygon class="st9" points="138.94,98.56 138.94,101.43 136.45,102.86 136.45,99.99 						"/>
						<polygon class="st9" points="136.45,102.86 136.45,100.53 138.52,99.34 138.52,101.67 						"/>
						<polygon class="st9" points="133.96,101.44 133.96,104.31 131.48,105.75 131.48,102.88 						"/>
						<polygon class="st9" points="131.47,105.75 131.47,103.42 133.54,102.23 133.54,104.56 						"/>
						<g>
							<polygon class="st9" points="128.99,104.32 128.99,107.19 126.5,108.63 126.5,105.76 							"/>
							<polygon class="st9" points="126.5,108.63 126.5,106.3 128.57,105.1 128.57,107.43 							"/>
						</g>
						<g>
							<polygon class="st9" points="124.01,107.21 124.01,110.08 121.53,111.52 121.53,108.64 							"/>
							<polygon class="st9" points="121.53,111.52 121.53,109.18 123.59,107.99 123.59,110.32 							"/>
						</g>
					</g>
					<g>
						<polygon class="st9" points="138.94,104.32 138.94,107.19 136.45,108.63 136.45,105.76 						"/>
						<polygon class="st9" points="136.45,108.63 136.45,106.3 138.52,105.1 138.52,107.43 						"/>
						<polygon class="st9" points="133.96,107.21 133.96,110.08 131.48,111.52 131.48,108.64 						"/>
						<polygon class="st9" points="131.47,111.52 131.47,109.18 133.54,107.99 133.54,110.32 						"/>
						<g>
							<polygon class="st9" points="128.99,110.08 128.99,112.96 126.5,114.39 126.5,111.52 							"/>
							<polygon class="st9" points="126.5,114.39 126.5,112.06 128.57,110.87 128.57,113.2 							"/>
						</g>
						<g>
							<polygon class="st9" points="124.01,112.97 124.01,115.84 121.53,117.28 121.53,114.41 							"/>
							<polygon class="st9" points="121.53,117.28 121.53,114.95 123.59,113.76 123.59,116.09 							"/>
						</g>
					</g>
				</g>
				<g>
					<polygon class="st2" points="102.63,163.13 102.63,152.59 96.94,149.31 96.94,159.84 					"/>
					<polygon class="st2" points="111.21,168.09 111.21,157.54 104.5,153.67 104.5,164.21 					"/>
				</g>
				<polygon class="st13" points="117.43,74.07 142.28,88.42 117.43,102.76 92.59,88.42 				"/>
				<path class="st12" d="M117.43,74.07L92.59,88.42l24.84,14.34l24.84-14.34L117.43,74.07L117.43,74.07z"/>
			</g>
			<polygon class="st14" points="117.43,102.76 92.56,88.4 92.56,157.32 117.43,171.68 			"/>
		</g>
		<g id="keys">
			<g id="XMLID_2600_">
				<g id="XMLID_7268_">
					<path id="XMLID_7278_" class="st15" d="M143.23,158.73c-1.87-1.37-5.11-1.73-7.23-0.8c-2.12,0.93-2.33,2.8-0.46,4.18
						c0.26,0.19,0.55,0.35,0.85,0.5c-0.6-0.77-0.35-1.64,0.74-2.12c1.31-0.57,3.3-0.35,4.44,0.49c0.96,0.7,1.02,1.61,0.26,2.23
						c0.33-0.08,0.65-0.18,0.94-0.31C144.9,161.97,145.1,160.1,143.23,158.73z"/>
					<path id="XMLID_7269_" class="st16" d="M144.79,161c0.1-0.89-0.39-1.79-1.38-2.51c-1.94-1.42-5.31-1.8-7.52-0.83
						c-1.12,0.49-1.8,1.26-1.9,2.15c0,0,0,0.01,0,0.01c0,0,0,0,0,0.01c-0.1,0.89,0.39,1.79,1.38,2.51c0.25,0.18,0.54,0.36,0.89,0.53
						l1.13,0.56l-0.14-0.17c0.7,0.23,1.46,0.37,2.21,0.42c0.47,0.03,0.94,0.01,1.39-0.03l-0.19,0.15l1.22-0.3
						c0.38-0.09,0.7-0.2,0.98-0.32c1.12-0.49,1.8-1.26,1.9-2.15C144.78,161.01,144.78,161.01,144.79,161
						C144.78,161,144.79,161,144.79,161z M141.74,160.75c-0.69-0.5-1.63-0.8-2.57-0.86c-0.76-0.05-1.53,0.06-2.16,0.34
						c-0.14,0.06-0.26,0.13-0.37,0.2c-0.04-0.12-0.07-0.25-0.06-0.37c0.04-0.38,0.36-0.72,0.89-0.95c1.22-0.53,3.09-0.33,4.16,0.46
						c0.47,0.35,0.71,0.74,0.66,1.12c-0.02,0.14-0.08,0.28-0.18,0.41C142.02,160.98,141.89,160.86,141.74,160.75z M141.71,161.48
						c-0.09,0.06-0.19,0.11-0.3,0.16c-1.22,0.54-3.09,0.33-4.16-0.46c-0.12-0.09-0.22-0.18-0.31-0.27c0.09-0.06,0.19-0.11,0.3-0.16
						c1.22-0.54,3.09-0.33,4.16,0.46C141.52,161.3,141.62,161.39,141.71,161.48z M142.66,162.63c-0.03,0.01-0.06,0.02-0.09,0.03
						c0.05-0.15,0.07-0.3,0.07-0.45c-0.01-0.21-0.07-0.41-0.17-0.61c0.23-0.25,0.37-0.53,0.4-0.85c0.07-0.59-0.25-1.17-0.89-1.65
						c-1.24-0.91-3.32-1.14-4.73-0.52c-0.73,0.32-1.17,0.82-1.23,1.41c-0.03,0.28,0.03,0.55,0.16,0.82
						c-0.17,0.19-0.3,0.41-0.36,0.64c-0.04,0.15-0.05,0.3-0.03,0.46c-0.03-0.02-0.06-0.03-0.08-0.05c-0.82-0.6-1.22-1.3-1.15-1.98
						c0.08-0.68,0.63-1.28,1.56-1.69c2.04-0.89,5.16-0.55,6.95,0.77c0.81,0.6,1.22,1.3,1.15,1.98
						C144.14,161.62,143.59,162.22,142.66,162.63z M136.56,162.36c-0.18-0.26-0.25-0.52-0.19-0.77c0.03-0.1,0.08-0.2,0.15-0.29
						c0.11,0.12,0.24,0.24,0.39,0.35l0,0c0.69,0.5,1.63,0.8,2.57,0.86c0.76,0.05,1.53-0.06,2.16-0.34c0.14-0.06,0.26-0.13,0.38-0.2
						c0.03,0.09,0.05,0.17,0.05,0.26c0.01,0.25-0.12,0.5-0.35,0.71C140.08,163.32,138.08,163.09,136.56,162.36z"/>
				</g>
				<g id="XMLID_7231_">
					<g id="XMLID_7255_">
						<g id="XMLID_7264_">
							<path id="XMLID_7265_" class="st17" d="M149.97,170.28c0.02-0.09,0.03-0.18,0.03-0.27l0.4-3.53l-1.88,1.1
								c-0.7-0.5-1.63-0.92-2.71-1.17l-13.2-3.09c-3.05-0.71-6.2,0.1-7.04,1.81l-0.85,1.77l-1.48,0.25l-0.42,3.77
								c0,0.01,0,0.03,0,0.04l0,0.02l-0.02,0.11c-0.03,0.54,0.59,0.97,1.53,1.19l20.26,4.74c1.1,0.26,2.23-0.04,2.53-0.65l2.69-5.58
								c0.07-0.15,0.12-0.3,0.15-0.45l0.01,0L149.97,170.28z"/>
						</g>
						<g id="XMLID_7258_">
							<path id="XMLID_7259_" class="st18" d="M145.16,177.4c-0.21-0.01-0.42-0.04-0.63-0.09l-20.26-4.74
								c-1.13-0.26-1.78-0.82-1.74-1.48l0.02-0.14l0.45-4.04l1.55-0.26l0.79-1.64c0.91-1.85,4.14-2.72,7.36-1.96l13.2,3.09
								c1.01,0.24,1.92,0.62,2.66,1.11l2.22-1.3l-0.46,4.09c0,0.08-0.01,0.18-0.03,0.28l-0.03,0.26l-0.04,0.01
								c-0.04,0.12-0.08,0.23-0.13,0.34l-2.68,5.58C147.08,177.12,146.16,177.47,145.16,177.4z M123.5,167.4l-0.42,3.74
								c-0.02,0.33,0.5,0.68,1.31,0.87l20.26,4.74c1.04,0.24,2-0.07,2.21-0.5l2.68-5.58c0.06-0.11,0.1-0.24,0.13-0.39l0.01-0.07
								c0.01-0.08,0.02-0.15,0.03-0.23l0.34-2.98l-1.55,0.91l-0.15-0.11c-0.7-0.5-1.6-0.89-2.61-1.13l-13.2-3.09
								c-2.92-0.68-5.93,0.06-6.72,1.66l-0.92,1.9L123.5,167.4z"/>
						</g>
						<g id="XMLID_7256_">
							<path id="XMLID_7257_" class="st18" d="M147.12,176.36l2.69-5.58c0.07-0.15,0.12-0.3,0.15-0.45l0.01,0l0.01-0.07
								c0.02-0.09,0.03-0.18,0.03-0.27l0.4-3.53l-1.88,1.1c-0.29-0.2-0.62-0.39-0.97-0.56l-1.26,6.31l-0.42,3.75
								C146.46,176.98,146.94,176.73,147.12,176.36z"/>
						</g>
					</g>
					<g id="XMLID_7240_">
						<path id="XMLID_7254_" class="st19" d="M136.25,173.92l-5.43-1.28l-0.96,1.97l-1.1-0.09l-0.34,3.05l1.89,1.39l-0.92,2
							l-1.57,0.1l-1.88-0.74l-0.34,3.05l1.97,1.45l-0.2,0.41l-0.13,0.17l-3.1-1.22l-0.46,4.12c-0.08,0.42-0.01,0.86,0.21,1.29
							l0.65,1.23c0.15,0.28,0.52,0.52,0.99,0.63l1.35,0.32c0.47,0.11,0.97,0.08,1.34-0.08l1.5-0.64c0.78-0.34,1.35-0.82,1.62-1.38
							l6.88-14.17l0.53-4.76L136.25,173.92z"/>
						<g id="XMLID_7250_">
							<path id="XMLID_7251_" class="st20" d="M127.29,192.09c-0.15-0.01-0.31-0.03-0.46-0.07l-1.35-0.32
								c-0.55-0.13-0.99-0.42-1.18-0.77l-0.65-1.23c-0.25-0.48-0.34-0.99-0.24-1.47l0.43-4.07l3.31,0.88l0.07-0.14l-1.91-1.4
								l0.37-3.32l0.11-0.23l2.08,0.82l1.33-0.09l0.75-1.63l-1.83-1.35l0.37-3.31l0.08-0.17l1.12,0.09l0.97-2l5.48,1.29l3.01-3.83
								l-0.66,5.84l-6.88,14.17c-0.3,0.63-0.91,1.15-1.76,1.51l-1.5,0.64C128.05,192.06,127.67,192.12,127.29,192.09z
								 M124.39,184.57l-0.42,3.75c-0.08,0.38-0.01,0.75,0.18,1.12l0.65,1.23c0.11,0.2,0.43,0.39,0.81,0.48l1.35,0.32
								c0.4,0.1,0.85,0.07,1.16-0.06l1.5-0.64c0.72-0.31,1.23-0.74,1.47-1.24l6.86-14.12l0.41-3.71l-2,2.55l-5.39-1.27l-0.94,1.94
								l-1.02-0.08l-0.29,2.61l1.94,1.43l-1.09,2.36l-1.8,0.12l-1.59-0.63l-0.28,2.52l2.03,1.49l-0.33,0.67l-0.26,0.33
								L124.39,184.57z"/>
						</g>
						<g id="XMLID_7248_">
							<path id="XMLID_7249_" class="st3" d="M131.8,185.53l6.88-14.17l-7.53-1.77l-2.39,4.93l0,0l1.89,1.39l-0.92,2l-2.7,0.18
								l-0.84,1.73l-0.24,0.5l1.97,1.45l-1.1,2.27l-2.67,0.13c-0.08,0.42-0.01,0.86,0.21,1.29l0.65,1.23
								c0.15,0.28,0.52,0.52,0.99,0.63l1.35,0.32c0.47,0.11,0.97,0.08,1.34-0.08l1.5-0.64C130.97,186.57,131.53,186.09,131.8,185.53
								z"/>
						</g>
						<path id="XMLID_7243_" class="st21" d="M139.07,171.18l0.01-0.02l-8.1-1.9l-2.41,4.96l-0.08,0.17l-0.03,0.27l1.81,1.33
							l-0.75,1.63l-2.69,0.18l-1.04,2.14l-0.11,0.23l-0.03,0.28l1.89,1.39l-0.92,1.9l-2.72,0.13l-0.04,0.22
							c-0.1,0.49-0.02,1,0.24,1.48l0.65,1.23c0.19,0.36,0.62,0.64,1.18,0.77l1.35,0.32c0.15,0.04,0.31,0.06,0.46,0.07
							c0.03,0,0.06,0,0.1,0l0.04,0.03l0.1,0c0.32,0,0.62-0.06,0.86-0.16l1.5-0.64c0.85-0.36,1.46-0.89,1.76-1.51l7.03-14.49
							L139.07,171.18z M138.24,171.57l-6.71,13.83c-0.24,0.5-0.75,0.93-1.47,1.24l-1.5,0.64c-0.08,0.03-0.17,0.06-0.26,0.08
							l7.85-16.29L138.24,171.57z M126.05,187.03c-0.38-0.09-0.7-0.28-0.81-0.49l-0.65-1.23c-0.16-0.29-0.23-0.59-0.21-0.88
							l2.6-0.13l1.27-2.63l-1.97-1.44l0.91-1.87l2.7-0.18l1.09-2.36l-1.88-1.38l2.19-4.51l4.3,1.01l-7.93,16.46
							c-0.09-0.01-0.17-0.02-0.26-0.04L126.05,187.03z"/>
						<g id="XMLID_7241_">
							<path id="XMLID_7242_" class="st20" d="M138.58,171.85l-1.36,2.41l-5.05,10.5l-0.67,1.44l-2.12,1.08l-1.47,0.45l-0.45,4.1
								c0.26,0,0.52-0.05,0.73-0.14l1.5-0.64c0.78-0.34,1.35-0.82,1.62-1.38l6.88-14.17L138.58,171.85z"/>
						</g>
					</g>
					<g id="XMLID_7232_">
						<g id="XMLID_7238_">
							<path id="XMLID_7239_" class="st3" d="M145,173.28l-20.26-4.74c-1.1-0.26-1.74-0.96-1.44-1.58l2.69-5.58
								c0.84-1.71,3.99-2.52,7.04-1.81l13.2,3.09c3.05,0.71,4.84,2.68,4,4.39l-2.69,5.58C147.23,173.24,146.1,173.53,145,173.28z"/>
						</g>
						<path id="XMLID_7233_" class="st16" d="M150.46,165.13c-0.59-1.25-2.15-2.27-4.18-2.75l-13.2-3.09
							c-3.22-0.75-6.45,0.11-7.36,1.96l-2.68,5.58c-0.14,0.28-0.14,0.6,0,0.89c0.24,0.5,0.84,0.91,1.63,1.09l20.26,4.74
							c0.21,0.05,0.42,0.08,0.63,0.09c1.01,0.06,1.92-0.28,2.22-0.9l2.69-5.58C150.79,166.52,150.79,165.81,150.46,165.13z
							 M128.5,168.7l2.43-5.06c0.32-0.66,1.46-1.03,2.69-0.96c0.27,0.02,0.55,0.06,0.83,0.12l8.16,1.91
							c0.96,0.22,1.72,0.71,1.98,1.26c0.12,0.25,0.12,0.5,0.01,0.73l-2.43,5.06c-0.11,0.23-0.67,0.38-1.24,0.25l-11.72-2.74
							c-0.41-0.1-0.63-0.29-0.69-0.42C128.47,168.78,128.48,168.73,128.5,168.7z M149.96,166.92l-2.69,5.58
							c-0.21,0.43-1.17,0.74-2.21,0.5l-2.72-0.64c0.14-0.1,0.26-0.21,0.32-0.35l2.43-5.06c0.19-0.39,0.19-0.81-0.01-1.23
							c-0.34-0.71-1.22-1.3-2.36-1.57l-8.16-1.91c-1.81-0.42-3.64,0.08-4.16,1.14l-2.43,5.06c-0.08,0.17-0.09,0.36-0.03,0.55
							l-3.15-0.74c-0.61-0.14-1.08-0.44-1.24-0.78c-0.07-0.14-0.07-0.27-0.01-0.4l2.68-5.58c0.64-1.31,2.77-2.04,5.12-1.89
							c0.52,0.03,1.06,0.11,1.59,0.24l13.2,3.09c1.83,0.43,3.28,1.36,3.79,2.44C150.2,165.9,150.21,166.43,149.96,166.92z"/>
					</g>
				</g>
				<path class="st16" d="M161.78,147.79c-2.26-1.78-5.63-0.55-5.84-0.46c-1.95,0.9-5.21,1.87-6.38,1.2
					c-0.33-0.19-0.87-0.69-1.44-1.22c-1.74-1.62-4.37-4.07-7.56-3.9c-1.93,0.11-3.77,1.17-5.48,3.15c-1.67,1.95-2.37,4.08-2.07,6.33
					c0.44,3.36,3.03,6.14,4.74,7.64c0.07-0.05,0.65,0.47,0.72,0.43c0.04-0.03,3.6,0.65,3.64,0.62c0.66-0.37-1.79-0.9-1.05-0.84
					c-0.92-0.68-5.54-4.54-6.01-8.13c-0.22-1.67,0.3-3.21,1.59-4.71c1.33-1.54,2.68-2.37,4.03-2.44c2.31-0.13,4.47,1.88,6.05,3.35
					c0.72,0.67,1.28,1.2,1.82,1.5c2.49,1.42,7.32-0.68,8.19-1.09c0.67-0.25,2.67-0.7,3.78,0.18c1.12,0.89,1.12,2.95,0.92,4.51
					c-0.29,2.3-1.65,4.15-4.02,5.5c-3.86,2.2-8.32,3.45-13.26,2.07c0.51,0.4-0.26-0.16,0,0.36c0.15,0.29,0.07-0.08,0.15,0.29
					c0.1,0.02,0.22,0.05,0.35,0.1c0.45-0.03,0.9,0.04,1.34,0.2c0.92,0.19,1.79,0.62,2.55,1.21c0.11,0.07,0.23,0.14,0.34,0.21
					c0.02,0.02,0.05,0.04,0.07,0.06c0.06,0.01,0.12,0.01,0.17,0.01c4.79-0.31,6.27-0.87,9.39-2.65c2.93-1.67,4.6-4.18,4.98-7.11
					C163.85,151.14,163.28,148.99,161.78,147.79z"/>
			</g>
		</g>
	</g>
</g>
</svg>
