<?xml version="1.0" encoding="utf-8"?>
<!-- Generator: Adobe Illustrator 23.0.1, SVG Export Plug-In . SVG Version: 6.00 Build 0)  -->
<svg version="1.1" id="Layer_1" xmlns="http://www.w3.org/2000/svg" xmlns:xlink="http://www.w3.org/1999/xlink" x="0px" y="0px"
	 viewBox="0 0 220 220" style="enable-background:new 0 0 220 220;" xml:space="preserve">
<style type="text/css">
	.st0{fill:#FFFFFF;stroke:#231F20;stroke-width:1.5;stroke-linecap:round;stroke-linejoin:round;stroke-miterlimit:10;}
	.st1{fill:#2E6840;stroke:#231F20;stroke-width:1.5;stroke-linecap:round;stroke-linejoin:round;stroke-miterlimit:10;}
	.st2{fill:#BBBDBF;}
	.st3{enable-background:new    ;}
	.st4{fill:#336B43;stroke:#231F20;stroke-width:1.5939;stroke-linecap:round;stroke-linejoin:round;stroke-miterlimit:10;}
	.st5{fill:#FFFFFF;stroke:#231F20;stroke-width:1.5939;stroke-linecap:round;stroke-linejoin:round;stroke-miterlimit:10;}
	.st6{fill:#BBBDBF;stroke:#231F20;stroke-width:1.5939;stroke-linecap:round;stroke-linejoin:round;stroke-miterlimit:10;}
	.st7{fill:#231F20;stroke:#231F20;stroke-width:1.4193;stroke-linecap:round;stroke-linejoin:round;stroke-miterlimit:10;}
	.st8{fill:#336B43;stroke:#231F20;stroke-width:1.4193;stroke-linecap:round;stroke-linejoin:round;stroke-miterlimit:10;}
	.st9{fill:#2E6840;}
</style>
<g>
	<g>
		<path class="st0" d="M90.02,87.22L8.05,134.54l121.92,70.85l81.97-47.32L90.02,87.22z"/>
		<g>
			<polygon class="st1" points="8.05,134.54 8.07,140.15 129.98,211 129.97,205.39 			"/>
		</g>
		<g>
			<polygon class="st1" points="129.97,205.39 129.98,211 211.95,163.68 211.93,158.07 			"/>
		</g>
		<g>
			<g>
				<polygon class="st2" points="110.43,113.32 107.93,114.76 77.96,98.49 80.46,97.04 				"/>
			</g>
			<g>
				<polygon class="st2" points="64.54,116.2 62.04,117.64 53.15,112.82 55.65,111.38 				"/>
			</g>
			<g>
				<polygon class="st2" points="121.59,119.38 119.09,120.82 115.03,118.62 117.53,117.18 				"/>
			</g>
			<g>
				<polygon class="st2" points="136.44,121.46 133.94,122.91 117.64,114.06 120.14,112.61 				"/>
			</g>
			<g>
				<polygon class="st2" points="131.1,124.55 128.6,125.99 120.45,121.57 122.95,120.12 				"/>
			</g>
			<g>
				<polygon class="st2" points="44.43,127.82 41.93,129.27 33.05,124.44 35.55,123 				"/>
			</g>
			<g>
				<polygon class="st2" points="111,136.17 108.5,137.61 100.35,133.19 102.85,131.74 				"/>
			</g>
			<g>
				<polygon class="st2" points="98.39,123.34 95.89,124.78 90.43,121.82 92.93,120.37 				"/>
			</g>
			<g>
				<polygon class="st2" points="106.3,138.88 103.8,140.33 78.11,126.37 80.61,124.93 				"/>
			</g>
			<g>
				<polygon class="st2" points="96.22,144.7 93.72,146.15 77.43,137.3 79.93,135.85 				"/>
			</g>
			<g>
				<polygon class="st2" points="50.1,148.18 47.6,149.63 17.63,133.35 20.13,131.91 				"/>
			</g>
			<g>
				<polygon class="st2" points="78.28,134.96 75.78,136.4 70.32,133.44 72.82,132 				"/>
			</g>
			<g>
				<polygon class="st2" points="86.19,150.5 83.69,151.95 58,137.99 60.5,136.55 				"/>
			</g>
			<g>
				<polygon class="st2" points="81.15,153.41 78.65,154.86 55.9,142.5 58.4,141.05 				"/>
			</g>
			<g>
				<polygon class="st2" points="61.26,154.24 58.76,155.69 54.71,153.49 57.21,152.04 				"/>
			</g>
			<g>
				<polygon class="st2" points="70.78,159.41 68.28,160.86 60.13,156.43 62.63,154.99 				"/>
			</g>
			<g>
				<polygon class="st2" points="58.17,146.58 55.67,148.03 50.21,145.06 52.71,143.62 				"/>
			</g>
			<g>
				<polygon class="st2" points="104.32,104.01 101.82,105.46 83.29,95.4 85.79,93.96 				"/>
			</g>
			<g>
				<polygon class="st2" points="84.64,104.58 82.14,106.02 73.26,101.2 75.76,99.75 				"/>
			</g>
			<g>
				<polygon class="st2" points="89.92,107.44 87.42,108.89 83.22,106.61 85.72,105.16 				"/>
			</g>
			<g>
				<polygon class="st2" points="111.39,107.86 108.89,109.3 103.43,106.34 105.93,104.89 				"/>
			</g>
			<g>
				<polygon class="st2" points="94.95,110.17 92.45,111.62 88.25,109.34 90.75,107.89 				"/>
			</g>
			<g>
				<polygon class="st2" points="118.5,111.72 116,113.16 110.54,110.2 113.04,108.75 				"/>
			</g>
			<g>
				<polygon class="st2" points="99.97,112.9 97.47,114.35 93.27,112.07 95.77,110.62 				"/>
			</g>
			<g>
				<polygon class="st2" points="84.21,115.64 81.71,117.08 63.19,107.02 65.69,105.58 				"/>
			</g>
			<g>
				<polygon class="st2" points="116.24,116.48 113.74,117.92 109.69,115.72 112.19,114.27 				"/>
			</g>
			<g>
				<polygon class="st2" points="97.65,117.29 95.15,118.73 68.22,104.11 70.72,102.67 				"/>
			</g>
			<g>
				<polygon class="st2" points="69.82,119.07 67.32,120.51 63.11,118.23 65.61,116.78 				"/>
			</g>
			<g>
				<polygon class="st2" points="91.28,119.48 88.78,120.92 83.32,117.96 85.82,116.51 				"/>
			</g>
			<g>
				<polygon class="st2" points="74.84,121.79 72.34,123.24 68.14,120.96 70.64,119.51 				"/>
			</g>
			<g>
				<polygon class="st2" points="79.86,124.52 77.36,125.97 73.17,123.69 75.67,122.24 				"/>
			</g>
			<g>
				<polygon class="st2" points="90.32,124.94 87.82,126.38 57.85,110.11 60.35,108.66 				"/>
			</g>
			<g>
				<polygon class="st2" points="64.1,127.26 61.6,128.7 43.08,118.64 45.58,117.2 				"/>
			</g>
			<g>
				<polygon class="st2" points="126.41,127.26 123.91,128.7 98.22,114.75 100.72,113.31 				"/>
			</g>
			<g>
				<polygon class="st2" points="96.13,128.1 93.63,129.54 89.58,127.34 92.08,125.9 				"/>
			</g>
			<g>
				<polygon class="st2" points="77.54,128.91 75.04,130.35 48.12,115.73 50.62,114.29 				"/>
			</g>
			<g>
				<polygon class="st2" points="49.71,130.69 47.21,132.13 43,129.85 45.5,128.41 				"/>
			</g>
			<g>
				<polygon class="st2" points="121.37,130.17 118.87,131.62 96.11,119.26 98.61,117.81 				"/>
			</g>
			<g>
				<polygon class="st2" points="71.17,131.1 68.67,132.54 63.21,129.58 65.71,128.14 				"/>
			</g>
			<g>
				<polygon class="st2" points="101.48,131 98.98,132.44 94.92,130.24 97.42,128.8 				"/>
			</g>
			<g>
				<polygon class="st2" points="54.73,133.42 52.23,134.86 48.03,132.58 50.53,131.13 				"/>
			</g>
			<g>
				<polygon class="st2" points="116.33,133.08 113.83,134.53 97.54,125.68 100.03,124.23 				"/>
			</g>
			<g>
				<polygon class="st2" points="59.76,136.15 57.26,137.59 53.06,135.31 55.56,133.87 				"/>
			</g>
			<g>
				<polygon class="st2" points="70.21,136.56 67.71,138.01 37.74,121.73 40.24,120.28 				"/>
			</g>
			<g>
				<polygon class="st2" points="43.99,138.88 41.49,140.32 22.97,130.27 25.47,128.82 				"/>
			</g>
			<g>
				<polygon class="st2" points="76.03,139.72 73.53,141.16 69.47,138.96 71.97,137.52 				"/>
			</g>
			<g>
				<polygon class="st2" points="57.43,140.53 54.93,141.97 28.01,127.35 30.51,125.91 				"/>
			</g>
			<g>
				<polygon class="st2" points="101.26,141.79 98.76,143.24 76,130.88 78.5,129.43 				"/>
			</g>
			<g>
				<polygon class="st2" points="51.06,142.72 48.56,144.16 43.11,141.2 45.61,139.76 				"/>
			</g>
			<g>
				<polygon class="st2" points="81.37,142.62 78.87,144.07 74.81,141.86 77.31,140.42 				"/>
			</g>
			<g>
				<polygon class="st2" points="90.89,147.79 88.39,149.23 80.24,144.81 82.74,143.36 				"/>
			</g>
			<g>
				<polygon class="st2" points="55.92,151.34 53.42,152.79 49.36,150.58 51.86,149.14 				"/>
			</g>
			<g>
				<polygon class="st2" points="76.12,156.33 73.62,157.77 57.32,148.92 59.82,147.48 				"/>
			</g>
		</g>
		<g>
			<g>
				<polygon class="st2" points="171.99,149.21 169.49,150.66 139.52,134.38 142.02,132.93 				"/>
			</g>
			<g>
				<polygon class="st2" points="126.1,152.09 123.6,153.54 114.71,148.71 117.21,147.27 				"/>
			</g>
			<g>
				<polygon class="st2" points="183.15,155.27 180.65,156.72 176.59,154.51 179.09,153.07 				"/>
			</g>
			<g>
				<polygon class="st2" points="198,157.36 195.5,158.8 179.2,149.95 181.7,148.5 				"/>
			</g>
			<g>
				<polygon class="st2" points="192.66,160.44 190.16,161.88 182.01,157.46 184.51,156.01 				"/>
			</g>
			<g>
				<polygon class="st2" points="105.99,163.71 103.49,165.16 94.6,160.34 97.1,158.89 				"/>
			</g>
			<g>
				<polygon class="st2" points="172.55,172.06 170.05,173.51 161.91,169.08 164.41,167.64 				"/>
			</g>
			<g>
				<polygon class="st2" points="159.95,159.23 157.45,160.67 151.99,157.71 154.49,156.27 				"/>
			</g>
			<g>
				<polygon class="st2" points="167.86,174.77 165.36,176.22 139.67,162.27 142.17,160.82 				"/>
			</g>
			<g>
				<polygon class="st2" points="157.78,180.6 155.28,182.04 138.99,173.19 141.49,171.75 				"/>
			</g>
			<g>
				<polygon class="st2" points="111.66,184.08 109.16,185.52 79.19,169.24 81.69,167.8 				"/>
			</g>
			<g>
				<polygon class="st2" points="139.84,170.85 137.34,172.3 131.88,169.33 134.38,167.89 				"/>
			</g>
			<g>
				<polygon class="st2" points="147.75,186.4 145.25,187.84 119.56,173.89 122.06,172.44 				"/>
			</g>
			<g>
				<polygon class="st2" points="142.71,189.31 140.21,190.75 117.45,178.39 119.95,176.95 				"/>
			</g>
			<g>
				<polygon class="st2" points="122.82,190.14 120.32,191.58 116.27,189.38 118.76,187.93 				"/>
			</g>
			<g>
				<polygon class="st2" points="132.34,195.3 129.84,196.75 121.69,192.32 124.19,190.88 				"/>
			</g>
			<g>
				<polygon class="st2" points="119.73,182.47 117.23,183.92 111.77,180.96 114.27,179.51 				"/>
			</g>
			<g>
				<polygon class="st2" points="165.87,139.91 163.37,141.35 144.85,131.29 147.35,129.85 				"/>
			</g>
			<g>
				<polygon class="st2" points="146.2,140.47 143.7,141.92 134.82,137.09 137.32,135.65 				"/>
			</g>
			<g>
				<polygon class="st2" points="151.48,143.34 148.98,144.78 144.78,142.5 147.28,141.06 				"/>
			</g>
			<g>
				<polygon class="st2" points="172.95,143.75 170.45,145.19 164.99,142.23 167.49,140.79 				"/>
			</g>
			<g>
				<polygon class="st2" points="156.51,146.07 154.01,147.51 149.81,145.23 152.31,143.78 				"/>
			</g>
			<g>
				<polygon class="st2" points="180.05,147.61 177.55,149.05 172.1,146.09 174.6,144.65 				"/>
			</g>
			<g>
				<polygon class="st2" points="161.53,148.8 159.03,150.24 154.83,147.96 157.33,146.52 				"/>
			</g>
			<g>
				<polygon class="st2" points="145.77,151.53 143.27,152.97 124.74,142.92 127.24,141.47 				"/>
			</g>
			<g>
				<polygon class="st2" points="177.8,152.37 175.3,153.81 171.25,151.61 173.75,150.17 				"/>
			</g>
			<g>
				<polygon class="st2" points="159.21,153.18 156.71,154.62 129.78,140 132.28,138.56 				"/>
			</g>
			<g>
				<polygon class="st2" points="131.37,154.96 128.87,156.4 124.67,154.12 127.17,152.68 				"/>
			</g>
			<g>
				<polygon class="st2" points="152.84,155.37 150.34,156.82 144.88,153.85 147.38,152.41 				"/>
			</g>
			<g>
				<polygon class="st2" points="136.4,157.69 133.9,159.13 129.7,156.85 132.2,155.41 				"/>
			</g>
			<g>
				<polygon class="st2" points="141.42,160.42 138.92,161.86 134.73,159.58 137.23,158.14 				"/>
			</g>
			<g>
				<polygon class="st2" points="151.88,160.83 149.38,162.28 119.41,146 121.91,144.56 				"/>
			</g>
			<g>
				<polygon class="st2" points="125.66,163.15 123.16,164.6 104.64,154.54 107.14,153.09 				"/>
			</g>
			<g>
				<polygon class="st2" points="187.97,163.15 185.47,164.6 159.78,150.64 162.28,149.2 				"/>
			</g>
			<g>
				<polygon class="st2" points="157.69,163.99 155.19,165.44 151.14,163.23 153.64,161.79 				"/>
			</g>
			<g>
				<polygon class="st2" points="139.1,164.8 136.6,166.25 109.67,151.63 112.17,150.18 				"/>
			</g>
			<g>
				<polygon class="st2" points="111.27,166.58 108.77,168.03 104.56,165.74 107.06,164.3 				"/>
			</g>
			<g>
				<polygon class="st2" points="182.93,166.06 180.43,167.51 157.67,155.15 160.17,153.7 				"/>
			</g>
			<g>
				<polygon class="st2" points="132.73,166.99 130.23,168.44 124.77,165.47 127.27,164.03 				"/>
			</g>
			<g>
				<polygon class="st2" points="163.04,166.89 160.54,168.34 156.48,166.14 158.98,164.69 				"/>
			</g>
			<g>
				<polygon class="st2" points="116.29,169.31 113.79,170.75 109.59,168.47 112.09,167.03 				"/>
			</g>
			<g>
				<polygon class="st2" points="177.89,168.98 175.39,170.42 159.09,161.57 161.59,160.13 				"/>
			</g>
			<g>
				<polygon class="st2" points="121.32,172.04 118.82,173.48 114.62,171.2 117.12,169.76 				"/>
			</g>
			<g>
				<polygon class="st2" points="131.77,172.45 129.27,173.9 99.3,157.62 101.8,156.18 				"/>
			</g>
			<g>
				<polygon class="st2" points="105.55,174.77 103.05,176.22 84.53,166.16 87.03,164.71 				"/>
			</g>
			<g>
				<polygon class="st2" points="137.58,175.61 135.08,177.06 131.03,174.85 133.53,173.41 				"/>
			</g>
			<g>
				<polygon class="st2" points="118.99,176.42 116.49,177.87 89.57,163.25 92.07,161.8 				"/>
			</g>
			<g>
				<polygon class="st2" points="162.82,177.69 160.32,179.13 137.56,166.77 140.06,165.33 				"/>
			</g>
			<g>
				<polygon class="st2" points="112.62,178.61 110.12,180.06 104.67,177.1 107.17,175.65 				"/>
			</g>
			<g>
				<polygon class="st2" points="142.93,178.51 140.43,179.96 136.37,177.76 138.87,176.31 				"/>
			</g>
			<g>
				<polygon class="st2" points="152.45,183.68 149.95,185.13 141.8,180.7 144.3,179.26 				"/>
			</g>
			<g>
				<polygon class="st2" points="117.48,187.23 114.98,188.68 110.92,186.48 113.42,185.03 				"/>
			</g>
			<g>
				<polygon class="st2" points="137.68,192.22 135.18,193.66 118.88,184.81 121.38,183.37 				"/>
			</g>
		</g>
		<path class="st0" d="M148.38,121.38l-80.73,47.81"/>
	</g>
	<g class="st3">
		<g>
			<polygon class="st4" points="103.4,176.39 94.83,181.29 94.34,178.71 89.89,178.39 98.46,173.49 			"/>
		</g>
		<path class="st5" d="M142.15,177.64c-0.05-0.03-0.1-0.06-0.15-0.08c-0.03-0.02-0.07-0.03-0.1-0.05c-0.03-0.02-0.07-0.03-0.1-0.04
			c-0.03-0.01-0.06-0.03-0.09-0.04c-0.04-0.01-0.07-0.03-0.11-0.04c0,0,0,0-0.01,0c-0.04-0.01-0.08-0.03-0.12-0.04
			c-0.03-0.01-0.05-0.02-0.08-0.02c-0.02-0.01-0.03-0.01-0.05-0.01c-0.01,0-0.03-0.01-0.04-0.01c-0.03-0.01-0.06-0.02-0.1-0.02
			c-0.03-0.01-0.06-0.02-0.1-0.02c-0.04-0.01-0.08-0.02-0.12-0.02c-0.03-0.01-0.06-0.01-0.09-0.01c0,0,0,0,0,0
			c-0.07-0.01-0.14-0.02-0.21-0.02c-0.07,0-0.15-0.01-0.22-0.01c-0.91-0.01-1.93,0.28-3.02,0.9c-3.73,2.11-6.76,7.29-6.78,11.55
			c0,0.08,0,0.15,0,0.23c0,0.06,0,0.11,0.01,0.17c0,0.07,0.01,0.14,0.01,0.21c0.01,0.09,0.01,0.18,0.02,0.27
			c0.01,0.05,0.01,0.1,0.02,0.15c0.01,0.09,0.02,0.19,0.04,0.28c0.01,0.05,0.02,0.09,0.03,0.14c0.02,0.09,0.03,0.18,0.05,0.26
			c0.02,0.09,0.04,0.17,0.07,0.25c0.01,0.04,0.02,0.07,0.03,0.11c0,0,0,0.01,0,0.01c0.03,0.11,0.07,0.22,0.11,0.33
			c0.01,0.03,0.02,0.06,0.03,0.09c0.01,0.04,0.03,0.08,0.05,0.11c0.03,0.08,0.07,0.15,0.1,0.22v0c0.04,0.07,0.07,0.14,0.12,0.21
			c0.04,0.07,0.08,0.14,0.12,0.2c0.04,0.06,0.08,0.12,0.12,0.18c0,0,0.01,0.01,0.01,0.01c0.03,0.04,0.05,0.07,0.08,0.1
			c0.04,0.05,0.08,0.1,0.13,0.15c0.02,0.02,0.04,0.05,0.07,0.07c0.04,0.04,0.07,0.08,0.11,0.12c0.01,0,0.01,0.01,0.02,0.01
			c0.04,0.04,0.07,0.07,0.12,0.11c0,0,0.01,0.01,0.02,0.01c0,0,0.01,0.01,0.01,0.01c0.05,0.04,0.11,0.09,0.17,0.13c0,0,0,0,0,0
			c0.06,0.04,0.12,0.09,0.19,0.13l-33.04-19.59l-5.42-3.21l-19.59-11.61c-1.2-0.71-1.94-2.21-1.93-4.32
			c0.02-4.26,3.05-9.43,6.78-11.55c1.87-1.06,3.57-1.15,4.78-0.43l19.59,11.61l5.56,3.3l32.88,19.5L142.15,177.64z"/>
		<path class="st4" d="M112.76,160.24c-0.69,0.16-1.43,0.45-2.19,0.88c-4.29,2.44-7.79,8.4-7.81,13.31c0,0.75,0.08,1.42,0.22,2.03
			l-5.42-3.21c-0.34-0.78-0.53-1.73-0.53-2.85c0.02-4.61,3.31-10.21,7.34-12.5c1-0.57,1.96-0.88,2.82-0.96L112.76,160.24z"/>
		<g>
			<path class="st6" d="M137.41,178.1c3.73-2.12,6.73-0.37,6.71,3.89c-0.02,4.26-3.05,9.44-6.78,11.55
				c-3.73,2.12-6.73,0.37-6.71-3.89C130.65,185.39,133.69,180.22,137.41,178.1z"/>
		</g>
	</g>
	<g>
		<g>
			<path class="st7" d="M121.82,92.01c-0.01,0.01-0.03,0.02-0.04,0.03c-0.31,0.25-0.64,0.49-0.97,0.73
				c-0.04,0.03-0.07,0.05-0.11,0.08c-0.33,0.24-0.68,0.47-1.03,0.7c-0.04,0.03-0.09,0.06-0.13,0.09c-0.38,0.24-0.77,0.48-1.18,0.72
				c-0.38,0.22-0.77,0.43-1.16,0.64c-0.1,0.05-0.21,0.11-0.31,0.16c-0.35,0.18-0.71,0.36-1.07,0.53c-0.05,0.02-0.09,0.05-0.14,0.07
				c-0.4,0.19-0.82,0.37-1.23,0.55c-0.11,0.05-0.21,0.09-0.32,0.14c-0.35,0.15-0.71,0.29-1.07,0.43c-0.08,0.03-0.15,0.06-0.23,0.09
				c-0.43,0.16-0.86,0.32-1.3,0.47c-0.11,0.04-0.21,0.07-0.32,0.11c-0.29,0.1-0.59,0.19-0.89,0.29c-0.28,0.09-0.57,0.18-0.85,0.26
				c-0.24,0.07-0.48,0.14-0.73,0.21c-0.29,0.08-0.58,0.16-0.87,0.23c-0.24,0.06-0.49,0.13-0.74,0.19c-0.3,0.07-0.59,0.14-0.89,0.21
				c-0.25,0.06-0.49,0.11-0.74,0.16c-0.3,0.06-0.61,0.12-0.91,0.18c-0.27,0.05-0.54,0.11-0.82,0.15c-0.12,0.02-0.25,0.04-0.37,0.06
				c-0.42,0.07-0.84,0.14-1.26,0.2c-0.07,0.01-0.14,0.02-0.21,0.03c-0.48,0.07-0.97,0.13-1.45,0.18c-0.12,0.01-0.24,0.03-0.37,0.04
				c-0.3,0.03-0.6,0.06-0.9,0.09c-0.37,0.03-0.75,0.07-1.13,0.09c-0.24,0.02-0.47,0.03-0.71,0.05c-0.39,0.02-0.79,0.04-1.18,0.06
				c-0.22,0.01-0.44,0.02-0.66,0.03c-0.34,0.01-0.68,0.01-1.02,0.02c-0.24,0-0.48,0.01-0.72,0.01c-0.36,0-0.73-0.01-1.09-0.01
				c-0.22,0-0.43,0-0.65-0.01c-0.33-0.01-0.67-0.02-1-0.04c-0.23-0.01-0.47-0.02-0.7-0.03c-0.36-0.02-0.72-0.05-1.08-0.07
				c-0.21-0.02-0.41-0.03-0.62-0.04c-0.43-0.04-0.86-0.08-1.29-0.13c-0.13-0.01-0.26-0.02-0.39-0.04c-0.56-0.06-1.12-0.13-1.67-0.21
				c-0.09-0.01-0.18-0.03-0.27-0.04c-0.48-0.07-0.95-0.14-1.42-0.22c-0.2-0.03-0.4-0.07-0.59-0.11c-0.36-0.07-0.72-0.13-1.08-0.21
				c-0.19-0.04-0.38-0.08-0.56-0.12c-0.39-0.09-0.79-0.17-1.18-0.27c-0.22-0.05-0.43-0.11-0.65-0.16c-0.36-0.09-0.71-0.18-1.06-0.28
				c-0.3-0.08-0.6-0.17-0.9-0.26c-0.11-0.03-0.22-0.07-0.34-0.1c-0.45-0.14-0.9-0.28-1.34-0.43c-0.08-0.03-0.17-0.06-0.25-0.09
				c-0.37-0.13-0.73-0.26-1.09-0.39c-0.12-0.05-0.24-0.09-0.37-0.14c-0.29-0.11-0.57-0.23-0.85-0.34c-0.19-0.08-0.39-0.16-0.58-0.24
				c-0.27-0.12-0.54-0.24-0.81-0.36c-0.18-0.08-0.36-0.16-0.53-0.24c-0.29-0.14-0.58-0.29-0.87-0.43c-0.14-0.07-0.29-0.14-0.43-0.22
				c-0.43-0.22-0.85-0.45-1.26-0.69c-1.28-0.74-2.45-1.52-3.49-2.34h-6.88l-0.07,25.05c-0.01,5.22,3.43,10.46,10.34,14.44
				c0.41,0.24,0.83,0.47,1.26,0.69c0.14,0.07,0.29,0.15,0.43,0.22c0.29,0.15,0.58,0.29,0.87,0.43c0.17,0.08,0.35,0.16,0.53,0.24
				c0.27,0.12,0.54,0.25,0.82,0.36c0.19,0.08,0.39,0.16,0.58,0.24c0.19,0.08,0.37,0.16,0.56,0.23c0.1,0.04,0.19,0.07,0.29,0.11
				c0.12,0.05,0.24,0.09,0.37,0.14c0.36,0.13,0.72,0.27,1.09,0.39c0.09,0.03,0.17,0.06,0.25,0.09c0.44,0.15,0.89,0.29,1.34,0.43
				c0.11,0.03,0.22,0.07,0.34,0.1c0.19,0.06,0.38,0.12,0.58,0.17c0.11,0.03,0.22,0.06,0.32,0.09c0.35,0.1,0.71,0.19,1.06,0.28
				c0.22,0.05,0.43,0.11,0.65,0.16c0.39,0.09,0.78,0.18,1.18,0.27c0.15,0.03,0.29,0.07,0.44,0.1c0.04,0.01,0.08,0.01,0.12,0.02
				c0.36,0.07,0.72,0.14,1.08,0.21c0.2,0.04,0.39,0.08,0.59,0.11c0.47,0.08,0.95,0.16,1.43,0.23c0.08,0.01,0.16,0.03,0.25,0.04
				c0,0,0.01,0,0.01,0c0.56,0.08,1.11,0.15,1.67,0.21c0.13,0.01,0.26,0.02,0.39,0.04c0.43,0.05,0.86,0.09,1.29,0.13
				c0.01,0,0.02,0,0.03,0c0.2,0.02,0.39,0.03,0.59,0.04c0.36,0.03,0.72,0.05,1.08,0.07c0.23,0.01,0.47,0.02,0.7,0.03
				c0.33,0.01,0.67,0.03,1,0.04c0.03,0,0.05,0,0.08,0c0.19,0,0.37,0,0.56,0.01c0.37,0.01,0.73,0.01,1.1,0.01
				c0.24,0,0.48-0.01,0.71-0.01c0.34,0,0.68-0.01,1.02-0.02c0.06,0,0.13,0,0.19,0c0.16-0.01,0.32-0.02,0.48-0.02
				c0.39-0.02,0.79-0.04,1.18-0.06c0.24-0.01,0.47-0.03,0.71-0.05c0.38-0.03,0.75-0.06,1.13-0.09c0.13-0.01,0.26-0.02,0.4-0.03
				c0.17-0.02,0.34-0.04,0.51-0.06c0.12-0.01,0.24-0.03,0.37-0.04c0.49-0.06,0.97-0.12,1.45-0.18c0.07-0.01,0.14-0.02,0.21-0.03
				c0.42-0.06,0.84-0.13,1.26-0.2c0.12-0.02,0.25-0.04,0.37-0.06c0.1-0.02,0.2-0.03,0.3-0.05c0.17-0.03,0.35-0.07,0.52-0.1
				c0.31-0.06,0.61-0.12,0.92-0.18c0.25-0.05,0.49-0.11,0.74-0.16c0.3-0.07,0.6-0.13,0.89-0.21c0.25-0.06,0.49-0.12,0.74-0.19
				c0.29-0.08,0.58-0.15,0.87-0.23c0.24-0.07,0.48-0.14,0.73-0.21c0.29-0.08,0.57-0.17,0.85-0.26c0.12-0.04,0.25-0.07,0.37-0.11
				c0.17-0.06,0.34-0.12,0.52-0.17c0.11-0.04,0.21-0.07,0.32-0.11c0.44-0.15,0.87-0.31,1.29-0.47c0.08-0.03,0.16-0.06,0.23-0.09
				c0.36-0.14,0.72-0.29,1.07-0.43c0.11-0.05,0.22-0.09,0.32-0.14c0.42-0.18,0.83-0.36,1.23-0.55c0.05-0.02,0.1-0.05,0.14-0.07
				c0.36-0.17,0.72-0.35,1.07-0.53c0.1-0.05,0.21-0.11,0.31-0.16c0.39-0.21,0.78-0.42,1.16-0.64c0.14-0.08,0.29-0.17,0.43-0.25
				c0.26-0.15,0.5-0.31,0.75-0.47c0.04-0.03,0.09-0.06,0.13-0.09c0.35-0.23,0.7-0.46,1.03-0.7c0.04-0.03,0.07-0.05,0.11-0.08
				c0.33-0.24,0.66-0.48,0.97-0.73c0.03-0.02,0.06-0.05,0.09-0.07c0.32-0.25,0.62-0.5,0.91-0.76c0.02-0.02,0.04-0.04,0.07-0.06
				c0.13-0.11,0.25-0.22,0.37-0.33c0.13-0.12,0.26-0.25,0.39-0.38c0.05-0.04,0.09-0.09,0.14-0.13c0.25-0.25,0.5-0.51,0.73-0.76
				c0.05-0.06,0.11-0.12,0.16-0.18c0.2-0.22,0.39-0.44,0.57-0.67c0.04-0.05,0.08-0.1,0.12-0.14c0.02-0.02,0.04-0.04,0.06-0.07
				c0.19-0.24,0.36-0.48,0.53-0.72c0.04-0.05,0.07-0.1,0.1-0.15c0.18-0.26,0.36-0.53,0.52-0.8c0.03-0.04,0.05-0.09,0.08-0.13
				c0.06-0.1,0.12-0.2,0.18-0.3c0.1-0.17,0.19-0.35,0.28-0.53c0.01-0.02,0.02-0.04,0.03-0.06c0.15-0.3,0.29-0.59,0.42-0.89
				c0,0,0-0.01,0-0.01c0.07-0.17,0.14-0.34,0.2-0.51c0.05-0.13,0.1-0.27,0.14-0.4c0.01-0.02,0.01-0.04,0.02-0.06
				c0.1-0.29,0.18-0.59,0.26-0.89c0.01-0.03,0.01-0.05,0.02-0.08c0.05-0.18,0.09-0.37,0.12-0.55c0.02-0.11,0.04-0.21,0.06-0.32
				c0.01-0.03,0.01-0.07,0.02-0.1c0.05-0.29,0.08-0.57,0.11-0.86c0-0.04,0.01-0.08,0.01-0.12c0.02-0.2,0.03-0.41,0.04-0.61
				c0-0.1,0-0.2,0-0.31l0.07-25.25H121.82z"/>
			<g>
				<path class="st7" d="M65.36,92.01c1.04,0.82,2.21,1.6,3.49,2.34c13.72,7.92,35.89,7.92,49.51,0c1.27-0.74,2.43-1.52,3.46-2.34
					H65.36z"/>
			</g>
		</g>
		<g>
			<g>
				<polygon class="st8" points="161.28,83.39 161.27,87.84 93.69,127.12 93.7,122.66 				"/>
			</g>
		</g>
		<g>
			<polygon class="st8" points="93.7,122.66 93.69,127.12 25.66,87.85 25.67,83.39 			"/>
		</g>
		<g>
			<polygon class="st7" points="161.28,83.39 93.7,122.66 25.67,83.39 93.26,44.11 			"/>
		</g>
		<path class="st9" d="M127.4,137.92v-31.57c0-2.01-1.07-3.91-2.79-4.95L97.17,84.75c1.08-0.98,0.88-2.3-0.61-3.16
			c-1.72-0.99-4.49-0.99-6.19,0c-1.7,0.99-1.7,2.59,0.02,3.59c1.42,0.82,3.56,0.95,5.23,0.41l28.2,17.11
			c1.27,0.77,2.06,2.17,2.06,3.65v31.62c-1.9,0.96-3.41,5.2-3.82,10.64c-0.12,1.59,1.15,2.95,2.75,2.95h3.8
			c1.6,0,2.87-1.36,2.75-2.95C130.93,143.05,129.36,138.76,127.4,137.92z"/>
	</g>
</g>
</svg>
