<?xml version="1.0" encoding="UTF-8"?>
<svg width="504px" height="102px" viewBox="0 0 504 102" version="1.1" xmlns="http://www.w3.org/2000/svg" xmlns:xlink="http://www.w3.org/1999/xlink">
    <title>centaurus_Black logo - no background</title>
    <g id="页面-2" stroke="none" stroke-width="1" fill="none" fill-rule="evenodd">
        <g id="banner、切图" transform="translate(-5039.000000, -907.000000)" fill-rule="nonzero">
            <g id="centaurus_Black-logo---no-background" transform="translate(5039.000000, 907.000000)">
                <g id="编组" fill="#FFFFFF">
                    <path d="M44.4156022,19.0233129 C47.1280054,19.8159509 49.8827899,20.3582822 52.6799557,20.7337423 C53.4004378,20.8171779 54.1209199,20.9006135 54.7990207,20.9840491 C54.841402,20.7337423 54.8837833,20.4417178 54.9261646,20.191411 C55.2228337,18.397546 55.5618841,16.5619632 55.8585532,14.7680982 C56.536654,10.7214724 57.2571361,6.63312883 58.5709564,2.75337423 C58.8252442,2.04417178 59.079532,1.33496933 59.3338198,0.625766871 C57.6385678,0.375460123 55.9009345,0.208588957 54.2056825,0.125153374 C53.7818695,0.0834355828 53.3580565,0.0834355828 52.9766248,0.0834355828 C52.6799557,2.4196319 52.0866175,4.71411043 51.2389915,6.88343558 C50.0523151,10.0122699 48.5265883,13.0159509 46.6618111,15.8527607 C45.9837103,16.8957055 45.2208469,17.9386503 44.4156022,19.0233129 Z" id="路径"></path>
                    <path d="M53.9513947,28.5766871 C54.0361573,27.2834356 54.1209199,25.990184 54.2904451,24.6969325 C52.4256679,24.5300613 50.603272,24.2380368 48.7808761,23.9042945 C46.4499046,23.4871166 44.1189331,22.9030675 41.8727242,22.193865 C41.4489113,22.6944785 40.982717,23.195092 40.5165227,23.6957055 C37.5074504,26.9496933 34.1169464,29.8282209 30.387392,32.2478528 C29.3278595,32.9570552 28.2259457,33.6245399 27.0816506,34.2503067 C27.7597514,37.2539877 28.0140392,40.4245399 27.7597514,43.4699387 C27.6749888,44.7214724 27.5054636,46.0147239 27.2511758,47.2662577 C27.8868953,47.1828221 28.4802335,47.0993865 29.115953,47.0159509 C37.7193569,45.8478528 46.2379981,44.2208589 54.6294955,42.0515337 C53.9513947,37.5877301 53.6971069,33.0822086 53.9513947,28.5766871 Z" id="路径"></path>
                    <path d="M23.5216214,58.2797546 C23.2673336,58.8638037 22.9706645,59.406135 22.7163767,59.9484663 C23.9030531,60.3656442 25.0897295,60.8245399 26.2340246,61.3668712 C30.1331042,63.1607362 33.777896,65.5386503 36.9141122,68.4171779 C36.9988748,68.5006135 37.1260187,68.5840491 37.2107813,68.6674847 C42.7627315,61.4503067 48.1027753,54.0245399 52.9342435,46.3484663 C44.1613144,48.4760736 35.3036228,50.0613497 26.3187872,51.1042945 C25.5559238,53.5656442 24.6235352,55.9435583 23.5216214,58.2797546 Z" id="路径"></path>
                    <path d="M58.6133377,21.2343558 C61.1562157,21.3177914 63.741475,21.2760736 66.284353,21.0674847 C67.3862668,18.4392638 68.403418,15.8110429 69.3781879,13.0993865 C70.395339,10.1374233 71.3701089,7.13374233 72.0058284,4.04662577 C71.6243967,3.8797546 71.2005837,3.71288344 70.819152,3.54601227 C68.3610367,2.58650307 65.8181587,1.79386503 63.1905181,1.20981595 C61.7495539,4.71411043 60.9019279,8.46871166 60.1814458,12.1815951 C59.8423954,13.9754601 59.5457263,15.8110429 59.2490572,17.604908 C59.0371507,18.8564417 58.8252442,20.0245399 58.6133377,21.2343558 Z" id="路径"></path>
                    <path d="M60.6052588,25.0306748 C59.7576328,25.0306748 58.9523881,24.9889571 58.1047621,24.9472393 C57.6385678,29.2858896 57.5538052,33.6245399 57.9776182,37.9214724 C60.3933523,33.6662577 62.5971799,29.3276074 64.6314823,24.9055215 C63.2752807,24.9889571 61.9190791,25.0306748 60.6052588,25.0306748 Z" id="路径"></path>
                    <path d="M70.6072455,20.5251534 C74.6758503,19.8159509 78.6596925,18.6895706 82.5163908,17.1042945 C84.381168,16.3116564 86.2035639,15.4355828 87.9411972,14.4760736 C85.7373696,12.3484663 83.3216355,10.3877301 80.6939949,8.67730061 C79.0835055,7.59263804 77.3882535,6.63312883 75.5658576,5.71533742 C74.4639438,10.5546012 72.7686918,15.2687117 70.9039146,19.8993865 C70.7767707,20.0662577 70.6920081,20.3165644 70.6072455,20.5251534 Z" id="路径"></path>
                    <path d="M71.7091593,24.1128834 C70.7767707,24.2797546 69.8443821,24.404908 68.9119936,24.5300613 C67.6405546,27.4920245 66.2419717,30.4122699 64.8010075,33.2907975 C63.5719498,35.6687117 62.3005108,38.004908 60.9866905,40.2993865 C68.0219863,38.2552147 74.9301381,35.8773006 81.7111461,33.0822086 C86.8816647,30.9128834 91.9250394,28.5349693 96.8836515,25.9067485 C96.5869824,25.406135 96.2903133,24.9055215 95.9936442,24.4466258 C94.4679174,21.9852761 92.6879028,19.5656442 90.6112191,17.2711656 C88.7888232,18.3141104 86.8816647,19.2736196 84.9321249,20.1079755 C80.6939949,21.9435583 76.2863397,23.3619632 71.7091593,24.1128834 Z" id="路径"></path>
                    <path d="M59.0371507,44.7631902 C59.8000141,48.0588957 60.8171653,51.2711656 62.1309856,54.4 C63.9533815,58.6134969 66.284353,62.5766871 69.0815188,66.2478528 C69.2086627,66.4147239 69.3781879,66.6233129 69.5053318,66.790184 C71.7091593,63.2858896 74.2944186,59.990184 77.1339657,56.9447853 C80.6939949,53.1484663 84.6778371,49.7276074 89.043111,46.8907975 C93.2388597,44.1791411 97.7312774,41.9263804 102.435602,40.1742331 C102.05417,38.5472393 101.630357,36.9202454 101.0794,35.3349693 C100.401299,33.2907975 99.5536733,31.2466258 98.6212847,29.2858896 C95.5698312,30.9128834 92.5183776,32.4147239 89.3821614,33.8331288 C79.5920811,38.2969325 69.4205692,41.9263804 59.0371507,44.7631902 Z" id="路径"></path>
                    <path d="M103.156084,43.8871166 C102.562746,44.0957055 101.927026,44.3460123 101.333688,44.596319 C96.4598385,46.6404908 91.8826581,49.2687117 87.6869094,52.397546 C83.4487794,55.6515337 79.6768437,59.406135 76.3711023,63.5779141 C74.8453755,65.5386503 73.4467926,67.5828221 72.1329723,69.7104294 C74.9301381,72.6723926 78.023973,75.3840491 81.2873331,77.8871166 C84.381168,80.2233129 87.6021468,82.392638 90.8231256,84.5202454 C92.8150467,82.3092025 94.5950613,79.9312883 96.1631694,77.4282209 C98.0703278,74.3828221 99.6808172,71.003681 100.952256,67.3742331 C102.096551,64.0368098 102.944177,60.407362 103.36799,56.5693252 C103.834185,52.4392638 103.749422,48.1423313 103.156084,43.8871166 Z" id="路径"></path>
                    <path d="M60.774784,60.2822086 C58.8252442,56.5276074 57.2147548,52.5644172 56.0704597,48.4760736 C51.0694663,56.3607362 45.5598973,63.9533742 39.8808032,71.3374233 C40.6436666,72.1717791 41.40653,73.0478528 42.127012,73.9656442 C43.7375014,75.9680982 45.2632282,78.0957055 46.6194298,80.3067485 C48.0180127,82.601227 49.2470704,85.0208589 50.3066029,87.4822086 C52.3409053,86.9815951 54.417589,86.606135 56.4942727,86.4392638 C57.5114239,86.3558282 58.5285751,86.3141104 59.5457263,86.3141104 C60.1390645,86.3141104 60.7324027,86.3141104 61.2833596,86.3558282 C61.7071726,84.4785276 62.2157482,82.6429448 62.8090864,80.807362 C64.0381441,77.1361963 65.6062522,73.590184 67.4710294,70.2110429 C64.8857701,67.1239264 62.6395612,63.8282209 60.774784,60.2822086 Z" id="路径"></path>
                    <path d="M60.5628775,90.0687117 C60.2238271,90.0687117 59.927158,90.0687117 59.5881076,90.0687117 C58.1047621,90.0687117 56.6637979,90.1521472 55.1804524,90.3607362 C53.993776,90.5276074 52.8494809,90.7361963 51.7051858,91.0282209 C52.0442362,91.9042945 52.3409053,92.7803681 52.6375744,93.6564417 C53.5275817,96.3680982 54.2480638,99.1631902 54.8837833,101.958282 C56.7061792,101.833129 58.5709564,101.62454 60.4781149,101.332515 C60.350971,100.831902 60.2662084,100.373006 60.1814458,99.8723926 C59.8847767,97.7447853 59.8847767,95.6171779 60.0966832,93.4478528 C60.1814458,92.2797546 60.350971,91.195092 60.5628775,90.0687117 Z" id="路径"></path>
                    <path d="M81.5840022,82.7680982 C77.5577787,79.8478528 73.6586991,76.7607362 70.1834325,73.1730061 C69.4629505,74.5496933 68.7848497,75.9680982 68.1491302,77.3865031 C66.8776912,80.4319018 65.86054,83.5607362 65.0976766,86.7730061 C67.2591229,87.1484663 69.3358066,87.7742331 71.3701089,88.5251534 C73.8282243,89.4846626 76.2439584,90.6110429 78.5325486,91.9877301 C79.2530307,92.404908 79.9735128,92.8638037 80.6939949,93.3226994 C80.7363762,93.2809816 80.8211388,93.2392638 80.8635201,93.197546 C83.4911607,91.4453988 85.9492761,89.4846626 88.195485,87.2736196 C88.1107224,87.190184 87.9835785,87.1484663 87.8988159,87.0650307 C85.7373696,85.7300613 83.6183046,84.2699387 81.5840022,82.7680982 Z" id="路径"></path>
                    <path d="M64.3348132,90.4441718 C64.2076693,91.1533742 64.0805254,91.8208589 63.9957628,92.5300613 C63.741475,94.6993865 63.6143311,96.8687117 63.8686189,99.0380368 C63.9533815,99.5386503 64.0381441,100.039264 64.165288,100.539877 C68.6153245,99.4552147 72.9805983,97.7865031 77.0492031,95.5337423 C75.1420446,94.407362 73.1925048,93.3644172 71.1582024,92.4883436 C68.9543749,91.6122699 66.6657847,90.9030675 64.3348132,90.4441718 Z" id="路径"></path>
                    <path d="M29.3278595,78.7214724 C29.3278595,78.7214724 29.2854782,78.7631902 29.2854782,78.7631902 C29.2007156,78.8883436 29.115953,78.9717791 29.0311904,79.0969325 C29.1583343,78.9717791 29.2430969,78.8466258 29.3278595,78.7214724 Z" id="路径"></path>
                    <path d="M34.3712342,72.2552147 C34.5407594,72.0466258 34.6679033,71.8797546 34.8374285,71.6711656 C33.8626586,70.7533742 32.8455074,69.8773006 31.7435936,69.0429448 C29.1583343,67.1239264 26.4035498,65.5386503 23.4368588,64.2453988 C22.5892328,63.9116564 21.7416068,63.5779141 20.8515995,63.2858896 C19.2834914,65.997546 17.5882394,68.6257669 15.7234622,71.1705521 C13.6043973,74.1325153 11.3158071,76.9693252 9.02721687,79.806135 C9.57817377,80.598773 10.2138933,81.4331288 10.8919941,82.3092025 C13.0958217,85.1042945 15.5963183,87.6907975 18.3511028,89.9852761 C18.5630093,90.1521472 18.7325345,90.3190184 18.944441,90.4858896 C22.7163767,86.8981595 26.0644994,82.8515337 29.2430969,78.7631902 C31.0231115,76.593865 32.6759822,74.4245399 34.3712342,72.2552147 Z" id="路径"></path>
                    <path d="M46.6194298,88.5668712 C44.7546526,84.4368098 42.4236811,80.5153374 39.6265154,76.9276074 C38.9484146,76.0515337 38.2279325,75.2171779 37.4650691,74.3828221 C37.0836374,74.8417178 36.744587,75.3006135 36.3631553,75.7595092 C32.3793131,80.8490798 28.5226148,86.0638037 24.030197,90.7361963 C23.3520962,91.403681 22.7163767,92.1128834 22.0382759,92.7386503 C23.8182905,93.990184 25.725449,95.1165644 27.6326075,96.1177914 C28.8616652,96.7435583 30.1331042,97.3693252 31.4045432,97.9116564 C31.4469245,97.8699387 31.4893058,97.8699387 31.4893058,97.8282209 C32.7183635,96.7018405 34.0321838,95.6171779 35.3460041,94.6159509 C37.1684,93.197546 39.0755585,91.9460123 41.1522422,90.8613497 C42.974638,90.0269939 44.7546526,89.2343558 46.6194298,88.5668712 Z" id="路径"></path>
                    <path d="M45.9837103,92.8220859 C43.1865445,94.0319018 40.558904,95.4920245 38.1007886,97.3276074 C37.2107813,97.995092 36.320774,98.7042945 35.473148,99.4552147 C36.320774,99.7472393 37.1684,99.997546 38.016026,100.206135 C41.5336739,101.165644 45.2632282,101.749693 49.1623078,101.958282 C49.755646,102 50.3489842,102 50.9847037,102 C50.179459,98.6208589 49.2470704,95.2834356 48.060394,92.0294479 C47.3399119,92.2797546 46.6618111,92.5717791 45.9837103,92.8220859 Z" id="路径"></path>
                    <path d="M15.0877427,48.392638 C16.6558508,48.2674847 18.2239589,48.1423313 19.7496857,48.0171779 C20.9363621,47.9337423 22.1230385,47.808589 23.2673336,47.6834356 C23.4792401,46.807362 23.6487653,45.8895706 23.7759092,45.0134969 C24.0725783,42.4687117 24.1149596,39.9656442 23.7759092,37.4208589 C23.6911466,36.9619632 23.6487653,36.5030675 23.5216214,36.0441718 C20.9363621,37.2957055 18.2239589,38.2969325 15.4691744,39.1312883 C10.7648502,40.5079755 5.84861938,41.3006135 0.974769897,41.3006135 C0.423812998,44.0122699 0.0847625997,46.7656442 0,49.5190184 C3.51764789,49.4355828 7.03529577,49.1435583 10.5105624,48.809816 C12.0786705,48.6429448 13.6043973,48.5177914 15.0877427,48.392638 Z" id="路径"></path>
                    <path d="M13.6467786,57.8208589 C15.4691744,58.0711656 17.249189,58.3631902 19.0292036,58.8220859 C19.7073044,57.5288344 20.3006426,56.2355828 20.8939808,54.9006135 C21.3601751,53.7742331 21.7839881,52.6478528 22.2078011,51.5214724 C21.6568442,51.5631902 21.1058873,51.6466258 20.5125491,51.6883436 C17.7577646,51.9386503 15.0029801,52.1472393 12.2481957,52.397546 C9.49341117,52.6478528 6.73862668,52.9398773 3.94146089,53.1067485 C2.67002189,53.190184 1.39858289,53.2319018 0.0847625997,53.2736196 C0.169525199,54.9006135 0.296669099,56.5693252 0.550956898,58.196319 C0.635719498,58.196319 0.720482097,58.1546012 0.762863397,58.1546012 C3.30574139,57.7374233 5.84861938,57.4871166 8.43387867,57.4871166 C10.171512,57.4871166 11.9091453,57.6122699 13.6467786,57.8208589 Z" id="路径"></path>
                    <path d="M17.0796638,62.2429448 C15.9353687,61.992638 14.7486923,61.7423313 13.562016,61.5754601 C11.8243827,61.3668712 10.0443681,61.2417178 8.30673477,61.2417178 C6.52672018,61.2417178 4.74670558,61.3668712 2.96669099,61.5754601 C2.37335279,61.6588957 1.78001459,61.7423313 1.1866764,61.8674847 C1.2290577,61.992638 1.2290577,62.1595092 1.271439,62.2846626 C2.03430239,65.7889571 3.30574139,69.3349693 5.00099338,72.9226994 C5.55195028,74.0907975 6.18766978,75.2588957 6.86577058,76.4687117 C7.67101527,75.5092025 8.43387867,74.5079755 9.19674207,73.5484663 C12.0786705,69.9190184 14.7486923,66.1644172 17.0796638,62.2429448 Z" id="路径"></path>
                    <path d="M32.1674066,13.1828221 C34.4559968,14.8515337 36.9141122,16.2282209 39.5417528,17.3128834 C39.9231845,17.4797546 40.2622349,17.604908 40.6436666,17.7300613 C40.6436666,17.6883436 40.6860479,17.6883436 40.6860479,17.6466258 C43.1865445,14.4343558 45.3479908,10.9717791 47.0008615,7.21717791 C47.9756314,4.8809816 48.7384948,2.50306748 49.1199265,0 C49.0351639,0 48.9504013,0 48.8656387,0 C45.0089404,0.250306748 41.1946235,0.87607362 37.592213,1.9190184 C34.1169464,2.9202454 30.6840611,4.29693252 27.3359384,6.09079755 C26.996888,6.25766871 26.6578376,6.46625767 26.3187872,6.63312883 C26.7849815,7.42576687 27.2935571,8.21840491 27.8868953,8.96932515 C29.115953,10.596319 30.5569172,11.9730061 32.1674066,13.1828221 Z" id="路径"></path>
                    <path d="M20.9363621,21.6932515 C22.2078011,23.2368098 23.3520962,24.8638037 24.2844848,26.6159509 C24.9202043,27.8674847 25.5135425,29.1607362 26.0221181,30.4539877 C27.8868953,29.3693252 29.7092912,28.1595092 31.4469245,26.8662577 C33.8202773,25.0306748 36.0241049,22.9447853 38.0584073,20.7337423 C37.7617382,20.608589 37.4650691,20.4834356 37.2107813,20.3582822 C33.6507521,18.8147239 30.3026294,16.7705521 27.4630823,14.1006135 C26.0644994,12.7656442 24.7930604,11.3055215 23.7335279,9.67852761 C23.5216214,9.34478528 23.3097149,9.01104294 23.0978084,8.63558282 C21.4449377,9.76196319 19.792067,10.9717791 18.1815776,12.3484663 C17.1220451,13.2245399 16.1048939,14.1840491 15.0453614,15.2269939 C17.2068077,17.2294479 19.1139662,19.4404908 20.9363621,21.6932515 Z" id="路径"></path>
                    <path d="M19.5801605,33.7079755 C20.5973117,33.2907975 21.6144629,32.790184 22.6316141,32.2895706 C22.4197076,31.6638037 22.2078011,31.0380368 21.9535133,30.4122699 C21.0211247,28.3263804 19.8768296,26.3656442 18.4782467,24.5300613 C16.6558508,22.2355828 14.706311,19.9828221 12.5024835,18.0220859 C11.9091453,18.6895706 11.3158071,19.4404908 10.6800876,20.2748466 C8.47625997,23.1116564 6.56910148,26.2404908 4.95861208,29.5779141 C3.72955439,32.1226994 2.75478449,34.792638 1.99192109,37.5042945 C3.64479179,37.4625767 5.29766248,37.3374233 6.90815188,37.1288344 C11.2310445,36.5447853 15.5115557,35.3766871 19.5801605,33.7079755 Z" id="路径"></path>
                </g>
                <g id="SvgjsG1113" transform="translate(130.798309, 22.799579)" fill="#FFFFFF">
                    <path d="M42.9818161,23.9219485 L38.6677642,26.5757199 C34.9447254,21.6725344 29.8608518,19.2209417 23.4161433,19.2209417 C18.2552413,19.2209417 13.9737467,20.8511245 10.5716595,24.1114901 C7.16957235,27.3718557 5.46858834,31.3398895 5.46870747,36.0155914 C5.46870747,39.0484896 6.25182942,41.9107874 7.81807332,44.6024845 C9.38431722,47.2941817 11.5283274,49.3729221 14.250104,50.8387056 C16.9718805,52.3044892 20.0273153,53.0374444 23.4164083,53.0375714 C29.6557077,53.0375714 34.7395814,50.6112528 38.6680292,45.7586156 L42.9818161,48.5261329 C40.9534019,51.5084828 38.2381512,53.8147492 34.8360641,55.444932 C31.4339769,57.0751148 27.5504644,57.8901953 23.1855265,57.8901953 C16.5354089,57.8901953 11.008622,55.8050777 6.60516583,51.6348426 C2.20170962,47.4646076 0,42.3971603 0,36.4325009 C0,32.3886366 1.03346421,28.6417435 3.10039264,25.1918218 C5.16732106,21.7419 7.99164601,19.0501745 11.5733675,17.1166453 C15.1550889,15.183116 19.1797914,14.2164375 23.6474749,14.2164375 C26.4204969,14.2164375 29.1100715,14.6334611 31.7161986,15.4675081 C34.3223258,16.3015551 36.536931,17.3946666 38.3600142,18.7468426 C40.1830975,20.0990187 41.7236981,21.8239694 42.9818161,23.9216949 L42.9818161,23.9219485 Z M88.9288,43.0673491 L93.4733024,45.4557395 C92.009763,48.362267 90.2894624,50.7001261 88.3124004,52.4693167 C86.3353384,54.2385073 84.1142916,55.5843054 81.6492599,56.5067108 C79.1842282,57.4291163 76.3984216,57.8904889 73.29184,57.8904889 C66.4106373,57.8904889 61.0314881,55.672682 57.1543926,51.2370683 C53.277297,46.8014547 51.3387862,41.7908156 51.3387862,36.2051512 C51.3387862,30.9228534 52.9820585,26.2218611 56.2686031,22.1021744 C60.4281361,16.8451507 66.0126942,14.2166389 73.0222776,14.2166389 C80.1859177,14.2166389 85.9245327,16.9083361 90.2381224,22.2917305 C93.2935818,26.0828533 94.8341496,30.8091197 94.8598257,36.4705298 L56.9235046,36.4705298 C57.0262091,41.323167 58.592453,45.2975274 61.6222363,48.393611 C64.6520196,51.4896946 68.3879005,53.0377506 72.8298792,53.0377789 C74.986674,53.0377789 77.0792786,52.6649851 79.1076928,51.9193976 C81.1361071,51.1738102 82.8628576,50.1944315 84.2879444,48.9812617 C85.7130312,47.7680919 87.2600735,45.7967566 88.9290712,43.0672557 L88.9288,43.0673491 Z M88.9288247,31.8833792 C88.2098684,29.0274 87.1571471,26.7464078 85.7706361,25.0404025 C84.3841251,23.3343972 82.5482613,21.9568953 80.2630447,20.9078967 C77.9778281,19.858898 75.577073,19.3344638 73.0607795,19.334594 C68.9269226,19.334594 65.3707787,20.64885 62.3923477,23.2773618 C60.2355528,25.1981973 58.6051186,28.0668136 57.501045,31.8832105 L88.9288247,31.8832105 L88.9288247,31.8833792 Z M104.950064,42.0816815 L104.873037,37.6459829 C104.796008,35.4724058 104.885875,33.6273927 105.142636,32.1109436 C105.707511,27.3341288 106.939965,23.8336588 108.839999,21.6095334 C110.68868,19.6634237 112.575875,18.1596117 114.501585,17.0980973 C117.685425,15.7585672 121.318598,15.1267134 125.401102,15.2025359 C128.584942,15.2025359 131.531278,15.9923531 134.24011,17.5719876 C136.948941,19.1516221 138.881035,21.2746186 140.036391,23.9409769 C141.191747,26.6073352 141.769518,30.7838383 141.769518,36.4704861 L141.769518,57.852682 L136.377481,57.852682 L136.377481,38.0248828 C136.377481,33.222794 136.172072,30.0129767 135.761254,28.3954309 C135.119351,25.6405484 133.848382,23.6881201 131.948349,22.5381462 C130.048315,21.3881723 127.236742,20.8131801 123.513629,20.8131696 C120.227085,20.8131696 117.300006,21.7483132 114.732393,23.6186004 C112.16478,25.4888877 110.970844,28.0416336 111.150585,31.2768383 C110.662739,33.3493188 110.418816,37.1278045 110.418816,42.6122955 L110.418816,57.852682 L104.949874,57.852682 L104.949874,42.0816111 L104.950064,42.0816815 Z M168.575562,51.9764028 C165.905245,53.3917553 163.286279,53.505489 160.718667,52.3176038 C157.586179,49.9671077 156.096963,46.6182826 156.25102,42.2711284 L156.25102,24.6801245 L166.264858,24.6801245 L166.264858,20.0930236 L156.212765,20.0930236 L156.212765,0 L150.743823,0 L150.743823,43.1807067 C150.692471,46.213605 151.398564,48.9937617 152.862104,51.5211769 C155.27566,55.5397671 158.562204,57.6627958 162.721737,57.8902632 C164.929885,57.9660857 167.446145,57.4732397 170.270519,56.4117253 C169.834025,55.3502109 169.26915,53.871673 168.575895,51.9761116 L168.575562,51.9764028 Z M198.886344,14.2162859 C205.382405,14.2162859 210.774392,16.5288708 215.062306,21.1540406 C219.016429,25.374824 220.993491,30.3917432 220.993491,36.2047981 C221.044844,50.5605165 221.044844,57.8521093 220.993491,58.0795767 L215.25479,58.0795767 L215.25479,48.6398386 C212.250683,54.1496038 206.794506,57.2330503 198.886258,57.8901783 C192.415873,57.8901783 187.133009,55.7229197 183.037667,51.3884027 C178.942324,47.0538856 176.894721,41.9927791 176.894721,36.2050832 C176.894721,30.4425766 178.833268,25.4382945 182.710364,21.1922369 C186.998278,16.541793 192.390265,14.2162859 198.886325,14.2162859 L198.886344,14.2162859 Z M198.886344,19.4493213 C194.393021,19.4493213 190.528764,21.0921897 187.293571,24.3778295 C184.058379,27.6634692 182.44066,31.631503 182.44066,36.2819308 C182.44066,39.2895549 183.268715,42.1834453 184.924825,44.963602 C186.580936,47.7437588 189.386067,50.0942468 193.34022,52.0150662 C203.251206,54.1886433 210.299303,49.7530296 214.484513,38.7082251 C214.715598,35.1698439 214.330456,31.7831075 213.329087,28.548016 C212.610155,27.0821152 211.621624,25.6920369 210.363494,24.377781 C207.20533,21.0921412 203.379587,19.4493213 198.886264,19.4493213 L198.886344,19.4493213 Z M230.81477,15.2796067 L236.283713,15.2796067 L236.283713,34.6905327 C236.283713,39.4420733 236.540474,42.7024389 237.053997,44.4716295 C237.824281,47.0243189 239.300658,49.0399325 241.483129,50.5184704 C243.6656,51.9970083 246.284582,52.7362785 249.340074,52.7362809 C252.369857,52.7362809 254.93747,52.0159676 257.042913,50.5753409 C259.148355,49.1347142 260.599036,47.2392094 261.394955,44.8888265 C261.95983,43.296555 262.242267,39.8971815 262.242267,34.6907062 L262.242267,15.2801575 L267.788509,15.2801575 L267.788509,35.7144185 C267.788509,41.451651 267.101672,45.7672125 265.727999,48.6611029 C264.354326,51.5549933 262.306678,53.8169693 259.585053,55.4470307 C256.863428,57.0770922 253.448446,57.892294 249.340105,57.892294 C245.206248,57.892294 241.765647,57.0772026 239.018301,55.4470198 C236.270955,53.816837 234.216865,51.529498 232.85603,48.5850026 C231.495195,45.6405073 230.81477,41.2111495 230.81477,35.2969292 L230.81477,15.2796067 L230.81477,15.2796067 Z M277.725047,38.8210975 L277.725047,33.8166698 C278.135866,31.3145288 278.726417,29.2799595 279.4967,27.7129621 C281.294029,23.365808 283.707586,20.1812648 286.737369,18.1593326 C289.767152,16.1374005 292.283462,15.1264344 294.286299,15.1264344 C295.775514,15.1264344 297.367434,15.6066433 299.062059,16.5670611 L296.250525,21.0404161 C293.862645,20.181095 291.494022,20.8761341 289.144656,23.1255337 C286.795291,25.3749332 285.171212,27.8264855 284.27242,30.4801906 C283.60484,32.8306867 283.271051,37.2410262 283.271051,43.7112092 L283.271051,57.7760928 L277.72481,57.7760928 L277.72481,38.8205273 L277.725047,38.8210975 Z M302.951856,15.2796067 L308.420799,15.2796067 L308.420799,34.6905327 C308.420799,39.4420733 308.67756,42.7024389 309.191083,44.4716295 C309.961366,47.0243189 311.437744,49.0399325 313.620215,50.5184704 C315.802686,51.9970083 318.421668,52.7362785 321.47716,52.7362809 C324.506943,52.7362809 327.074556,52.0159676 329.179999,50.5753409 C331.285441,49.1347142 332.736122,47.2392094 333.532041,44.8888265 C334.096916,43.296555 334.379353,39.8971815 334.379353,34.6907062 L334.379353,15.2801575 L339.925594,15.2801575 L339.925594,35.7144185 C339.925594,41.451651 339.238758,45.7672125 337.865085,48.6611029 C336.491412,51.5549933 334.443763,53.8169693 331.722139,55.4470307 C329.000514,57.0770922 325.585532,57.892294 321.477191,57.892294 C317.343334,57.892294 313.902732,57.0772026 311.155387,55.4470198 C308.408041,53.816837 306.35395,51.529498 304.993115,48.5850026 C303.632281,45.6405073 302.951856,41.2111495 302.951856,35.2969292 L302.951856,15.2796067 L302.951856,15.2796067 Z M373.163209,19.8259345 L369.696916,23.3895948 C366.769837,20.6094381 363.932625,19.2193597 361.185279,19.2193597 C359.413626,19.2193597 357.898735,19.7880281 356.640604,20.925365 C355.382474,22.0627018 354.753403,23.4148406 354.753392,24.9817814 C354.753392,26.2960373 355.279752,27.5597449 356.332474,28.7729042 C357.359519,30.061886 359.529152,31.5404239 362.841372,33.2085179 C366.898201,35.2557242 369.645547,37.2397452 371.08341,39.1605807 C372.495597,41.1066904 373.201691,43.2929046 373.201691,45.7192232 C373.201691,49.1059595 371.988494,51.9808943 369.562099,54.3440275 C367.135705,56.7071607 364.099464,57.8887431 360.453375,57.8887431 C358.014143,57.8887431 355.684034,57.3769415 353.463049,56.3533384 C351.242064,55.3297352 349.412642,53.8954251 347.974783,52.0504079 L351.402543,48.2213666 C354.175565,51.3048132 357.115482,52.8465364 360.222294,52.8465364 C362.379089,52.8465364 364.221351,52.1578158 365.749081,50.7803745 C367.27681,49.4029332 368.040669,47.7917283 368.040657,45.9467597 C368.040657,44.4050364 367.539972,43.0402322 366.538603,41.852347 C365.537234,40.6644619 363.264917,39.1733435 359.721652,37.378992 C355.895909,35.4834306 353.30262,33.5752321 351.941785,31.6543966 C350.555274,29.7841093 349.862019,27.6358064 349.862019,25.2094878 C349.862019,22.0502188 350.959673,19.4280255 353.154982,17.342908 C355.350291,15.2577904 358.104021,14.2152474 361.416172,14.2152474 C365.293268,14.2152474 369.208878,16.0855347 373.163001,19.8261092 L373.163209,19.8259345 Z" id="形状"></path>
                </g>
            </g>
        </g>
    </g>
</svg>